<svg width="395" height="396" viewBox="0 0 395 396" fill="none" xmlns="http://www.w3.org/2000/svg">
<path d="M223.125 241.023C223.125 237.309 225.23 233.963 228.32 231.902C243.79 221.586 254 203.846 254 183.692C254 151.83 228.48 126 197 126C165.52 126 140 151.83 140 183.692C140 203.846 150.21 221.586 165.68 231.902C168.77 233.963 170.875 237.309 170.875 241.023C170.875 246.533 175.342 251 180.852 251H213.148C218.658 251 223.125 246.533 223.125 241.023Z" fill="#F9DA94"/>
<path d="M180.962 128C157.284 135.058 140 157.237 140 183.506C140 203.727 150.242 221.525 165.759 231.868C168.838 233.921 170.937 237.283 170.937 241.017C170.937 246.53 175.349 251 180.793 251L187 251C184.043 251 181.646 248.572 181.646 245.576V234.126C157.483 201.295 157.255 167.872 180.962 128Z" fill="#FAD278"/>
<ellipse cx="190.5" cy="167" rx="9.5" ry="9" fill="white"/>
<circle cx="207" cy="167" r="9" fill="white"/>
<circle cx="192.5" cy="171.5" r="4.5" fill="#4C4763"/>
<circle cx="210.5" cy="171.5" r="4.5" fill="#4C4763"/>
<path d="M178 190C180.5 187 186.178 182.5 197.5 182.5C208.822 182.5 215.5 186.5 219 190" stroke="#4C4763" stroke-width="3" stroke-linecap="round"/>
<path d="M190 53.1928C190 52.534 190.534 52 191.193 52H204.807C205.466 52 206 52.534 206 53.1928V62C206 66.4183 202.418 70 198 70C193.582 70 190 66.4183 190 62V53.1928Z" fill="#4C4763"/>
<path d="M171 248C171 246.896 171.895 246 173 246H222C222.461 246 222.887 246.156 223.225 246.419C223.697 246.785 224 247.357 224 248V248.598C223.109 249.128 222.424 250.363 222.301 251.848C222.152 253.656 222.887 255.233 224 255.668V260.61C223.646 260.826 223.322 261.144 223.047 261.541C222.871 261.795 222.715 262.081 222.586 262.393C222.418 262.801 222.293 263.254 222.229 263.737C222.152 264.301 222.164 264.848 222.248 265.35C222.438 266.471 222.998 267.364 223.771 267.713C222.482 275.258 215.91 281 208 281H187C181.76 281 177.107 278.48 174.189 274.587C174.338 274.389 174.461 274.158 174.559 273.903C174.592 273.813 174.623 273.72 174.65 273.625C174.723 273.381 174.77 273.119 174.795 272.844C174.85 272.259 174.797 271.614 174.621 270.959C174.082 268.947 172.586 267.594 171.264 267.91C171.09 266.966 171 265.994 171 265V262.91C172.078 262.452 172.803 260.917 172.691 259.148C172.596 257.626 171.908 256.354 171 255.825V248Z" fill="#4C4763"/>
<path d="M171.036 262.882C172.09 262.401 172.793 260.885 172.683 259.141C172.587 257.623 171.904 256.355 171 255.823L223.979 248.598C223.094 249.132 222.415 250.362 222.292 251.841C222.144 253.648 222.878 255.226 223.991 255.661L171.036 262.882Z" fill="#716B89"/>
<path d="M174.183 274.583C174.182 274.582 174.182 274.581 174.181 274.579C174.329 274.381 174.452 274.151 174.55 273.895C174.583 273.806 174.614 273.713 174.642 273.617C174.714 273.373 174.761 273.112 174.786 272.837C174.841 272.251 174.788 271.606 174.612 270.951C174.135 269.171 172.909 267.907 171.717 267.858L223.991 260.598V260.602C223.638 260.818 223.314 261.137 223.038 261.534C222.862 261.788 222.706 262.074 222.577 262.385C222.409 262.794 222.284 263.247 222.22 263.729C222.144 264.294 222.155 264.841 222.239 265.342C222.428 266.456 222.982 267.344 223.747 267.699L174.183 274.583Z" fill="#716B89"/>
<path d="M174.181 274.579L174.183 274.583L223.747 267.699C222.982 267.344 222.428 266.456 222.239 265.342C222.155 264.841 222.144 264.294 222.22 263.729C222.284 263.247 222.409 262.794 222.577 262.385C222.706 262.073 222.862 261.788 223.038 261.534C223.314 261.137 223.638 260.818 223.991 260.602V260.598L171.717 267.858C172.909 267.907 174.135 269.171 174.612 270.951C174.788 271.606 174.841 272.251 174.786 272.836C174.761 273.112 174.714 273.373 174.642 273.617C174.614 273.713 174.583 273.805 174.55 273.895C174.452 274.151 174.329 274.381 174.181 274.579Z" fill="#716B89"/>
<path d="M197 157.5C192.552 162.487 181.261 168.798 179.5 167.5H178L184.5 153L197 157.5Z" fill="#F9DA94"/>
<path d="M200 157.5C204.448 162.487 215.739 168.798 217.5 167.5H219L212.5 153L200 157.5Z" fill="#F9DA94"/>
<path d="M200 176.5C200 177.881 195.523 179 190 179C184.477 179 180 177.881 180 176.5C180 175.119 184.477 174 190 174C195.523 174 200 175.119 200 176.5Z" fill="#F9DA94"/>
<path d="M217 176.5C217 177.881 212.523 179 207 179C201.477 179 197 177.881 197 176.5C197 175.119 201.477 174 207 174C212.523 174 217 175.119 217 176.5Z" fill="#F9DA94"/>
<path d="M174.5 376C175.692 374.097 176.689 373.268 179.5 372.5C179.667 372.647 179.83 372.793 179.99 372.936C182.501 375.176 184.333 376.811 188 377C190.618 374.814 192.439 374.133 196 373.5C198.33 373.817 200.756 376.254 201.716 377.218C201.834 377.337 201.929 377.433 202 377.5C203.743 379.159 211.217 374.661 212 372.5C215.071 373.235 216.656 373.742 217.5 376C219.691 375.56 221.033 374.082 222 372.128C222 372.085 222 372.043 222 372C222 363.322 217.394 355.719 210.493 351.504C207.432 349.634 205 346.586 205 343L191 343C191 346.586 188.568 349.634 185.507 351.504C178.606 355.719 174 363.322 174 372C174 373.321 174.107 374.617 174.312 375.88C174.374 375.922 174.437 375.962 174.5 376Z" fill="#EBF2F9"/>
<path d="M206 342.807C206 343.466 205.466 344 204.807 344H191.193C190.534 344 190 343.466 190 342.807L190 334C190 329.582 193.582 326 198 326C202.418 326 206 329.582 206 334V342.807Z" fill="#4C4763"/>
<path d="M174.5 19.8596C175.692 21.7624 176.689 22.5918 179.5 23.3596C179.667 23.2119 179.83 23.0665 179.99 22.9236C182.501 20.6831 184.333 19.0487 188 18.8594C190.618 21.0452 192.439 21.7261 196 22.3594C198.33 22.0426 200.756 19.6051 201.716 18.6412C201.834 18.5228 201.929 18.4266 202 18.3594C203.743 16.7005 211.217 21.198 212 23.3596C215.071 22.6242 216.656 22.1171 217.5 19.8596C219.691 20.2992 221.033 21.7776 222 23.7313C222 23.774 222 23.8167 222 23.8594C222 32.5375 217.394 40.1402 210.493 44.3555C207.432 46.2249 205 49.2732 205 52.8594H191C191 49.2732 188.568 46.2249 185.507 44.3555C178.606 40.1402 174 32.5375 174 23.8594C174 22.5384 174.107 21.2425 174.312 19.9795C174.374 19.9375 174.437 19.8975 174.5 19.8596Z" fill="#EBF2F9"/>
<path d="M307.298 340.461C306.795 338.273 306.914 336.981 308.359 334.451C308.581 334.437 308.799 334.425 309.013 334.413C312.373 334.221 314.824 334.082 317.551 331.623C317.857 328.226 318.663 326.457 320.733 323.491C322.605 322.067 326.044 322.075 327.404 322.078C327.571 322.079 327.707 322.079 327.804 322.077C330.21 322.017 332.315 313.552 331.34 311.47C334.031 309.818 335.51 309.056 337.704 310.055C338.942 308.196 338.845 306.201 338.148 304.136C338.118 304.106 338.087 304.076 338.057 304.045C331.921 297.909 323.288 295.79 315.428 297.689C311.942 298.531 308.066 298.096 305.53 295.56L295.631 305.46C298.167 307.995 298.602 311.871 297.76 315.357C295.861 323.217 297.98 331.85 304.116 337.986C305.05 338.92 306.042 339.761 307.08 340.509C307.154 340.495 307.226 340.479 307.298 340.461Z" fill="#EBF2F9"/>
<path d="M306.1 294.717C306.566 295.183 306.566 295.938 306.1 296.404L296.473 306.031C296.008 306.496 295.252 306.496 294.787 306.031L288.559 299.803C285.435 296.679 285.435 291.613 288.559 288.489C291.683 285.365 296.748 285.365 299.873 288.489L306.1 294.717Z" fill="#4C4763"/>
<path d="M55.4683 88.6318C57.6564 89.1346 58.9478 89.0162 61.4787 87.5711C61.4919 87.3491 61.5044 87.131 61.5166 86.9166C61.7079 83.5568 61.8475 81.1058 64.3067 78.3789C67.7036 78.0732 69.4726 77.2672 72.4384 75.1969C73.8622 73.3252 73.8541 69.8861 73.8509 68.5261C73.8505 68.359 73.8502 68.2234 73.8526 68.1258C73.9123 65.7202 82.3774 63.6155 84.4597 64.5902C86.1112 61.8986 86.8729 60.4199 85.8739 58.2262C87.7336 56.9882 89.7281 57.0845 91.7931 57.7825C91.8234 57.8125 91.8537 57.8426 91.8839 57.8728C98.0203 64.0092 100.139 72.6422 98.24 80.5025C97.3979 83.9884 97.8334 87.8639 100.369 90.3997L90.4697 100.299C87.9339 97.7634 84.0583 97.3279 80.5725 98.17C72.7122 100.069 64.0792 97.9503 57.9427 91.8139C57.0087 90.8799 56.1678 89.888 55.4199 88.8498C55.434 88.7763 55.4501 88.7036 55.4683 88.6318Z" fill="#EBF2F9"/>
<path d="M101.214 89.8288C100.748 89.363 99.9928 89.363 99.527 89.8288L89.9001 99.4557C89.4343 99.9215 89.4343 100.677 89.9001 101.143L96.1278 107.37C99.252 110.494 104.317 110.494 107.441 107.37C110.566 104.246 110.566 99.1807 107.441 96.0565L101.214 89.8288Z" fill="#4C4763"/>
<path d="M376.07 221.429C374.167 220.238 373.338 219.241 372.57 216.429C372.718 216.263 372.863 216.1 373.006 215.94C375.247 213.429 376.881 211.597 377.07 207.93C374.884 205.312 374.204 203.491 373.57 199.93C373.887 197.599 376.325 195.173 377.288 194.214C377.407 194.096 377.503 194 377.57 193.93C379.229 192.186 374.732 184.712 372.57 183.929C373.306 180.858 373.813 179.274 376.07 178.429C375.63 176.239 374.152 174.897 372.198 173.93C372.156 173.93 372.113 173.93 372.07 173.93C363.392 173.93 355.79 178.536 351.574 185.437C349.705 188.497 346.656 190.93 343.07 190.93L343.07 204.93C346.656 204.93 349.705 207.362 351.574 210.422C355.79 217.323 363.392 221.93 372.07 221.93C373.391 221.93 374.687 221.823 375.95 221.618C375.992 221.556 376.032 221.493 376.07 221.429Z" fill="#EBF2F9"/>
<path d="M342.878 189.93C343.536 189.93 344.07 190.464 344.07 191.122V204.737C344.07 205.396 343.536 205.93 342.878 205.93H334.07C329.652 205.93 326.07 202.348 326.07 197.93C326.07 193.511 329.652 189.93 334.07 189.93L342.878 189.93Z" fill="#4C4763"/>
<path d="M19.9301 221.429C21.8329 220.238 22.6624 219.241 23.4301 216.429C23.2825 216.263 23.1371 216.1 22.9941 215.94C20.7536 213.429 19.1192 211.597 18.9299 207.93C21.1158 205.312 21.7966 203.491 22.4299 199.93C22.1132 197.599 19.6756 195.173 18.7118 194.214C18.5933 194.096 18.4972 194 18.4299 193.93C16.771 192.186 21.2685 184.712 23.4301 183.929C22.6947 180.858 22.1877 179.274 19.9301 178.429C20.3698 176.239 21.8482 174.897 23.8019 173.93C23.8445 173.93 23.8872 173.93 23.9299 173.93C32.6081 173.93 40.2107 178.536 44.426 185.437C46.2954 188.497 49.3438 190.93 52.9299 190.93V204.93C49.3438 204.93 46.2954 207.362 44.426 210.422C40.2107 217.323 32.6081 221.93 23.9299 221.93C22.609 221.93 21.313 221.823 20.0501 221.618C20.008 221.556 19.968 221.493 19.9301 221.429Z" fill="#EBF2F9"/>
<path d="M53.1225 189.93C52.4637 189.93 51.9297 190.464 51.9297 191.122L51.9297 204.737C51.9297 205.396 52.4637 205.93 53.1225 205.93L61.9297 205.93C66.348 205.93 69.9297 202.348 69.9297 197.93C69.9297 193.511 66.348 189.93 61.9297 189.93L53.1225 189.93Z" fill="#4C4763"/>
<path d="M340.532 88.6318C338.344 89.1346 337.052 89.0162 334.521 87.5711C334.508 87.3491 334.496 87.131 334.483 86.9166C334.292 83.5568 334.153 81.1058 331.693 78.3789C328.296 78.0732 326.527 77.2672 323.562 75.1969C322.138 73.3252 322.146 69.8861 322.149 68.5261C322.149 68.359 322.15 68.2234 322.147 68.1258C322.088 65.7202 313.623 63.6155 311.54 64.5902C309.889 61.8986 309.127 60.4199 310.126 58.2262C308.266 56.9882 306.272 57.0845 304.207 57.7825C304.177 57.8125 304.146 57.8426 304.116 57.8728C297.98 64.0092 295.861 72.6422 297.76 80.5025C298.602 83.9884 298.167 87.8639 295.631 90.3997L305.53 100.299C308.066 97.7634 311.942 97.3279 315.427 98.17C323.288 100.069 331.921 97.9503 338.057 91.8139C338.991 90.8799 339.832 89.888 340.58 88.8498C340.566 88.7763 340.55 88.7036 340.532 88.6318Z" fill="#EBF2F9"/>
<path d="M294.787 89.8288C295.252 89.363 296.008 89.363 296.473 89.8288L306.1 99.4557C306.566 99.9215 306.566 100.677 306.1 101.143L299.873 107.37C296.748 110.494 291.683 110.494 288.559 107.37C285.435 104.246 285.435 99.1807 288.559 96.0565L294.787 89.8288Z" fill="#4C4763"/>
<path d="M88.7031 340.461C89.2059 338.273 89.0875 336.981 87.6424 334.451C87.4203 334.437 87.2023 334.425 86.9879 334.413C83.6281 334.221 81.1771 334.082 78.4501 331.623C78.1445 328.226 77.3384 326.457 75.2682 323.491C73.3965 322.067 69.9574 322.075 68.5974 322.078C68.4303 322.079 68.2946 322.079 68.1971 322.077C65.7915 322.017 63.6868 313.552 64.6614 311.47C61.9699 309.818 60.4911 309.056 58.2975 310.055C57.0595 308.196 57.1558 306.201 57.8538 304.136C57.8838 304.106 57.9139 304.076 57.944 304.045C64.0805 297.909 72.7135 295.79 80.5738 297.689C84.0596 298.531 87.9352 298.096 90.471 295.56L100.37 305.46C97.8347 307.995 97.3992 311.871 98.2413 315.357C100.14 323.217 98.0216 331.85 91.8852 337.986C90.9512 338.92 89.9593 339.761 88.9211 340.509C88.8476 340.495 88.7749 340.479 88.7031 340.461Z" fill="#EBF2F9"/>
<path d="M101.239 306.198C100.773 306.664 100.018 306.664 99.5524 306.198L89.9255 296.572C89.4597 296.106 89.4597 295.351 89.9255 294.885L96.1532 288.657C99.2774 285.533 104.343 285.533 107.467 288.657C110.591 291.781 110.591 296.847 107.467 299.971L101.239 306.198Z" fill="#4C4763"/>
</svg>
