<svg width="395" height="396" viewBox="0 0 395 396" fill="none" xmlns="http://www.w3.org/2000/svg">
<path d="M205 53C205 49.4139 207.432 46.3655 210.493 44.4961C217.394 40.2808 222 32.6782 222 24C222 10.7451 211.254 0 198 0C184.746 0 174 10.7451 174 24C174 32.6782 178.606 40.2808 185.507 44.4961C188.568 46.3655 191 49.4139 191 53V53H205V53Z" fill="#7FD07E"/>
<path d="M223.125 241.023C223.125 237.309 225.23 233.963 228.32 231.902C243.79 221.586 254 203.846 254 183.692C254 151.83 228.48 126 197 126C165.52 126 140 151.83 140 183.692C140 203.846 150.21 221.586 165.68 231.902C168.77 233.963 170.875 237.309 170.875 241.023C170.875 246.533 175.342 251 180.852 251H213.148C218.658 251 223.125 246.533 223.125 241.023Z" fill="#7FD07E"/>
<path d="M180.962 128C157.284 135.058 140 157.237 140 183.506C140 203.727 150.242 221.525 165.759 231.868C168.838 233.921 170.937 237.283 170.937 241.017C170.937 246.53 175.349 251 180.793 251L187 251C184.043 251 181.646 248.572 181.646 245.576V234.126C157.483 201.295 157.255 167.872 180.962 128Z" fill="#6BC46A"/>
<path d="M190 53.1928C190 52.534 190.534 52 191.193 52H204.807C205.466 52 206 52.534 206 53.1928V62C206 66.4183 202.418 70 198 70C193.582 70 190 66.4183 190 62V53.1928Z" fill="#4C4763"/>
<path d="M171 248C171 246.896 171.895 246 173 246H222C222.461 246 222.887 246.156 223.225 246.419C223.697 246.785 224 247.357 224 248V248.598C223.109 249.128 222.424 250.363 222.301 251.848C222.152 253.656 222.887 255.233 224 255.668V260.61C223.646 260.826 223.322 261.144 223.047 261.541C222.871 261.795 222.715 262.081 222.586 262.393C222.418 262.801 222.293 263.254 222.229 263.737C222.152 264.301 222.164 264.848 222.248 265.35C222.438 266.471 222.998 267.364 223.771 267.713C222.482 275.258 215.91 281 208 281H187C181.76 281 177.107 278.48 174.189 274.587C174.338 274.389 174.461 274.158 174.559 273.903C174.592 273.813 174.623 273.72 174.65 273.625C174.723 273.381 174.77 273.119 174.795 272.844C174.85 272.259 174.797 271.614 174.621 270.959C174.082 268.947 172.586 267.594 171.264 267.91C171.09 266.966 171 265.994 171 265V262.91C172.078 262.452 172.803 260.917 172.691 259.148C172.596 257.626 171.908 256.354 171 255.825V248Z" fill="#4C4763"/>
<path d="M171.036 262.882C172.09 262.401 172.793 260.885 172.683 259.141C172.587 257.623 171.904 256.355 171 255.823L223.979 248.598C223.094 249.132 222.415 250.362 222.292 251.841C222.144 253.648 222.878 255.226 223.991 255.661L171.036 262.882Z" fill="#716B89"/>
<path d="M174.183 274.583C174.182 274.582 174.182 274.581 174.181 274.579C174.329 274.381 174.452 274.151 174.55 273.895C174.583 273.806 174.614 273.713 174.642 273.617C174.714 273.373 174.761 273.112 174.786 272.837C174.841 272.251 174.788 271.606 174.612 270.951C174.135 269.171 172.909 267.907 171.717 267.858L223.991 260.598V260.602C223.638 260.818 223.314 261.137 223.038 261.534C222.862 261.788 222.706 262.074 222.577 262.385C222.409 262.794 222.284 263.247 222.22 263.729C222.144 264.294 222.155 264.841 222.239 265.342C222.428 266.456 222.982 267.344 223.747 267.699L174.183 274.583Z" fill="#716B89"/>
<path d="M304.627 101.397C307.163 98.8612 311.039 98.4257 314.524 99.2678C322.385 101.167 331.018 99.0481 337.154 92.9117C346.527 83.5391 346.526 68.3425 337.154 58.9706C327.782 49.5986 312.586 49.5979 303.213 58.9706C297.077 65.107 294.958 73.74 296.857 81.6003C297.699 85.0862 297.264 88.9617 294.728 91.4975V91.4975L304.627 101.397V101.397Z" fill="#7FD07E"/>
<path d="M293.885 90.9265C294.351 90.4607 295.106 90.4607 295.572 90.9265L305.199 100.553C305.665 101.019 305.665 101.774 305.199 102.24L298.971 108.468C295.847 111.592 290.782 111.592 287.658 108.468C284.533 105.344 284.533 100.278 287.658 97.1542L293.885 90.9265Z" fill="#4C4763"/>
<path d="M342 206C345.586 206 348.634 208.432 350.504 211.493C354.719 218.394 362.322 223 371 223C384.255 223 395 212.254 395 199C395 185.746 384.255 175 371 175C362.322 175 354.719 179.606 350.504 186.507C348.634 189.568 345.586 192 342 192V192L342 206V206Z" fill="#7FD07E"/>
<path d="M341.807 191.001C342.466 191.001 343 191.535 343 192.194V205.808C343 206.467 342.466 207.001 341.807 207.001H333C328.582 207.001 325 203.419 325 199.001C325 194.583 328.582 191.001 333 191.001L341.807 191.001Z" fill="#4C4763"/>
<path d="M294.728 305.627C297.264 308.163 297.699 312.039 296.857 315.524C294.958 323.385 297.077 332.018 303.213 338.154C312.586 347.527 327.783 347.526 337.154 338.154C346.526 328.782 346.527 313.586 337.154 304.213C331.018 298.077 322.385 295.958 314.525 297.857C311.039 298.699 307.163 298.264 304.628 295.728V295.728L294.728 305.627V305.627Z" fill="#7FD07E"/>
<path d="M305.198 294.885C305.664 295.351 305.664 296.106 305.198 296.572L295.571 306.198C295.105 306.664 294.35 306.664 293.884 306.198L287.657 299.971C284.532 296.847 284.532 291.781 287.657 288.657C290.781 285.533 295.846 285.533 298.97 288.657L305.198 294.885Z" fill="#4C4763"/>
<path d="M90.4978 295.728C87.962 298.264 84.0864 298.699 80.6006 297.857C72.7403 295.958 64.1073 298.077 57.9708 304.213C48.5982 313.586 48.5989 328.783 57.9708 338.154C67.3428 347.526 82.5394 347.527 91.912 338.154C98.0484 332.018 100.167 323.385 98.2681 315.525C97.426 312.039 97.8615 308.163 100.397 305.628V305.628L90.4978 295.728V295.728Z" fill="#7FD07E"/>
<path d="M101.24 306.198C100.774 306.664 100.019 306.664 99.5534 306.198L89.9265 296.572C89.4607 296.106 89.4607 295.351 89.9265 294.885L96.1542 288.657C99.2783 285.533 104.344 285.533 107.468 288.657C110.592 291.781 110.592 296.847 107.468 299.971L101.24 306.198Z" fill="#4C4763"/>
<path d="M53 192C49.4139 192 46.3655 189.568 44.4961 186.507C40.2808 179.606 32.6782 175 24 175C10.7451 175 3.95448e-06 185.746 2.54759e-06 199C1.14069e-06 212.254 10.7451 223 24 223C32.6782 223 40.2808 218.394 44.4961 211.493C46.3655 208.432 49.4139 206 53 206V206L53 192V192Z" fill="#7FD07E"/>
<path d="M53.1928 206.999C52.534 206.999 52 206.465 52 205.806L52 192.192C52 191.533 52.534 190.999 53.1928 190.999L62 190.999C66.4183 190.999 70 194.581 70 198.999C70 203.417 66.4183 206.999 62 206.999H53.1928Z" fill="#4C4763"/>
<path d="M100.397 91.4978C97.8612 88.962 97.4257 85.0864 98.2678 81.6006C100.167 73.7403 98.0481 65.1073 91.9117 58.9708C82.5391 49.5982 67.3425 49.5989 57.9706 58.9708C48.5986 68.3428 48.5979 83.5394 57.9706 92.912C64.107 99.0484 72.74 101.167 80.6003 99.2681C84.0862 98.426 87.9617 98.8615 90.4975 101.397V101.397L100.397 91.4978V91.4978Z" fill="#7FD07E"/>
<path d="M89.9275 102.24C89.4617 101.774 89.4617 101.019 89.9275 100.553L99.5544 90.926C100.02 90.4602 100.775 90.4602 101.241 90.926L107.469 97.1537C110.593 100.278 110.593 105.343 107.469 108.467C104.345 111.592 99.2793 111.592 96.1551 108.467L89.9275 102.24Z" fill="#4C4763"/>
<path d="M190 343C190 346.586 187.568 349.634 184.507 351.504C177.606 355.719 173 363.322 173 372C173 385.255 183.746 396 197 396C210.254 396 221 385.255 221 372C221 363.322 216.394 355.719 209.493 351.504C206.432 349.634 204 346.586 204 343V343L190 343V343Z" fill="#7FD07E"/>
<path d="M205 342.807C205 343.466 204.466 344 203.807 344H190.193C189.534 344 189 343.466 189 342.807L189 334C189 329.582 192.582 326 197 326C201.418 326 205 329.582 205 334V342.807Z" fill="#4C4763"/>
<path d="M174.181 274.579L174.183 274.583L223.747 267.699C222.982 267.344 222.428 266.456 222.239 265.342C222.155 264.841 222.144 264.294 222.22 263.729C222.284 263.247 222.409 262.794 222.577 262.385C222.706 262.073 222.862 261.788 223.038 261.534C223.314 261.137 223.638 260.818 223.991 260.602V260.598L171.717 267.858C172.909 267.907 174.135 269.171 174.612 270.951C174.788 271.606 174.841 272.251 174.786 272.836C174.761 273.112 174.714 273.373 174.642 273.617C174.614 273.713 174.583 273.805 174.55 273.895C174.452 274.151 174.329 274.381 174.181 274.579Z" fill="#716B89"/>
<path d="M173 183.899L188.069 199C188.069 199 210.193 176.828 220 167" stroke="white" stroke-width="8" stroke-linecap="round"/>
</svg>
