<svg width="24" height="24" viewBox="0 0 24 24" fill="none" xmlns="http://www.w3.org/2000/svg">
<path d="M23.1812 23.3883C22.7288 23.3883 22.3619 23.012 22.3619 22.5478C22.3619 18.6477 19.2737 15.4755 15.4773 15.4755H8.52271C4.72632 15.4755 1.63806 18.6477 1.63806 22.5478C1.63806 23.012 1.27121 23.3883 0.818769 23.3883C0.366854 23.3883 0 23.012 0 22.5478C0 17.7204 3.82353 13.793 8.52323 13.793H15.4773C20.177 13.793 24 17.7204 24 22.5478C23.9995 23.012 23.6331 23.3883 23.1812 23.3883Z" fill="#151125"/>
<path d="M11.9999 12.3816C8.67684 12.3816 5.97266 9.60444 5.97266 6.19105C5.97266 2.77766 8.67684 0 11.9999 0C15.3235 0 18.0272 2.77766 18.0272 6.19105C18.0272 9.60444 15.3235 12.3816 11.9999 12.3816ZM11.9999 1.68257C9.58014 1.68257 7.61072 3.70498 7.61072 6.19105C7.61072 8.67712 9.57962 10.7001 11.9999 10.7001C14.4202 10.7001 16.3891 8.67766 16.3891 6.19105C16.3886 3.70498 14.4202 1.68257 11.9999 1.68257Z" fill="#151125"/>
</svg>
