<svg width="69" height="45" viewBox="0 0 69 45" fill="none" xmlns="http://www.w3.org/2000/svg">
<rect x="48" y="24" width="20" height="20" rx="2" fill="#5B41BB"/>
<path fill-rule="evenodd" clip-rule="evenodd" d="M50.2948 43.6765H66.1772C66.5282 43.6765 66.8648 43.537 67.113 43.2888C67.3612 43.0406 67.5007 42.704 67.5007 42.3529V26.4706C67.5007 26.1196 67.3612 25.7829 67.113 25.5347C66.8648 25.2865 66.5282 25.1471 66.1772 25.1471L50.2948 25.1471C49.9438 25.1471 49.6071 25.2865 49.3589 25.5347C49.1107 25.7829 48.9713 26.1196 48.9713 26.4706V42.3529C48.9713 42.704 49.1107 43.0406 49.3589 43.2888C49.6071 43.537 49.9438 43.6765 50.2948 43.6765ZM66.1772 45C66.8792 45 67.5525 44.7211 68.0489 44.2247C68.5453 43.7283 68.8242 43.055 68.8242 42.3529V26.4706C68.8242 25.7685 68.5453 25.0953 68.0489 24.5988C67.5525 24.1024 66.8792 23.8235 66.1772 23.8235L50.2948 23.8235C49.5928 23.8235 48.9195 24.1024 48.4231 24.5988C47.9266 25.0953 47.6477 25.7685 47.6477 26.4706V42.3529C47.6477 43.055 47.9266 43.7283 48.4231 44.2247C48.9195 44.7211 49.5928 45 50.2948 45H66.1772Z" fill="#5B41BB"/>
<path fill-rule="evenodd" clip-rule="evenodd" d="M57.7671 29.9726C57.7054 30.0341 57.6566 30.1071 57.6232 30.1875C57.5898 30.2679 57.5727 30.3541 57.5727 30.4411C57.5727 30.5282 57.5898 30.6144 57.6232 30.6948C57.6566 30.7752 57.7054 30.8482 57.7671 30.9097L61.2705 34.4117L57.7671 37.9138C57.7055 37.9753 57.6567 38.0484 57.6234 38.1288C57.5901 38.2091 57.573 38.2953 57.573 38.3823C57.573 38.4693 57.5901 38.5555 57.6234 38.6359C57.6567 38.7163 57.7055 38.7893 57.7671 38.8509C57.8286 38.9124 57.9016 38.9612 57.982 38.9945C58.0624 39.0278 58.1486 39.0449 58.2356 39.0449C58.3226 39.0449 58.4088 39.0278 58.4892 38.9945C58.5696 38.9612 58.6426 38.9124 58.7041 38.8509L62.6747 34.8803C62.7364 34.8188 62.7852 34.7458 62.8186 34.6654C62.852 34.585 62.8691 34.4988 62.8691 34.4117C62.8691 34.3247 62.852 34.2385 62.8186 34.1581C62.7852 34.0777 62.7364 34.0047 62.6747 33.9432L58.7041 29.9726C58.6427 29.911 58.5696 29.8621 58.4892 29.8287C58.4088 29.7954 58.3227 29.7782 58.2356 29.7782C58.1486 29.7782 58.0624 29.7954 57.982 29.8287C57.9016 29.8621 57.8285 29.911 57.7671 29.9726Z" fill="white"/>
<path fill-rule="evenodd" clip-rule="evenodd" d="M53.6037 34.4117C53.6037 34.5872 53.6735 34.7556 53.7976 34.8797C53.9217 35.0038 54.09 35.0735 54.2655 35.0735H60.8832C61.0587 35.0735 61.227 35.0038 61.3511 34.8797C61.4752 34.7556 61.5449 34.5872 61.5449 34.4117C61.5449 34.2362 61.4752 34.0679 61.3511 33.9438C61.227 33.8197 61.0587 33.75 60.8832 33.75H54.2655C54.09 33.75 53.9217 33.8197 53.7976 33.9438C53.6735 34.0679 53.6037 34.2362 53.6037 34.4117Z" fill="white"/>
<path fill-rule="evenodd" clip-rule="evenodd" d="M42.3536 25.147H26.4713C26.1203 25.147 25.7836 25.2865 25.5354 25.5347C25.2872 25.7829 25.1477 26.1195 25.1477 26.4705V42.3529C25.1477 42.7039 25.2872 43.0406 25.5354 43.2888C25.7836 43.537 26.1203 43.6764 26.4713 43.6764H42.3536C42.7047 43.6764 43.0413 43.537 43.2895 43.2888C43.5377 43.0406 43.6772 42.7039 43.6772 42.3529V26.4705C43.6772 26.1195 43.5377 25.7829 43.2895 25.5347C43.0413 25.2865 42.7047 25.147 42.3536 25.147ZM26.4713 23.8235C25.7692 23.8235 25.0959 24.1024 24.5995 24.5988C24.1031 25.0952 23.8242 25.7685 23.8242 26.4705V42.3529C23.8242 43.0549 24.1031 43.7282 24.5995 44.2247C25.0959 44.7211 25.7692 45 26.4713 45H42.3536C43.0557 45 43.729 44.7211 44.2254 44.2247C44.7218 43.7282 45.0007 43.0549 45.0007 42.3529V26.4705C45.0007 25.7685 44.7218 25.0952 44.2254 24.5988C43.729 24.1024 43.0557 23.8235 42.3536 23.8235H26.4713Z" fill="#5B41BB"/>
<path fill-rule="evenodd" clip-rule="evenodd" d="M18.5294 25.147H2.64706C2.29604 25.147 1.95939 25.2865 1.71118 25.5347C1.46297 25.7829 1.32353 26.1195 1.32353 26.4705V42.3529C1.32353 42.7039 1.46297 43.0406 1.71118 43.2888C1.95939 43.537 2.29604 43.6764 2.64706 43.6764H18.5294C18.8804 43.6764 19.2171 43.537 19.4653 43.2888C19.7135 43.0406 19.8529 42.7039 19.8529 42.3529V26.4705C19.8529 26.1195 19.7135 25.7829 19.4653 25.5347C19.2171 25.2865 18.8804 25.147 18.5294 25.147ZM2.64706 23.8235C1.94502 23.8235 1.27173 24.1024 0.775306 24.5988C0.278886 25.0952 0 25.7685 0 26.4705L0 42.3529C0 43.0549 0.278886 43.7282 0.775306 44.2247C1.27173 44.7211 1.94502 45 2.64706 45H18.5294C19.2315 45 19.9047 44.7211 20.4012 44.2247C20.8976 43.7282 21.1765 43.0549 21.1765 42.3529V26.4705C21.1765 25.7685 20.8976 25.0952 20.4012 24.5988C19.9047 24.1024 19.2315 23.8235 18.5294 23.8235H2.64706Z" fill="#5B41BB"/>
<path fill-rule="evenodd" clip-rule="evenodd" d="M42.3536 1.32353H26.4713C26.1203 1.32353 25.7836 1.46297 25.5354 1.71118C25.2872 1.95939 25.1477 2.29604 25.1477 2.64706V18.5294C25.1477 18.8804 25.2872 19.2171 25.5354 19.4653C25.7836 19.7135 26.1203 19.8529 26.4713 19.8529H42.3536C42.7047 19.8529 43.0413 19.7135 43.2895 19.4653C43.5377 19.2171 43.6772 18.8804 43.6772 18.5294V2.64706C43.6772 2.29604 43.5377 1.95939 43.2895 1.71118C43.0413 1.46297 42.7047 1.32353 42.3536 1.32353ZM26.4713 0C25.7692 0 25.0959 0.278886 24.5995 0.775306C24.1031 1.27173 23.8242 1.94502 23.8242 2.64706V18.5294C23.8242 19.2315 24.1031 19.9047 24.5995 20.4012C25.0959 20.8976 25.7692 21.1765 26.4713 21.1765H42.3536C43.0557 21.1765 43.729 20.8976 44.2254 20.4012C44.7218 19.9047 45.0007 19.2315 45.0007 18.5294V2.64706C45.0007 1.94502 44.7218 1.27173 44.2254 0.775306C43.729 0.278886 43.0557 0 42.3536 0L26.4713 0Z" fill="#5B41BB"/>
</svg>
