<svg width="74" height="84" viewBox="0 0 74 84" fill="none" xmlns="http://www.w3.org/2000/svg">
<path d="M3.59807 34.7204L2 33.1224L3.59807 31.5243" stroke="#5B41BB" stroke-width="2" stroke-linecap="round"/>
<g filter="url(#filter0_d)">
<rect x="22.0898" y="16" width="31.0482" height="43.3762" rx="10" fill="#5B41BB"/>
</g>
<path d="M19.1222 37.2315V37.2315C14.1788 34.5351 8.63779 33.1222 3.00681 33.1222H2" stroke="#5B41BB" stroke-width="2" stroke-linecap="round"/>
<path d="M33.0033 31.4398C33.0161 31.4972 33.0511 31.5472 33.1008 31.5788C33.1504 31.6104 33.2106 31.621 33.268 31.6083L35.5703 31.0984C35.5987 31.0921 35.6256 31.0803 35.6495 31.0636C35.6733 31.0468 35.6937 31.0256 35.7093 31.001C35.725 30.9765 35.7357 30.9491 35.7407 30.9204C35.7458 30.8917 35.7451 30.8623 35.7388 30.8339L35.6429 30.4007C35.6366 30.3722 35.6247 30.3453 35.608 30.3214C35.5913 30.2976 35.5701 30.2772 35.5455 30.2616C35.521 30.2459 35.4936 30.2353 35.4649 30.2302C35.4362 30.2251 35.4068 30.2258 35.3784 30.2321L34.2668 30.4783C34.6495 29.9611 35.1481 29.5408 35.7227 29.2512C36.2972 28.9616 36.9316 28.8106 37.575 28.8106C38.2184 28.8105 38.8529 28.9612 39.4275 29.2507C40.0021 29.5402 40.5008 29.9604 40.8836 30.4775L39.7759 30.2321C39.7474 30.2258 39.718 30.2251 39.6893 30.2302C39.6607 30.2353 39.6333 30.2459 39.6087 30.2616C39.5841 30.2772 39.5629 30.2976 39.5462 30.3214C39.5295 30.3453 39.5176 30.3722 39.5113 30.4006L39.4154 30.8339C39.4091 30.8623 39.4084 30.8917 39.4135 30.9204C39.4186 30.9491 39.4292 30.9765 39.4449 31.001C39.4605 31.0256 39.4809 31.0468 39.5047 31.0635C39.5286 31.0802 39.5555 31.0921 39.5839 31.0984L41.8862 31.6083C41.9436 31.621 42.0038 31.6104 42.0534 31.5788C42.1031 31.5472 42.1381 31.4972 42.1509 31.4398L42.6626 29.1397C42.6754 29.0823 42.6648 29.0221 42.6333 28.9725C42.6017 28.9229 42.5517 28.8878 42.4943 28.875L42.0613 28.7786C42.0328 28.7723 42.0034 28.7716 41.9748 28.7767C41.9461 28.7817 41.9187 28.7923 41.8941 28.808C41.8695 28.8236 41.8482 28.8439 41.8315 28.8678C41.8148 28.8916 41.8029 28.9185 41.7966 28.9469L41.5786 29.9268C41.113 29.3051 40.5091 28.8003 39.8146 28.4526C39.1202 28.1048 38.3542 27.9236 37.5775 27.9233C36.8009 27.923 36.0348 28.1037 35.3401 28.4509C34.6453 28.7981 34.041 29.3023 33.575 29.9237L33.3576 28.9469C33.3513 28.9185 33.3394 28.8916 33.3227 28.8678C33.306 28.8439 33.2847 28.8236 33.2601 28.808C33.2356 28.7923 33.2082 28.7817 33.1795 28.7767C33.1508 28.7716 33.1214 28.7723 33.0929 28.7786L32.66 28.875C32.6025 28.8878 32.5525 28.9229 32.521 28.9725C32.4894 29.0222 32.4788 29.0823 32.4916 29.1397L33.0033 31.4398Z" fill="white"/>
<path d="M32.5082 40.8915C32.787 40.8424 33.0714 40.8341 33.3526 40.8669C33.9219 41.1384 34.412 41.5513 34.7763 42.0662C35.4128 43.018 36.1886 43.6041 37.2022 44.1743C37.3174 44.2445 37.412 44.344 37.4764 44.4625C37.5408 44.5811 37.5727 44.7146 37.5688 44.8495C37.5705 44.9687 37.619 45.0825 37.704 45.1662C37.7889 45.25 37.9033 45.2969 38.0226 45.2969H41.8458C41.9662 45.2969 42.0816 45.2491 42.1667 45.164C42.2518 45.0789 42.2996 44.9635 42.2996 44.8431V44.1398C42.2996 43.3311 42.9103 42.5817 43.0674 41.6966C43.2666 40.6219 43.2096 39.5153 42.9011 38.4667C42.779 38.0345 42.5687 37.6856 42.1972 37.6856H42.0448C41.8685 37.6835 41.6986 37.7515 41.5725 37.8746C41.4464 37.9977 41.3743 38.1659 41.3722 38.3422V37.7831C41.37 37.6069 41.2979 37.4387 41.1718 37.3156C41.0457 37.1925 40.8758 37.1245 40.6996 37.1266H40.5471C40.3708 37.1245 40.2009 37.1925 40.0748 37.3156C39.9487 37.4387 39.8766 37.6069 39.8744 37.7831V37.3257C39.8723 37.1495 39.8002 36.9813 39.6741 36.8582C39.548 36.735 39.3781 36.667 39.2018 36.6691H39.0493C38.9007 36.6629 38.7546 36.7084 38.6358 36.798C38.517 36.8875 38.433 37.0155 38.398 37.1601C38.4214 36.2295 38.4072 34.544 38.3841 33.3888C38.3797 33.1779 38.2931 32.9771 38.1427 32.8291C37.9924 32.6811 37.7902 32.5977 37.5792 32.5967C37.3683 32.5956 37.1652 32.677 37.0134 32.8235C36.8616 32.9699 36.773 33.1699 36.7665 33.3808C36.7176 35.005 36.675 37.6443 36.7406 39.3888C36.7943 40.82 36.2941 40.3286 35.9928 40.1047C35.3092 39.6712 35.0993 39.4061 34.1922 39.3339C33.652 39.2972 33.1123 39.4135 32.6351 39.6694C32.5122 39.7311 32.4062 39.8218 32.3262 39.9336C32.2462 40.0454 32.1945 40.175 32.1757 40.3112C32.1513 40.5486 32.242 40.8358 32.5082 40.8915Z" fill="white"/>
<defs>
<filter id="filter0_d" x="2.08984" y="0" width="71.0482" height="83.3762" filterUnits="userSpaceOnUse" color-interpolation-filters="sRGB">
<feFlood flood-opacity="0" result="BackgroundImageFix"/>
<feColorMatrix in="SourceAlpha" type="matrix" values="0 0 0 0 0 0 0 0 0 0 0 0 0 0 0 0 0 0 127 0"/>
<feOffset dy="4"/>
<feGaussianBlur stdDeviation="10"/>
<feColorMatrix type="matrix" values="0 0 0 0 0 0 0 0 0 0 0 0 0 0 0 0 0 0 0.1 0"/>
<feBlend mode="normal" in2="BackgroundImageFix" result="effect1_dropShadow"/>
<feBlend mode="normal" in="SourceGraphic" in2="effect1_dropShadow" result="shape"/>
</filter>
</defs>
</svg>
