<svg width="65" height="73" viewBox="0 0 65 73" fill="none" xmlns="http://www.w3.org/2000/svg">
<g filter="url(#filter0_d)">
<rect x="20.9102" y="16.3765" width="23.3518" height="32.6238" rx="4" fill="#5B41BB"/>
</g>
<path d="M46.3224 32.3453V32.3453C50.0404 30.3173 54.2078 29.2546 58.443 29.2546H59.2002" stroke="#5B41BB" stroke-width="2" stroke-linecap="round"/>
<path d="M57.9983 30.4565L59.2002 29.2545L57.9983 28.0526" stroke="#5B41BB" stroke-width="2" stroke-linecap="round"/>
<path d="M29.1178 27.9889C29.1274 28.0321 29.1538 28.0697 29.1911 28.0935C29.2285 28.1172 29.2737 28.1252 29.3169 28.1156L31.0485 27.7321C31.0699 27.7274 31.0901 27.7185 31.108 27.7059C31.126 27.6933 31.1413 27.6774 31.1531 27.6589C31.1648 27.6404 31.1729 27.6198 31.1767 27.5982C31.1805 27.5767 31.18 27.5546 31.1753 27.5332L31.1031 27.2073C31.0984 27.1859 31.0894 27.1657 31.0769 27.1477C31.0643 27.1298 31.0483 27.1145 31.0299 27.1027C31.0114 27.091 30.9908 27.0829 30.9692 27.0791C30.9476 27.0753 30.9255 27.0758 30.9041 27.0805L30.0681 27.2658C30.356 26.8768 30.731 26.5607 31.1631 26.3428C31.5952 26.125 32.0724 26.0115 32.5563 26.0114C33.0402 26.0114 33.5174 26.1247 33.9495 26.3425C34.3817 26.5602 34.7568 26.8762 35.0447 27.2651L34.2116 27.0805C34.1902 27.0758 34.1681 27.0753 34.1465 27.0791C34.1249 27.0829 34.1043 27.091 34.0858 27.1027C34.0673 27.1145 34.0514 27.1298 34.0388 27.1477C34.0262 27.1657 34.0173 27.1859 34.0126 27.2073L33.9404 27.5332C33.9357 27.5545 33.9352 27.5767 33.939 27.5982C33.9428 27.6198 33.9508 27.6404 33.9626 27.6589C33.9744 27.6774 33.9897 27.6933 34.0076 27.7059C34.0256 27.7185 34.0458 27.7274 34.0672 27.7321L35.7988 28.1156C35.842 28.1252 35.8872 28.1172 35.9245 28.0934C35.9619 28.0697 35.9882 28.0321 35.9979 27.9889L36.3827 26.259C36.3923 26.2158 36.3844 26.1705 36.3606 26.1332C36.3369 26.0959 36.2993 26.0695 36.2561 26.0599L35.9304 25.9874C35.9091 25.9826 35.8869 25.9821 35.8654 25.9859C35.8438 25.9897 35.8232 25.9977 35.8047 26.0095C35.7862 26.0212 35.7702 26.0365 35.7576 26.0544C35.7451 26.0724 35.7361 26.0926 35.7314 26.114L35.5674 26.8509C35.2173 26.3833 34.763 26.0037 34.2407 25.7422C33.7184 25.4806 33.1423 25.3443 32.5582 25.3441C31.974 25.3439 31.3979 25.4797 30.8753 25.7409C30.3528 26.002 29.8983 26.3813 29.5478 26.8486L29.3843 26.114C29.3796 26.0926 29.3706 26.0724 29.3581 26.0544C29.3455 26.0365 29.3295 26.0212 29.311 26.0095C29.2925 25.9977 29.2719 25.9897 29.2503 25.9859C29.2287 25.9821 29.2066 25.9826 29.1852 25.9874L28.8596 26.0599C28.8164 26.0695 28.7788 26.0959 28.7551 26.1332C28.7313 26.1705 28.7234 26.2158 28.733 26.259L29.1178 27.9889Z" fill="white"/>
<path d="M28.7456 35.0975C28.9553 35.0606 29.1692 35.0544 29.3807 35.079C29.8089 35.2832 30.1775 35.5938 30.4515 35.981C30.9302 36.6969 31.5137 37.1377 32.276 37.5666C32.3627 37.6194 32.4338 37.6942 32.4823 37.7834C32.5307 37.8725 32.5547 37.9729 32.5518 38.0744C32.553 38.164 32.5896 38.2496 32.6534 38.3126C32.7173 38.3756 32.8034 38.4109 32.8931 38.4109H35.7685C35.8591 38.4109 35.9459 38.3749 36.0099 38.3109C36.0739 38.2469 36.1099 38.1601 36.1099 38.0696V37.5406C36.1099 36.9323 36.5692 36.3687 36.6873 35.7031C36.8372 34.8947 36.7943 34.0625 36.5622 33.2738C36.4704 32.9487 36.3123 32.6863 36.0329 32.6863H35.9182C35.7857 32.6847 35.6579 32.7359 35.563 32.8285C35.4681 32.9211 35.4139 33.0476 35.4123 33.1802V32.7597C35.4107 32.6271 35.3565 32.5006 35.2616 32.408C35.1668 32.3154 35.039 32.2643 34.9065 32.2659H34.7918C34.6592 32.2643 34.5314 32.3154 34.4366 32.408C34.3417 32.5006 34.2875 32.6271 34.2859 32.7597V32.4157C34.2843 32.2831 34.2301 32.1566 34.1352 32.064C34.0403 31.9714 33.9126 31.9203 33.78 31.9218H33.6653C33.5535 31.9171 33.4436 31.9514 33.3543 32.0187C33.2649 32.0861 33.2017 32.1823 33.1755 32.2911C33.193 31.5912 33.1824 30.3235 33.165 29.4547C33.1616 29.296 33.0965 29.145 32.9834 29.0337C32.8703 28.9224 32.7183 28.8597 32.5596 28.8589C32.4009 28.8581 32.2483 28.9193 32.1341 29.0295C32.0199 29.1396 31.9532 29.29 31.9483 29.4486C31.9116 30.6702 31.8795 32.6552 31.9288 33.9673C31.9693 35.0438 31.5931 34.6741 31.3664 34.5058C30.8523 34.1797 30.6944 33.9804 30.0122 33.926C29.6059 33.8984 29.2 33.9859 28.8411 34.1784C28.7487 34.2248 28.6689 34.293 28.6088 34.3771C28.5486 34.4612 28.5097 34.5586 28.4955 34.661C28.4772 34.8397 28.5454 35.0556 28.7456 35.0975Z" fill="white"/>
<defs>
<filter id="filter0_d" x="0.910156" y="0.376465" width="63.3518" height="72.6238" filterUnits="userSpaceOnUse" color-interpolation-filters="sRGB">
<feFlood flood-opacity="0" result="BackgroundImageFix"/>
<feColorMatrix in="SourceAlpha" type="matrix" values="0 0 0 0 0 0 0 0 0 0 0 0 0 0 0 0 0 0 127 0"/>
<feOffset dy="4"/>
<feGaussianBlur stdDeviation="10"/>
<feColorMatrix type="matrix" values="0 0 0 0 0 0 0 0 0 0 0 0 0 0 0 0 0 0 0.1 0"/>
<feBlend mode="normal" in2="BackgroundImageFix" result="effect1_dropShadow"/>
<feBlend mode="normal" in="SourceGraphic" in2="effect1_dropShadow" result="shape"/>
</filter>
</defs>
</svg>
