<svg width="111" height="168" viewBox="0 0 111 168" fill="none" xmlns="http://www.w3.org/2000/svg">
<path d="M32.425 94.3125C26.4812 106.081 24.5266 113.713 26.4388 131.436" stroke="#4C4763" stroke-width="3" stroke-linecap="round"/>
<path d="M74.6187 70.8549C81.1184 60.9907 84.5549 48.3598 79.1065 37.8564C73 26.0824 60.8653 18.0605 46.8924 18.0605C32.9195 18.0605 20.7847 26.0824 14.6782 37.8564C9.22987 48.3598 12.6663 60.9907 19.166 70.8549C21.5388 74.4557 24.3234 78.2053 27.4256 81.5434C30.1556 84.481 31.9948 88.2602 31.9948 92.3068H61.7899C61.7899 88.2602 63.6292 84.481 66.3592 81.5434C69.4613 78.2053 72.2459 74.4557 74.6187 70.8549Z" fill="#FAD278"/>
<path d="M75.1155 37.8565C80.5639 48.3601 77.1275 60.9898 70.6278 70.8546C68.2551 74.4564 65.4704 78.2051 62.3682 81.5424C59.6384 84.4818 57.7991 88.26 57.7991 92.3066H31.9947C31.9947 88.26 30.1554 84.4818 27.4256 81.5424C24.3233 78.2051 21.5387 74.4564 19.166 70.8546C12.6663 60.9898 9.22986 48.3601 14.6783 37.8565C20.4921 26.6474 31.7703 18.8383 44.8969 18.1152C58.0234 18.8383 69.3017 26.6474 75.1155 37.8565Z" fill="#F9DA94"/>
<rect width="31.9387" height="19.0561" rx="3" transform="matrix(0.96556 -0.260179 0.257465 0.966287 20.4268 105.158)" fill="#4D3122"/>
<rect width="31.9387" height="24.0708" rx="3" transform="matrix(0.96556 -0.260179 0.257465 0.966287 22.3535 104.639)" fill="#5E4232"/>
<path d="M30.9287 91.9383C30.9287 91.5873 31.2095 91.3027 31.5559 91.3027H61.6592C62.0056 91.3027 62.2864 91.5873 62.2864 91.9383V92.3056C61.9407 92.6096 61.6677 93.1971 61.591 93.8943C61.4852 94.8566 61.7896 95.6987 62.2864 95.9017V96.2285C62.2864 96.9223 62.2228 97.6011 62.1012 98.2592C61.4821 98.1506 60.7903 98.7548 60.5187 99.6663C60.277 100.477 60.4454 101.273 60.8907 101.619C59.0334 104.946 55.5095 107.192 51.468 107.192H41.7471C39.3254 107.192 37.0895 106.386 35.2866 105.023C35.5402 104.565 35.3628 103.754 34.8179 103.052C34.1788 102.229 33.2762 101.868 32.8018 102.246C32.7797 102.264 32.7589 102.283 32.7395 102.303C32.2382 101.541 31.8286 100.712 31.5266 99.8318C31.9401 99.6112 32.1435 98.8987 31.986 98.1254C31.8334 97.376 31.3918 96.815 30.9406 96.7477C30.9327 96.5757 30.9287 96.4025 30.9287 96.2285V91.9383Z" fill="#4C4763"/>
<path d="M60.8604 94.3131C76.3248 91.3032 83.8076 87.2899 91.2904 71.7383" stroke="#4C4763" stroke-width="3" stroke-linecap="round"/>
<path d="M31.5303 99.8422C31.5291 99.8389 31.528 99.8355 31.5268 99.8321C31.9404 99.6116 32.1438 98.8991 31.9863 98.1258C31.8337 97.3763 31.3921 96.8153 30.9409 96.7481C30.9404 96.7373 30.9399 96.7265 30.9395 96.7157L62.1129 92.4902C61.8516 92.8185 61.6546 93.3192 61.5913 93.8947C61.4854 94.857 61.7898 95.699 62.2867 95.902V95.9164L31.5303 99.8422Z" fill="#716B89"/>
<path d="M35.2877 105.022C35.5401 104.564 35.3625 103.753 34.8181 103.052C34.3219 102.413 33.6668 102.053 33.1766 102.1L33.1778 102.098L61.6175 98.3104C61.1541 98.4823 60.7207 98.9897 60.519 99.6666C60.2786 100.473 60.4438 101.264 60.8835 101.613L35.2877 105.022Z" fill="#716B89"/>
<path d="M62.104 98.2456L62.0526 98.2524C62.069 98.2543 62.0852 98.2567 62.1015 98.2595C62.1023 98.2549 62.1032 98.2502 62.104 98.2456Z" fill="#716B89"/>
<rect width="48.5651" height="4.00852" rx="2.00426" transform="matrix(0.885831 -0.464007 0.459924 0.887958 20.9521 107.287)" fill="#735A4C"/>
<path d="M42.4026 106.354C40.8436 127.02 40.9224 139.281 42.4026 161.898" stroke="#4C4763" stroke-width="3"/>
<path d="M52.3799 106.354C54.2337 128.43 54.1646 140.629 52.3799 161.898" stroke="#4C4763" stroke-width="3"/>
<path d="M34.9199 163.04C34.9199 162.209 35.5937 161.535 36.4249 161.535H43.8993V163.784C43.8993 164.204 43.5586 164.545 43.1383 164.545H36.4249C35.5937 164.545 34.9199 163.871 34.9199 163.04Z" fill="#4C4763"/>
<path d="M59.8623 163.04C59.8623 162.209 59.1885 161.535 58.3573 161.535H50.8829V163.784C50.8829 164.204 51.2236 164.545 51.6439 164.545H58.3573C59.1885 164.545 59.8623 163.871 59.8623 163.04Z" fill="#4C4763"/>
<path d="M0 166.275C0 165.323 1.88527 164.551 4.21088 164.551H89.6315C91.9571 164.551 93.8424 165.323 93.8424 166.275C93.8424 167.228 91.9571 168 89.6315 168H4.21088C1.88527 168 0 167.228 0 166.275Z" fill="#4C4763" fill-opacity="0.2"/>
<path d="M19.966 2.82414C18.5012 2.70502 17.218 3.80189 17.0996 5.27464C16.8876 7.9103 17.6953 10.3716 19.2201 12.2038C21.7024 15.1865 25.047 18.4713 24.7361 22.3375L67.9291 25.8504C69.188 25.9528 70.3957 25.3335 71.0469 24.2518C72.873 21.2182 77.5373 19.5913 78.2556 16.1233C78.2894 15.9604 78.3134 15.7935 78.3271 15.6234L78.6488 11.6231C78.8265 9.41402 77.1896 7.47806 74.9927 7.29938C45.9908 2.19091 31.142 -0.0435191 19.966 2.82414Z" fill="#4167AF"/>
<path d="M16.7595 25.9143L24.7353 22.3455C31.3093 19.6427 43.3743 20.839 65.5082 25.6614C52.4837 32.8133 42.9728 34.8137 22.3714 32.3727C20.1417 32.1085 18.0302 31.2038 16.2716 29.8065C14.9235 28.7353 15.189 26.6171 16.7595 25.9143Z" fill="#28243A"/>
<ellipse rx="2.99323" ry="5.01645" transform="matrix(0.996709 0.0810608 -0.080161 0.996782 34.5705 12.0711)" fill="#F9DA94"/>
<path d="M55.9641 56.4351C43.1424 59.469 34.8879 60.214 22.5189 59.0861C20.8396 58.933 19.4043 60.3157 19.5332 61.9973L19.6208 63.1413C20.029 68.4706 23.9293 72.8763 29.1688 73.9267C36.6673 75.4298 44.4373 74.8279 51.6184 72.1876C56.6361 70.3426 59.8194 65.3882 59.4112 60.0588L59.3199 58.8673C59.1921 57.1989 57.5927 56.0498 55.9641 56.4351Z" fill="#F2F2F0"/>
<path d="M35.2239 49.1501C35.0406 46.9413 33.1114 45.3002 30.915 45.4845C28.7185 45.6689 27.0866 47.609 27.2699 49.8178" stroke="#4C4763" stroke-width="2" stroke-linecap="round"/>
<path d="M49.1922 48.1462C49.0089 45.9374 47.0797 44.2963 44.8832 44.4806C42.6868 44.665 41.0549 46.605 41.2382 48.8139" stroke="#4C4763" stroke-width="2" stroke-linecap="round"/>
<rect width="25.9502" height="16.0472" rx="2" transform="matrix(0.96556 0.260179 -0.257465 0.966287 85.9434 57.1895)" fill="#F5F4F7"/>
<path fill-rule="evenodd" clip-rule="evenodd" d="M85.8512 58.3249L94.3775 73.1761L94.8785 74.0488L95.7463 73.545L110.515 64.9703C110.377 64.2716 109.87 63.6721 109.153 63.4453L95.6085 71.3091L87.7889 57.6887C87.055 57.5247 86.3182 57.7892 85.8512 58.3249Z" fill="#716B89"/>
<path d="M99.1269 51.8978L100.808 45.589C101.092 44.5237 102.185 43.8927 103.249 44.1795V44.1795C104.314 44.4664 104.947 45.5625 104.663 46.6277L104.144 48.5754" stroke="#FAD278"/>
<rect width="7.98467" height="8.02361" rx="2" transform="matrix(0.96556 0.260179 -0.257465 0.966287 97.8452 48.9551)" fill="#F9DA94"/>
<path d="M101.184 51.9335C100.918 51.8618 100.644 52.0213 100.573 52.2882L100.151 53.8707C99.819 53.9596 99.5414 54.2216 99.4455 54.5812C99.3028 55.1169 99.6188 55.6667 100.151 55.8101C100.374 55.8702 100.6 55.8498 100.797 55.7651C101.071 55.6482 101.29 55.411 101.373 55.1006C101.469 54.741 101.358 54.3743 101.113 54.1299L101.537 52.5479C101.608 52.281 101.45 52.0052 101.184 51.9335Z" fill="#836727"/>
</svg>
