<svg width="280" height="131" viewBox="0 0 280 131" fill="none" xmlns="http://www.w3.org/2000/svg">
<path d="M62.0774 94.1425C62.0018 92.8742 62.582 91.6689 63.5642 90.8618C75.6471 80.9335 90.1704 56.3687 93.2808 36.2044C94.2637 29.8323 93.6772 23.1242 90.3482 17.601C85.3477 9.30425 73.3504 -1.51241 44.9704 0.17588C14.2568 2.003 4.34172 17.4033 1.176 26.1528C-0.231799 30.0437 -0.274787 34.2613 0.515096 38.3227C4.44725 58.5407 21.1114 82.2245 37.2892 92.4279C38.3572 93.1015 39.0687 94.2299 39.1438 95.4896C39.2666 97.5509 41.0387 99.1224 43.1018 98.9996L58.5804 98.0788C60.634 97.9567 62.1997 96.1943 62.0774 94.1425Z" fill="#F9DA94"/>
<path d="M66.0852 93.6914C70.3962 110.396 84.0479 108.176 100.557 101.197" stroke="#716B89" stroke-width="4.83975" stroke-linecap="round"/>
<path d="M40.6331 94.6925C23.4088 106.589 28.171 115.788 30.8696 128" stroke="#716B89" stroke-width="4.83975" stroke-linecap="round"/>
<path d="M32.6999 93.172C32.6728 92.7738 32.9739 92.4289 33.3725 92.4018L68.0184 90.0443C68.417 90.0172 68.7622 90.3181 68.7893 90.7163L68.8829 92.089C68.4201 92.6558 68.1522 93.6697 68.2295 94.8043C68.3068 95.9389 68.7099 96.9071 69.2453 97.4061L69.4275 100.079C69.0532 100.451 68.7845 101.139 68.7501 101.936C68.7027 103.036 69.1182 103.967 69.7057 104.159L69.7309 104.53C69.7846 105.317 69.7639 106.092 69.6749 106.848C68.954 106.774 68.2045 107.513 67.9624 108.569C67.7469 109.508 68.0023 110.397 68.5416 110.755C66.6613 114.676 62.7794 117.5 58.1281 117.817L46.9404 118.578C44.1532 118.768 41.5175 118.028 39.3373 116.623C39.5937 116.083 39.3267 115.176 38.6453 114.423C37.8461 113.539 36.7794 113.2 36.2627 113.666C36.2386 113.688 36.2162 113.711 36.1953 113.736C35.5595 112.91 35.024 112.002 34.6083 111.027C35.0672 110.744 35.2462 109.92 35.0051 109.055C34.7715 108.217 34.2199 107.615 33.6954 107.574C33.673 107.379 33.655 107.183 33.6415 106.985L33.4854 104.695C33.787 104.111 33.9459 103.203 33.8773 102.197C33.8087 101.191 33.5281 100.313 33.15 99.7749L32.6999 93.172Z" fill="#4C4763"/>
<path d="M68.5429 92.6587L33.1655 99.7992C33.2483 99.9186 33.3234 100.054 33.3951 100.204C33.6461 100.729 33.8232 101.426 33.8758 102.197C33.9444 103.204 33.7846 104.113 33.4818 104.697L69.312 97.4658C68.7435 96.9872 68.3085 95.9861 68.228 94.8046C68.1721 93.9856 68.2963 93.2289 68.5429 92.6587Z" fill="#716B89"/>
<path d="M34.615 111.04C34.6134 111.036 34.6118 111.032 34.6103 111.029C35.0691 110.746 35.2481 109.922 35.0071 109.057C34.7735 108.218 34.2219 107.616 33.6974 107.575C33.696 107.563 33.6946 107.551 33.6932 107.539L69.2437 100.303C68.9685 100.696 68.7804 101.28 68.7521 101.937C68.7047 103.038 69.1202 103.969 69.7076 104.161L69.7087 104.177L34.615 111.04Z" fill="#716B89"/>
<path d="M39.34 116.623C39.5951 116.083 39.328 115.177 38.6473 114.424C38.0267 113.738 37.2448 113.38 36.6844 113.473L36.6856 113.47L69.1237 106.946C68.6038 107.177 68.1441 107.787 67.9644 108.57C67.7501 109.504 68.0015 110.389 68.5345 110.751L39.34 116.623Z" fill="#716B89"/>
<path d="M69.6787 106.834L69.6201 106.846C69.639 106.847 69.6579 106.848 69.6768 106.85C69.6775 106.845 69.6781 106.839 69.6787 106.834Z" fill="#716B89"/>
<path d="M55.5152 39.5553C56.1787 45.0998 52.218 50.1318 46.6686 50.7948C41.1192 51.4578 36.0826 47.5006 35.4191 41.9561C34.7555 36.4117 38.7163 31.3796 44.2656 30.7167C49.815 30.0537 54.8516 34.0109 55.5152 39.5553Z" fill="#F2F2F0"/>
<path d="M73.198 37.4417C73.8615 42.9861 69.9008 48.0182 64.3514 48.6812C58.802 49.3441 53.7654 45.3869 53.1018 39.8425C52.4383 34.2981 56.399 29.266 61.9484 28.603C67.4978 27.9401 72.5344 31.8973 73.198 37.4417Z" fill="#F2F2F0"/>
<path d="M74.0521 38.9743C74.3706 41.6356 72.4695 44.051 69.8058 44.3692C67.142 44.6874 64.7245 42.788 64.406 40.1266C64.0875 37.4653 65.9886 35.0499 68.6523 34.7317C71.316 34.4135 73.7336 36.3129 74.0521 38.9743Z" fill="#4C4763"/>
<path d="M56.3239 40.8483C56.6424 43.5096 54.7413 45.925 52.0776 46.2432C49.4138 46.5614 46.9963 44.662 46.6778 42.0007C46.3593 39.3393 48.2604 36.9239 50.9241 36.6057C53.5879 36.2875 56.0054 38.187 56.3239 40.8483Z" fill="#4C4763"/>
<path d="M57.3707 47.4758C57.4998 50.1541 52.1653 52.587 45.4558 52.91C38.7462 53.2329 33.2023 51.3235 33.0732 48.6452C32.944 45.967 38.2785 43.534 44.9881 43.211C51.6977 42.8881 57.2415 44.7975 57.3707 47.4758Z" fill="#F9DA94"/>
<path d="M76.5896 46.7645C76.7188 49.4428 71.3843 51.8757 64.6747 52.1987C57.9652 52.5216 52.4213 50.6122 52.2922 47.9339C52.163 45.2557 57.4975 42.8227 64.2071 42.4997C70.9166 42.1768 76.4605 44.0862 76.5896 46.7645Z" fill="#F9DA94"/>
<path d="M66.4725 54.784C68.0495 52.3371 66.2192 50.2747 63.3448 50.7471C57.1412 51.7666 51.9683 52.5016 47.5997 51.982C44.8589 51.6559 41.9461 53.561 43.2068 56.0144C48.4619 66.2417 68.562 69.1079 64.7016 61.0176C63.7982 59.1242 65.1011 56.9118 66.4725 54.784Z" fill="#4C4763"/>
<path d="M60.2951 65.6968C60.4634 64.9528 60.4883 64.1637 60.3445 63.3661C59.7685 60.1719 56.7036 58.0502 53.4988 58.6271C51.4673 58.9928 49.8673 60.3551 49.1148 62.1172C52.7396 64.4087 57.0503 65.656 60.2951 65.6968Z" fill="#716B89"/>
<path d="M110.6 2.75062C110.577 1.33186 111.721 0.169312 113.14 0.169312H171.873C173.26 0.169312 174.39 1.28135 174.413 2.66773L174.806 26.7703C174.829 28.189 173.685 29.3516 172.267 29.3516H128.172C127.562 29.3516 126.972 29.5714 126.51 29.9707L117.964 37.3652C116.082 38.9934 113.224 37.2248 113.841 34.8142L114.649 31.6623C114.949 30.4913 114.064 29.3516 112.855 29.3516C111.845 29.3516 111.021 28.541 111.004 27.5305L110.6 2.75062Z" fill="#F3F2F6"/>
<rect x="113.733" y="5.24426" width="57.4644" height="3.80638" rx="1.90319" fill="#4C4763"/>
<rect x="113.733" y="20.47" width="54.6071" height="3.80638" rx="1.90319" fill="#4C4763"/>
<rect x="113.733" y="12.8572" width="50.7973" height="3.80638" rx="1.90319" fill="#4C4763"/>
<path d="M149.291 39.5041C149.291 38.1014 150.428 36.9642 151.831 36.9642H184.849C186.252 36.9642 187.389 38.1014 187.389 39.5041V56.765C187.389 57.7418 186.597 58.5337 185.62 58.5337C184.417 58.5337 183.565 59.708 183.939 60.8513L184.047 61.1839C184.712 63.2213 182.167 64.7581 180.674 63.2212L176.866 59.3034C176.388 58.8114 175.731 58.5337 175.045 58.5337H151.831C150.428 58.5337 149.291 57.3966 149.291 55.9939V39.5041Z" fill="#C8C5D1"/>
<rect x="153.101" y="42.0394" width="30.4784" height="3.80638" rx="1.90319" fill="#343049"/>
<rect x="153.101" y="49.652" width="26.986" height="3.80638" rx="1.90319" fill="#343049"/>
<path d="M256.752 85.5328C256.447 84.1982 257.097 82.8365 258.283 82.1518C274.359 72.8736 283.248 53.9098 278.901 34.8793C273.559 11.4955 250.255 -3.13445 226.85 2.20274C203.445 7.53994 188.802 30.8229 194.144 54.2068C198.492 73.2373 214.735 86.4701 233.249 87.8604C234.615 87.963 235.792 88.9083 236.097 90.2428C236.464 91.8496 238.065 92.8549 239.673 92.4881L254.504 89.1061C256.113 88.7394 257.119 87.1396 256.752 85.5328Z" fill="#F9DA94"/>
<path d="M260.229 84.0784C274.697 95.17 275.649 104.528 267.712 113.568" stroke="#716B89" stroke-width="4.46326" stroke-linecap="round"/>
<path d="M237.227 88.839C231.836 110.396 233.106 113.409 220.248 120.07" stroke="#716B89" stroke-width="4.46326" stroke-linecap="round"/>
<path d="M229.78 88.6558C229.695 88.2976 229.917 87.9383 230.275 87.8533L261.435 80.4679C261.794 80.3829 262.153 80.6044 262.238 80.9626L262.532 82.1971C262.196 82.7828 262.106 83.7457 262.349 84.7661C262.591 85.7865 263.104 86.6063 263.667 86.9792L264.238 89.383C263.954 89.778 263.813 90.4445 263.903 91.1748C264.027 92.1828 264.546 92.9674 265.109 93.0526L265.188 93.3861C265.356 94.0941 265.455 94.8024 265.489 95.5038C264.822 95.5449 264.252 96.3312 264.192 97.3279C264.138 98.215 264.505 98.9852 265.05 99.2292C263.933 103.08 260.83 106.237 256.647 107.228L246.585 109.613C244.078 110.207 241.568 109.933 239.372 108.985C239.523 108.455 239.143 107.671 238.409 107.088C237.548 106.405 236.526 106.258 236.127 106.76C236.108 106.784 236.092 106.808 236.076 106.834C235.373 106.179 234.748 105.434 234.222 104.61C234.597 104.283 234.635 103.506 234.284 102.756C233.945 102.028 233.352 101.564 232.868 101.606C232.818 101.433 232.772 101.257 232.73 101.079L232.241 99.0197C232.427 98.4427 232.434 97.5925 232.219 96.6877C232.004 95.7828 231.616 95.0264 231.19 94.5942L229.78 88.6558Z" fill="#4C4763"/>
<path d="M262.309 82.767L231.208 94.6142C231.301 94.7103 231.39 94.8225 231.478 94.9475C231.786 95.3874 232.053 95.9944 232.218 96.6883C232.433 97.5938 232.425 98.4452 232.238 99.0222L263.737 87.0236C263.147 86.6742 262.6 85.8293 262.347 84.7667C262.172 84.0301 262.171 83.323 262.309 82.767Z" fill="#716B89"/>
<path d="M234.23 104.621C234.228 104.617 234.226 104.614 234.224 104.611C234.599 104.285 234.637 103.508 234.286 102.757C233.947 102.03 233.354 101.566 232.87 101.608C232.867 101.597 232.864 101.586 232.861 101.575L264.105 89.6151C263.914 90.0142 263.831 90.5735 263.905 91.1762C264.029 92.1842 264.548 92.9688 265.111 93.0541L265.115 93.0687L234.23 104.621Z" fill="#716B89"/>
<path d="M239.375 108.985C239.525 108.455 239.144 107.671 238.411 107.089C237.743 106.559 236.977 106.352 236.481 106.521L236.482 106.518L265.002 95.6759C264.564 95.9649 264.238 96.5891 264.194 97.3293C264.14 98.2115 264.503 98.978 265.043 99.2265L239.375 108.985Z" fill="#716B89"/>
<path d="M265.49 95.4904L265.438 95.51C265.456 95.5079 265.473 95.5063 265.491 95.5052C265.49 95.5003 265.49 95.4953 265.49 95.4904Z" fill="#716B89"/>
<path d="M232.058 38.8628C233.031 44.3945 229.331 49.6665 223.794 50.638C218.257 51.6095 212.981 47.9127 212.008 42.3809C211.036 36.8492 214.736 31.5773 220.273 30.6058C225.809 29.6343 231.086 33.3311 232.058 38.8628Z" fill="#F2F2F0"/>
<path d="M249.837 36.5127C250.81 42.0445 247.11 47.3164 241.573 48.2879C236.036 49.2594 230.76 45.5626 229.787 40.0308C228.815 34.4991 232.515 29.2272 238.052 28.2557C243.588 27.2842 248.865 30.981 249.837 36.5127Z" fill="#F2F2F0"/>
<path d="M238.551 37.8706C238.977 40.2982 237.354 42.6118 234.924 43.0381C232.494 43.4645 230.178 41.8421 229.752 39.4145C229.325 36.9869 230.949 34.6733 233.379 34.247C235.808 33.8206 238.124 35.443 238.551 37.8706Z" fill="#4C4763"/>
<path d="M220.672 40.7252C221.099 43.1528 219.475 45.4664 217.045 45.8927C214.615 46.3191 212.3 44.6967 211.873 42.2691C211.446 39.8415 213.07 37.5279 215.5 37.1016C217.93 36.6752 220.245 38.2976 220.672 40.7252Z" fill="#4C4763"/>
<path d="M212.581 47.8565L249.912 40.257L251.362 47.3652L214.031 54.9648L212.581 47.8565Z" fill="#F9DA94"/>
<path d="M224.609 54.8698C223.368 53.382 225.06 51.6328 226.997 51.6935C230.22 51.7943 233.052 51.2765 235.442 50.0629C237.274 49.1322 239.936 49.6719 239.678 51.7094C239.256 55.0481 235.935 56.5674 232.881 57.1542C230.411 57.6288 226.72 57.4 224.609 54.8698Z" fill="#4C4763"/>
<path d="M238.44 54.4379C237.107 55.944 234.934 56.7596 232.881 57.154C231.808 57.3601 230.506 57.4335 229.202 57.2435C230.097 54.4919 232.916 52.755 235.852 53.2835C236.83 53.4596 237.708 53.8666 238.44 54.4379Z" fill="#716B89"/>
</svg>
