<svg width="165" height="136" viewBox="0 0 165 136" fill="none" xmlns="http://www.w3.org/2000/svg">
<path d="M131.601 70.8457C145.303 76.5361 141.592 86.7788 130.459 99.2976" stroke="#716B89" stroke-width="4.56747" stroke-linecap="round"/>
<path d="M165 133.439C165 132.339 164.108 131.447 163.008 131.447H153.01V134.414C153.01 134.976 153.465 135.431 154.026 135.431H163.008C164.108 135.431 165 134.539 165 133.439Z" fill="#4C4763"/>
<path d="M0 74.5975C0 65.7686 7.15725 58.6113 15.9862 58.6113H59.3772V89.3394H0V74.5975Z" fill="#B5B2C2"/>
<rect x="25.6914" y="89.3398" width="5.70934" height="46.6611" fill="#B5B2C2"/>
<path d="M47.959 67.7463C47.959 62.7012 52.0488 58.6113 57.0939 58.6113C62.139 58.6113 66.2289 62.7012 66.2289 67.7463V89.3394H47.959V67.7463Z" fill="#4C4763"/>
<rect x="45.6748" y="85.3555" width="30.8305" height="3.98327" rx="1.99163" fill="#B5B2C2"/>
<path d="M20.5537 70.5605H39.9731C41.2301 70.5605 42.2492 71.5796 42.2492 72.8367C42.2492 74.0938 41.2301 75.1129 39.9731 75.1129H20.5537V70.5605Z" fill="#E27878"/>
<path d="M20.5537 71.1309H25.1212V78.5208C25.1212 79.782 24.0987 80.8045 22.8374 80.8045C21.5762 80.8045 20.5537 79.782 20.5537 78.5208V71.1309Z" fill="#E27878"/>
<ellipse cx="39.3938" cy="72.8373" rx="1.14187" ry="1.13808" fill="#9E3030"/>
<rect x="25.6914" y="89.3398" width="5.70934" height="7.3975" fill="#4C4763"/>
<path d="M72.2227 76.8198C84.2123 87.347 94.4891 86.778 106.764 73.9746" stroke="#716B89" stroke-width="4.56747"/>
<path d="M130.294 67.2021C130.049 65.6264 130.825 64.09 132.11 63.1462C141.324 56.3751 141.63 44.8443 139.653 32.1135C136.898 14.3776 120.24 2.22554 102.445 4.97072C84.6505 7.71591 72.4575 24.319 75.2119 42.0549C77.1899 54.7919 82.5686 65.3853 93.6375 69.0149C95.1572 69.5132 96.3642 70.7505 96.6095 72.3302C96.9405 74.4619 98.935 75.9251 101.068 75.6008L127.028 71.654C129.161 71.3296 130.625 69.3348 130.294 67.2021Z" fill="#FAD278"/>
<path d="M132.11 63.1463C130.825 64.0901 130.049 65.6265 130.293 67.2022C130.624 69.3349 129.161 71.3296 127.027 71.6541L102.04 75.453C100.683 75.0091 99.6185 73.8366 99.3846 72.3303C99.1393 70.7505 97.9323 69.5133 96.4126 69.015C85.3437 65.3853 79.965 54.7919 77.9869 42.0549C75.2326 24.319 87.4256 7.71599 105.22 4.9708C106.44 4.78264 107.654 4.66447 108.859 4.61328C124.083 5.26166 137.233 16.5331 139.652 32.1136C141.63 44.8444 141.324 56.3751 132.11 63.1463Z" fill="#F9DA94"/>
<path d="M109.297 89.1767C110.151 88.2482 110.091 86.8035 109.162 85.9498C108.234 85.0961 106.789 85.1566 105.935 86.0851L109.297 89.1767ZM105.935 86.0851C100.067 92.4673 95.8578 97.613 93.0818 102.012C90.3021 106.418 88.854 110.237 88.7256 113.937C88.5961 117.67 89.8199 120.969 91.7688 124.288C93.683 127.549 96.4362 131.049 99.5241 135.106L103.159 132.34C99.9673 128.146 97.4448 124.935 95.7076 121.976C94.0051 119.076 93.2018 116.648 93.2903 114.096C93.38 111.512 94.3951 108.49 96.9446 104.45C99.4978 100.403 103.484 95.4985 109.297 89.1767L105.935 86.0851Z" fill="#4C4763"/>
<path d="M95.4007 73.7898C95.3385 73.3892 95.6139 73.0142 96.0158 72.9522L130.947 67.5633C131.349 67.5012 131.726 67.7757 131.788 68.1763L131.853 68.5955C131.506 69.0043 131.293 69.7236 131.328 70.533C131.375 71.6501 131.878 72.5566 132.49 72.6993L132.548 73.0722C132.671 73.8641 132.718 74.6501 132.693 75.4228C131.956 75.4098 131.26 76.2231 131.106 77.3119C130.969 78.2809 131.306 79.1583 131.884 79.4736C130.318 83.6034 126.627 86.7973 121.938 87.5208L110.658 89.2609C107.848 89.6945 105.11 89.1744 102.777 87.9424C102.99 87.374 102.64 86.4797 101.883 85.7762C100.996 84.9512 99.8845 84.7011 99.4011 85.2177C99.3786 85.2418 99.3578 85.2671 99.3388 85.2935C98.6221 84.5138 97.9999 83.641 97.4934 82.6908C97.9342 82.365 98.044 81.5156 97.7242 80.6612C97.4142 79.8333 96.8024 79.2721 96.2669 79.2761C96.2272 79.0812 96.1919 78.8844 96.1611 78.6857L95.4007 73.7898Z" fill="#4C4763"/>
<path d="M97.5003 82.7043C97.4984 82.7006 97.4964 82.697 97.4945 82.6933C97.9353 82.3676 98.045 81.5181 97.7252 80.6638C97.4153 79.8358 96.8035 79.2747 96.268 79.2787C96.2655 79.2665 96.263 79.2543 96.2606 79.242L131.685 68.8394C131.44 69.2608 131.3 69.8675 131.329 70.5355C131.376 71.6527 131.879 72.5591 132.491 72.7019L132.494 72.7182L97.5003 82.7043Z" fill="#716B89"/>
<path d="M102.778 87.9433C102.99 87.3747 102.64 86.4815 101.884 85.7788C101.195 85.1382 100.371 84.8442 99.8109 84.9866L99.8119 84.9839L132.142 75.5701C131.634 75.8492 131.221 76.5059 131.107 77.3145C130.971 78.2781 131.303 79.151 131.875 79.4709L102.778 87.9433Z" fill="#716B89"/>
<path d="M132.695 75.4091L132.636 75.4261C132.656 75.4253 132.675 75.425 132.694 75.4254C132.694 75.4199 132.695 75.4145 132.695 75.4091Z" fill="#716B89"/>
<path d="M91.3496 134.009C91.3496 132.909 92.2413 132.018 93.3412 132.018H103.339V134.985C103.339 135.546 102.884 136.001 102.323 136.001H93.3412C92.2413 136.001 91.3496 135.109 91.3496 134.009Z" fill="#4C4763"/>
<path d="M125.32 84.502L156.436 134.008" stroke="#4C4763" stroke-width="4.56747"/>
<path d="M52.4774 67.0746C52.8049 65.8565 54.0582 65.133 55.2767 65.4584L76.232 71.0547C77.4506 71.3801 78.1729 72.6313 77.8455 73.8494L75.6326 82.0804C75.3052 83.2984 74.0519 84.022 72.8333 83.6966L51.878 78.1003C50.6595 77.7749 49.9371 76.5237 50.2645 75.3056L52.4774 67.0746Z" fill="#F5F4F4"/>
<path fill-rule="evenodd" clip-rule="evenodd" d="M76.7911 71.259C77.5758 71.6634 78.0579 72.4918 78.0228 73.3729L63.782 75.6579L63.2641 75.741L62.8639 75.4028L52.683 66.797C53.0179 66.011 53.7617 65.4883 54.5897 65.4165L63.9409 73.3209L76.7911 71.259Z" fill="#DFDDEA"/>
<path d="M130.459 99.2973C132.835 96.6255 134.873 94.0575 136.476 91.6152" stroke="#716B89" stroke-width="4.56747" stroke-linecap="round"/>
<ellipse rx="8.56211" ry="8.53748" transform="matrix(0.96614 -0.258017 0.259623 0.96571 93.8452 40.6059)" fill="#F2F2F0"/>
<ellipse rx="8.56211" ry="8.53748" transform="matrix(0.96614 -0.258017 0.259623 0.96571 108.735 36.6313)" fill="#F2F2F0"/>
<path d="M107.89 38.1675C108.994 40.0726 108.339 42.5088 106.427 43.6087C104.516 44.7087 102.072 44.0559 100.968 42.1507C99.8644 40.2456 100.519 37.8094 102.431 36.7095C104.342 35.6095 106.787 36.2623 107.89 38.1675Z" fill="#4C4763"/>
<path d="M94.0233 42.0897C95.2058 44.131 94.5041 46.7411 92.456 47.9196C90.408 49.0981 87.7891 48.3988 86.6067 46.3575C85.4242 44.3163 86.1259 41.7061 88.174 40.5276C90.2221 39.3491 92.8409 40.0485 94.0233 42.0897Z" fill="#4C4763"/>
<ellipse rx="9.70373" ry="4.26874" transform="matrix(0.96614 -0.258017 0.259623 0.96571 97.2657 47.5972)" fill="#F9DA94"/>
<ellipse rx="9.70373" ry="4.26874" transform="matrix(0.96614 -0.258017 0.259623 0.96571 110.968 43.0444)" fill="#F9DA94"/>
<path d="M99.3428 50.9287C107.625 50.0882 111.65 49.3079 113.616 45.2383" stroke="#4C4763" stroke-width="1.7128" stroke-linecap="round"/>
</svg>
