<svg width="264" height="187" viewBox="0 0 264 187" fill="none" xmlns="http://www.w3.org/2000/svg">
<path d="M136.806 100.686C136.803 99.7533 137.437 98.9453 138.327 98.6662C150.34 94.8971 159.04 83.6197 158.996 70.3229C158.942 53.9822 145.703 40.7794 129.426 40.8336C113.149 40.8878 99.998 54.1785 100.052 70.5192C100.096 83.816 108.87 95.0352 120.908 98.7242C121.799 98.9974 122.439 99.8012 122.442 100.733V100.733C122.445 101.857 123.359 102.764 124.482 102.761L134.779 102.726C135.902 102.723 136.81 101.809 136.806 100.686V100.686Z" fill="#F9DA94"/>
<ellipse rx="5.15994" ry="5.17971" transform="matrix(0.994419 -0.105506 0.104693 0.994505 124.9 61.9503)" fill="#F2F2F0"/>
<ellipse rx="5.15994" ry="5.17971" transform="matrix(0.994419 -0.105506 0.104693 0.994505 133.93 60.9917)" fill="#F2F2F0"/>
<ellipse rx="2.47677" ry="2.48626" transform="matrix(0.994419 -0.105506 0.104693 0.994505 133.783 58.0727)" fill="#4C4763"/>
<ellipse rx="2.47677" ry="2.48626" transform="matrix(0.994419 -0.105506 0.104693 0.994505 124.732 58.9081)" fill="#4C4763"/>
<path d="M118.77 65.1242C126.797 60.7857 131.513 60.231 140.235 62.8467L140.555 65.8855L119.09 68.1629L118.77 65.1242Z" fill="#F9DA94"/>
<path d="M122.593 69.8155C126.938 66.0087 133.912 66.1993 136.839 69.155" stroke="#4C4763" stroke-width="1.68645" stroke-linecap="round"/>
<path d="M87.2848 81.2478C87.2848 79.1665 88.9721 77.4792 91.0534 77.4792H167.979C170.06 77.4792 171.747 79.1665 171.747 81.2478V175.463C171.747 179.625 168.373 183 164.21 183H94.822C90.6594 183 87.2848 179.625 87.2848 175.463V81.2478Z" fill="#4C4763"/>
<rect width="93.8563" height="11.3047" rx="3.7686" transform="matrix(0.987465 0.157837 -0.156638 0.987656 85.7707 21.7703)" fill="#8A8797"/>
<path d="M121.453 27.4727L122.412 21.4253C122.738 19.3696 124.668 17.9695 126.723 18.298L141.06 20.5897C143.116 20.9182 144.518 22.8509 144.191 24.9066L143.232 30.954" stroke="#8A8797" stroke-width="3.7686"/>
<g filter="url(#filter0_d)">
<path d="M136.737 23.4118L132.796 9.41614C132.591 8.68789 133.28 8.02558 133.996 8.26301L147.41 12.7126C148.162 12.9621 148.289 13.9766 147.621 14.4046L142.518 17.675C142.408 17.7452 142.314 17.8375 142.242 17.946L138.424 23.6796C137.978 24.3492 136.956 24.1868 136.737 23.4118Z" fill="#4C4763"/>
<path d="M136.737 23.4118L132.796 9.41614C132.591 8.68789 133.28 8.02558 133.996 8.26301L147.41 12.7126C148.162 12.9621 148.289 13.9766 147.621 14.4046L142.518 17.675C142.408 17.7452 142.314 17.8375 142.242 17.946L138.424 23.6796C137.978 24.3492 136.956 24.1868 136.737 23.4118Z" stroke="white"/>
</g>
<rect x="103.239" y="92.5536" width="7.50778" height="75.3719" rx="3.75389" fill="#8A8797"/>
<rect x="148.285" y="92.5536" width="7.50778" height="75.3719" rx="3.75389" fill="#8A8797"/>
<rect x="125.762" y="86.9007" width="7.50778" height="86.6777" rx="3.75389" fill="#8A8797"/>
<path d="M2.5 185H261.5" stroke="#DBD9E0" stroke-width="4" stroke-linecap="round"/>
<defs>
<filter id="filter0_d" x="122.838" y="0.174968" width="35.1379" height="35.7313" filterUnits="userSpaceOnUse" color-interpolation-filters="sRGB">
<feFlood flood-opacity="0" result="BackgroundImageFix"/>
<feColorMatrix in="SourceAlpha" type="matrix" values="0 0 0 0 0 0 0 0 0 0 0 0 0 0 0 0 0 0 127 0"/>
<feOffset dy="1.8843"/>
<feGaussianBlur stdDeviation="4.71074"/>
<feColorMatrix type="matrix" values="0 0 0 0 0 0 0 0 0 0 0 0 0 0 0 0 0 0 0.15 0"/>
<feBlend mode="normal" in2="BackgroundImageFix" result="effect1_dropShadow"/>
<feBlend mode="normal" in="SourceGraphic" in2="effect1_dropShadow" result="shape"/>
</filter>
</defs>
</svg>
