<svg width="175" height="113" viewBox="0 0 175 113" fill="none" xmlns="http://www.w3.org/2000/svg">
<rect width="175" height="113" rx="5.89226" fill="#F2F2F2"/>
<path d="M0 5.89226C0 2.63806 2.63805 0 5.89226 0H169.108C172.362 0 175 2.63805 175 5.89226V44H0V5.89226Z" fill="#5B41BB"/>
<path d="M0 107.108C0 110.362 2.63805 113 5.89226 113H169.108C172.362 113 175 110.362 175 107.108V98H0V107.108Z" fill="#5B41BB"/>
<path d="M62.456 19H63.992V13.816H69.864V19H71.4V7.672H69.864V12.376H63.992V7.672H62.456V19ZM74.3154 19H81.9154V17.56H75.8514V13.928H81.2274V12.488H75.8514V9.112H81.6274V7.672H74.3154V19ZM84.0966 19H90.8326V17.56H85.6326V7.672H84.0966V19ZM92.3935 19H99.1295V17.56H93.9295V7.672H92.3935V19ZM105.89 19.288C109.346 19.288 111.794 16.696 111.794 13.336C111.794 9.976 109.346 7.384 105.89 7.384C102.434 7.384 99.9864 9.976 99.9864 13.336C99.9864 16.696 102.434 19.288 105.89 19.288ZM105.89 17.848C103.298 17.848 101.618 15.816 101.618 13.336C101.618 10.856 103.298 8.824 105.89 8.824C108.482 8.824 110.162 10.856 110.162 13.336C110.162 15.816 108.482 17.848 105.89 17.848Z" fill="white"/>
<path d="M57.864 35H58.656V32.12C58.656 30.068 60.048 29.96 60.24 29.96C61.332 29.96 61.656 30.584 61.656 31.724V35H62.448V32.012C62.448 30.968 62.856 29.96 64.032 29.96C65.124 29.96 65.448 30.584 65.448 31.724V35H66.24V31.436C66.24 30.044 65.556 29.24 64.128 29.24C63.372 29.24 62.604 29.684 62.28 30.404C61.908 29.444 61.104 29.24 60.492 29.24C59.82 29.24 59.064 29.588 58.68 30.236H58.656V29.384H57.804C57.828 29.804 57.864 30.212 57.864 30.632V35ZM68.4068 29.384H67.4108L69.7148 35.072L69.3068 36.152C69.0668 36.788 68.7788 37.16 68.2268 37.16C68.0107 37.16 67.8068 37.124 67.6268 37.028L67.5428 37.796C67.7828 37.868 68.0348 37.88 68.2748 37.88C69.2468 37.88 69.7028 37.328 70.0388 36.464L72.8468 29.384H71.8868L70.1708 34.028L68.4068 29.384ZM77.1517 29.384C77.1757 29.792 77.2117 30.32 77.2117 30.62V35H78.0037V32.12C78.0037 30.068 79.5397 29.96 79.7077 29.96C80.8837 29.96 81.2317 30.644 81.2317 31.892V35H82.0237V31.436C82.0237 30.044 81.3397 29.24 79.9117 29.24C79.1677 29.24 78.3757 29.672 78.0277 30.284H78.0037C78.0037 29.984 78.0037 29.684 77.9677 29.384H77.1517ZM87.0836 31.556C85.7396 31.556 83.5916 31.676 83.5916 33.5C83.5916 34.592 84.5276 35.144 85.5236 35.144C86.4236 35.144 87.0476 34.832 87.5036 34.088H87.5276C87.5276 34.388 87.5516 34.724 87.5996 35H88.3676C88.3196 34.7 88.2716 34.172 88.2716 33.74V31.232C88.2716 29.864 87.3236 29.24 86.2196 29.24C85.1636 29.24 84.3596 29.528 83.8436 30.056L84.3236 30.62C84.8036 30.188 85.3796 29.96 86.0396 29.96C87.0116 29.96 87.4796 30.44 87.4796 31.412V31.556H87.0836ZM87.4796 32.204V32.612C87.4796 33.608 86.9276 34.424 85.7756 34.424C85.1396 34.424 84.4556 34.136 84.4556 33.392C84.4556 32.264 86.2676 32.204 87.0716 32.204H87.4796ZM90.1023 35H90.8943V32.12C90.8943 30.068 92.2863 29.96 92.4783 29.96C93.5703 29.96 93.8943 30.584 93.8943 31.724V35H94.6863V32.012C94.6863 30.968 95.0943 29.96 96.2703 29.96C97.3623 29.96 97.6863 30.584 97.6863 31.724V35H98.4783V31.436C98.4783 30.044 97.7943 29.24 96.3663 29.24C95.6103 29.24 94.8423 29.684 94.5183 30.404C94.1463 29.444 93.3423 29.24 92.7303 29.24C92.0583 29.24 91.3023 29.588 90.9183 30.236H90.8943V29.384H90.0423C90.0663 29.804 90.1023 30.212 90.1023 30.632V35ZM105.553 32.408V32.048C105.553 30.512 104.569 29.252 102.865 29.24C101.269 29.24 100.033 30.5 100.033 32.192C100.033 33.884 101.269 35.144 102.937 35.144C103.861 35.144 104.689 34.796 105.349 33.956L104.737 33.452C104.425 33.956 103.777 34.424 102.937 34.424C101.821 34.424 100.969 33.536 100.873 32.408H105.553ZM100.897 31.76C100.897 30.836 101.833 29.96 102.865 29.96C104.005 29.96 104.689 30.692 104.689 31.76H100.897ZM111.301 29.384H110.509V35H111.301V29.384ZM111.481 27.224C111.481 26.888 111.193 26.648 110.905 26.648C110.617 26.648 110.329 26.888 110.329 27.224C110.329 27.56 110.617 27.8 110.905 27.8C111.193 27.8 111.481 27.56 111.481 27.224ZM116.896 30.248C116.536 29.516 115.804 29.24 115.024 29.24C113.968 29.24 112.948 29.768 112.948 30.932C112.948 32 114.004 32.312 114.388 32.408L115.156 32.588C115.744 32.732 116.224 32.924 116.224 33.488C116.224 34.136 115.552 34.424 114.904 34.424C114.244 34.424 113.752 34.088 113.428 33.584L112.744 34.052C113.272 34.844 114.052 35.144 114.904 35.144C115.996 35.144 117.088 34.64 117.088 33.416C117.088 32.624 116.5 32.06 115.72 31.88L114.916 31.688C114.184 31.52 113.812 31.328 113.812 30.8C113.812 30.2 114.424 29.96 114.976 29.96C115.552 29.96 115.948 30.26 116.188 30.716L116.896 30.248Z" fill="white"/>
</svg>
