<svg width="115" height="168" viewBox="0 0 115 168" fill="none" xmlns="http://www.w3.org/2000/svg">
<path d="M77.9581 105.517C78.7297 105.258 79.1451 104.422 78.8859 103.65C78.6267 102.879 77.7911 102.463 77.0195 102.723L77.9581 105.517ZM58.9917 95.5936C60.0962 100.654 62.1447 104.191 65.5404 105.872C68.8838 107.527 73.0913 107.152 77.9581 105.517L77.0195 102.723C72.3831 104.28 69.1255 104.357 66.8479 103.23C64.6225 102.129 62.8941 99.6498 61.8716 94.965L58.9917 95.5936Z" fill="#716B89"/>
<path d="M34.6574 101.173C34.6574 96.8434 32.4352 92.8548 28.9707 90.2586C21.5925 84.7294 15.1245 78.3143 7.08142 69.0297C5.42752 67.1197 4.93425 64.666 5.74125 62.4076C14.6319 37.5489 23.1843 22.7422 39.0487 3.28627C42.7192 -1.21548 50.6732 -1.06373 54.1061 3.56668C69.4065 24.2094 77.3551 39.2298 87.6394 62.4962C88.6141 64.7009 88.3376 67.1686 86.8369 69.1572C79.8617 78.4059 73.689 84.8049 65.4512 90.6014C61.9799 93.0439 59.727 96.9282 59.727 101.173H34.6574Z" fill="#FAD278"/>
<path d="M37.296 101.172H59.727C59.727 96.9278 61.9799 93.0434 65.4512 90.6009C73.689 84.8045 79.8617 78.4055 86.8369 69.1567C88.3376 67.1681 88.6141 64.7004 87.6394 62.4957C77.3551 39.2294 69.4065 24.2089 54.1061 3.56623C52.6123 1.55138 50.2625 0.384523 47.7821 0.0800781C45.4342 0.368588 43.198 1.43311 41.6874 3.28582C25.823 22.7418 17.2706 37.5484 8.37993 62.4072C7.57292 64.6656 8.06619 67.1193 9.72009 69.0292C17.7632 78.3139 24.2312 84.7289 31.6094 90.2581C35.0738 92.8544 37.296 96.8429 37.296 101.172Z" fill="#F9DA94"/>
<path d="M31.6777 94.4382C31.6777 94.0883 31.9592 93.8047 32.3063 93.8047H62.4789C62.8261 93.8047 63.1075 94.0883 63.1075 94.4382V94.8042C62.761 95.1072 62.4874 95.6928 62.4105 96.3877C62.3044 97.3468 62.6096 98.186 63.1075 98.3884V98.7141C63.1075 99.4056 63.0438 100.082 62.9219 100.738C62.3014 100.63 61.608 101.232 61.3357 102.14C61.0935 102.949 61.2623 103.742 61.7086 104.087C59.847 107.403 56.315 109.642 52.2642 109.642H42.521C40.0937 109.642 37.8527 108.838 36.0457 107.48C36.2998 107.023 36.122 106.214 35.5758 105.515C34.9353 104.694 34.0306 104.335 33.5552 104.712C33.533 104.729 33.5122 104.748 33.4926 104.768C32.9903 104.009 32.5797 103.183 32.277 102.305C32.6914 102.086 32.8953 101.376 32.7375 100.605C32.5845 99.8578 32.1419 99.2987 31.6897 99.2316C31.6817 99.0601 31.6777 98.8876 31.6777 98.7141V94.4382Z" fill="#4C4763"/>
<path d="M32.2807 102.316C32.2795 102.313 32.2784 102.309 32.2772 102.306C32.6917 102.086 32.8956 101.376 32.7377 100.605C32.5848 99.8582 32.1422 99.299 31.6899 99.232C31.6894 99.2213 31.6889 99.2105 31.6885 99.1997L62.9336 94.9883C62.6717 95.3154 62.4742 95.8145 62.4108 96.388C62.3047 97.3472 62.6098 98.1864 63.1078 98.3888V98.403L32.2807 102.316Z" fill="#716B89"/>
<path d="M36.0467 107.479C36.2997 107.022 36.1217 106.214 35.5761 105.515C35.0787 104.878 34.422 104.519 33.9308 104.567L33.932 104.564L62.437 100.789C61.9726 100.96 61.5382 101.466 61.336 102.141C61.0951 102.945 61.2607 103.733 61.7014 104.081L36.0467 107.479Z" fill="#716B89"/>
<path d="M62.9247 100.725L62.8732 100.731C62.8895 100.733 62.9059 100.736 62.9221 100.738C62.923 100.734 62.9238 100.729 62.9247 100.725Z" fill="#716B89"/>
<path d="M42.4072 107.557V161.917" stroke="#4C4763" stroke-width="2.94765"/>
<path d="M53.6084 107.557V161.917" stroke="#4C4763" stroke-width="2.94765"/>
<path d="M50.3667 162.828C50.3667 161.953 49.6577 161.244 48.783 161.244H40.9378V163.612C40.9378 164.054 41.2955 164.412 41.7368 164.412H48.783C49.6577 164.412 50.3667 163.702 50.3667 162.828Z" fill="#4C4763"/>
<path d="M61.5747 162.828C61.5747 161.953 60.8657 161.244 59.991 161.244H52.1458V163.612C52.1458 164.054 52.5035 164.412 52.9448 164.412H59.991C60.8657 164.412 61.5747 163.702 61.5747 162.828Z" fill="#4C4763"/>
<path d="M0 166.281C0 165.332 1.88961 164.562 4.22056 164.562H89.8376C92.1685 164.562 94.0581 165.332 94.0581 166.281C94.0581 167.231 92.1685 168 89.8376 168H4.22056C1.88961 168 0 167.231 0 166.281Z" fill="#4C4763" fill-opacity="0.2"/>
<path d="M37.0381 96.0168C47.7597 113.452 59.6998 94.2979 71.6398 96.0168" stroke="#716B89" stroke-width="2.94765" stroke-linecap="round"/>
<ellipse cx="43.2735" cy="55.5718" rx="9.82181" ry="9.89802" fill="#F2F2F0"/>
<ellipse cx="60.5591" cy="55.5718" rx="9.82181" ry="9.89802" fill="#F2F2F0"/>
<ellipse cx="65.3888" cy="57.5401" rx="4.71447" ry="4.75105" fill="#4C4763"/>
<ellipse cx="48.089" cy="57.3018" rx="4.71447" ry="4.75105" fill="#4C4763"/>
<rect x="31.4341" y="60.0273" width="41.4246" height="6.38468" fill="#F9DA94"/>
<path d="M45.3259 64.3398C44.1054 67.5322 48.4915 69.7423 50.6844 67.0411" stroke="#4C4763" stroke-width="1.47382" stroke-linecap="round"/>
<path d="M90.7692 93.9028L95.7827 88.8504C101.84 82.7462 105.243 74.4672 105.243 65.8347L105.243 65.0742" stroke="#4C4763" stroke-opacity="0.6" stroke-width="0.982548" stroke-linecap="round" stroke-dasharray="4.91 4.91"/>
<path d="M85.5201 91.9943C85.9189 91.6573 86.5231 91.7191 86.8696 92.1322L91.5747 97.7424C91.9212 98.1555 91.8787 98.7635 91.4799 99.1005L81.7306 107.337C81.3317 107.673 80.7275 107.612 80.381 107.199L75.6759 101.588C75.3294 101.175 75.3719 100.567 75.7707 100.23L85.5201 91.9943Z" fill="#06132D"/>
<rect width="8.3226" height="12.7119" rx="0.982548" transform="matrix(0.64112 0.767441 -0.762536 0.646946 85.8052 92.3594)" fill="#F0F0F5"/>
<rect width="6.52312" height="10.5416" rx="0.982548" transform="matrix(0.64112 0.767441 -0.762536 0.646946 85.5552 93.748)" fill="white"/>
<rect width="4.27377" height="1.39521" rx="0.491274" transform="matrix(0.64112 0.767441 -0.762536 0.646946 82.729 97.623)" fill="#5B41BB"/>
<ellipse rx="0.337307" ry="0.464827" transform="matrix(0.64112 0.767441 -0.762536 0.646946 86.8174 96.9561)" fill="#F6CA4A"/>
<rect width="4.27377" height="0.310047" rx="0.155023" transform="matrix(0.64112 0.767441 -0.762536 0.646946 84.7378 95.918)" fill="#4C4763"/>
<rect width="2.47471" height="0.310085" rx="0.155042" transform="matrix(0.64112 0.767441 -0.762536 0.646946 84.7241 97.1074)" fill="#4C4763"/>
<rect width="1.79897" height="0.309884" rx="0.154942" transform="matrix(0.64112 0.767441 -0.762536 0.646946 84.3491 97.8711)" fill="#4C4763"/>
<path d="M79.1699 99.166L83.352 104.172L82.4463 104.941C82.0325 105.292 81.415 105.239 81.0671 104.822L78.1449 101.324C77.797 100.908 77.8504 100.286 78.2642 99.9344L79.1699 99.166Z" fill="#E0DCED"/>
<path d="M96.746 45.9292C99.0297 43.6278 102.733 43.6278 105.017 45.9292C107.3 43.6278 111.003 43.6278 113.287 45.9292C115.571 48.2306 115.571 51.9625 113.287 54.2639L105.017 62.5987L96.746 54.2639C94.4623 51.9625 94.4623 48.2306 96.746 45.9292Z" fill="#5B41BB"/>
</svg>
