<svg width="148" height="124" viewBox="0 0 148 124" fill="none" xmlns="http://www.w3.org/2000/svg">
<path d="M139.814 39.667C139.814 44.8281 138.597 49.0764 136.486 52.7157C135.789 53.9144 134.998 55.0553 134.121 56.1276C126.36 65.6617 111.932 70.88 98.8912 79.3326C60.3977 104.282 56.2282 64.3028 57.9667 39.667C58.668 29.7264 62.522 20.6208 68.6449 13.6489C69.9308 12.1826 71.3198 10.8109 72.8013 9.54439C79.7526 3.59822 88.7331 0 98.8912 0C116.319 0 131.202 10.5584 137.103 25.437C138.897 29.9647 139.817 34.7939 139.814 39.667Z" fill="#6C63FF"/>
<path d="M107.61 8.9397L68.6445 13.6488C69.9304 12.1825 71.3195 10.8108 72.801 9.54429L107.61 8.9397Z" fill="#D0CDE1"/>
<path d="M136.486 52.7157C135.789 53.9144 134.998 55.0553 134.121 56.1276L100.744 52.095L136.486 52.7157Z" fill="#D0CDE1"/>
<path d="M138.464 29.5283L81.897 22.1587L137.102 25.437C137.633 26.7739 138.087 28.1399 138.464 29.5283Z" fill="#D0CDE1"/>
<path d="M61.8035 10.5659C61.8035 10.6672 61.8005 10.767 61.7918 10.8653C61.7475 11.4747 61.5685 12.0665 61.2678 12.5976C60.967 13.1288 60.5521 13.5858 60.0533 13.9355C59.5545 14.2852 58.9842 14.5188 58.3842 14.6191C57.7841 14.7195 57.1694 14.6842 56.5846 14.5157C55.9999 14.3472 55.4599 14.0499 55.004 13.6453C54.5482 13.2407 54.1879 12.7391 53.9494 12.177C53.711 11.6149 53.6003 11.0064 53.6256 10.3959C53.6509 9.78541 53.8114 9.18826 54.0954 8.64795C54.1834 8.47863 54.284 8.31625 54.3964 8.16222C54.8856 7.48069 55.5711 6.96626 56.3605 6.6883C57.1498 6.41035 58.0051 6.38224 58.8109 6.60777C59.6166 6.8333 60.3342 7.30163 60.8667 7.94957C61.3992 8.59752 61.721 9.39391 61.7888 10.2313C61.7991 10.3414 61.8035 10.4529 61.8035 10.5659Z" fill="#6C63FF"/>
<path d="M60.3427 12.6367L54.6771 13.322C54.5163 13.1419 54.3715 12.948 54.2446 12.7424L60.3427 12.6367Z" fill="#D0CDE1"/>
<path d="M117.865 84.5447C117.818 84.6341 117.769 84.7209 117.715 84.8036C117.392 85.321 116.958 85.7595 116.444 86.0871C115.931 86.4146 115.351 86.623 114.747 86.697C114.143 86.771 113.53 86.7088 112.953 86.5149C112.377 86.321 111.85 86.0003 111.412 85.5762C110.974 85.1521 110.636 84.6352 110.422 84.0631C110.208 83.4911 110.124 82.8784 110.176 82.2696C110.228 81.6608 110.414 81.0712 110.721 80.5438C111.028 80.0165 111.449 79.5646 111.952 79.221C112.109 79.1129 112.273 79.0168 112.444 78.9337C113.195 78.5621 114.04 78.4304 114.867 78.5566C115.694 78.6827 116.463 79.0606 117.069 79.6392C117.676 80.2179 118.091 80.9694 118.259 81.7925C118.427 82.6156 118.34 83.4706 118.009 84.2422C117.966 84.3443 117.918 84.4448 117.865 84.5447Z" fill="#6C63FF"/>
<path d="M117.865 84.5445C117.818 84.6339 117.769 84.7207 117.715 84.8034L112.651 81.2664L118.009 84.242C117.966 84.3441 117.918 84.4446 117.865 84.5445Z" fill="#D0CDE1"/>
<path d="M115.609 85.6857L110.284 83.6234C110.226 83.3886 110.189 83.1491 110.173 82.9077L115.609 85.6857Z" fill="#D0CDE1"/>
<path d="M116.312 80.9108L111.952 79.2212C112.109 79.113 112.274 79.017 112.445 78.9338L116.312 80.9108Z" fill="#D0CDE1"/>
<path d="M146.838 13.7138C146.908 13.7863 146.975 13.8598 147.037 13.9363C147.429 14.4036 147.713 14.9529 147.867 15.544C148.02 16.1352 148.041 16.7533 147.927 17.3535C147.813 17.9537 147.567 18.5208 147.207 19.0135C146.847 19.5062 146.383 19.912 145.847 20.2015C145.311 20.491 144.718 20.6568 144.111 20.6868C143.503 20.7169 142.896 20.6105 142.335 20.3753C141.773 20.1401 141.271 19.7821 140.865 19.3273C140.459 18.8725 140.159 18.3325 139.986 17.7464C139.932 17.5635 139.891 17.3767 139.864 17.1876C139.741 16.3566 139.874 15.5076 140.246 14.755C140.618 14.0024 141.21 13.3825 141.944 12.9789C142.678 12.5753 143.517 12.4073 144.348 12.4977C145.18 12.5881 145.964 12.9326 146.595 13.4845C146.679 13.5562 146.759 13.6329 146.838 13.7138Z" fill="#6C63FF"/>
<path d="M146.838 13.7139C146.909 13.7864 146.976 13.8599 147.038 13.9364L142.14 17.702L146.595 13.4846C146.679 13.5562 146.76 13.633 146.838 13.7139Z" fill="#D0CDE1"/>
<path d="M147.232 16.2207L143.652 20.6847C143.412 20.6685 143.174 20.6311 142.94 20.5729L147.232 16.2207Z" fill="#D0CDE1"/>
<path d="M142.919 14.0911L139.987 17.7465C139.932 17.5636 139.891 17.3768 139.865 17.1877L142.919 14.0911Z" fill="#D0CDE1"/>
<path d="M70.0938 89.4351C70.0938 89.4351 79.0708 89.8108 79.0708 92.065C79.0708 94.3192 68.9717 92.065 68.9717 92.065L70.0938 89.4351Z" fill="#A0616A"/>
<path d="M56.6287 124L39.7969 122.873L39.0488 113.856L35.3084 121.746L18.8506 119.492C19.2246 105.215 25.2093 91.3138 25.5833 89.4352C25.9574 87.5567 26.8513 79.7946 26.8513 79.7946C28.4859 76.3119 37.0514 75.985 43.7654 76.3006C46.5483 76.4283 49.017 76.6688 50.5393 76.8416C51.5454 76.9543 52.1402 77.037 52.1402 77.037C54.822 79.8134 56.5501 83.5968 57.6124 87.8235C61.4426 103.051 56.6287 124 56.6287 124Z" fill="#2F2E41"/>
<path d="M37.9267 36.8365C43.0911 36.8365 47.2777 32.6313 47.2777 27.4439C47.2777 22.2565 43.0911 18.0513 37.9267 18.0513C32.7623 18.0513 28.5757 22.2565 28.5757 27.4439C28.5757 32.6313 32.7623 36.8365 37.9267 36.8365Z" fill="#A0616A"/>
<path d="M31.5679 29.698C31.5679 29.698 28.9496 41.3448 24.8351 44.7262C20.7207 48.1075 40.9189 44.7262 40.9189 44.7262C40.9189 44.7262 36.4304 37.2121 39.7968 33.8307C43.1631 30.4494 31.5679 29.698 31.5679 29.698Z" fill="#A0616A"/>
<path d="M50.644 77.7881L44.4386 78.4793L27.0794 80.418C27.0794 80.418 26.9971 80.1963 26.8513 79.7943C25.5907 76.3416 19.5201 59.5401 18.8505 54.4943C18.1024 48.8588 25.9573 42.0961 25.9573 42.0961C25.9573 42.0961 33.4381 40.5933 35.6823 40.5933C37.9266 40.5933 46.9036 43.9746 46.9036 43.9746L50.2512 74.2226L50.5392 76.8413L50.644 77.7881Z" fill="#D0CDE1"/>
<path opacity="0.15" d="M57.6123 87.8235L45.0333 80.4183C45.0333 80.4183 44.8126 79.697 44.4386 78.4797C44.2516 77.8711 44.0234 77.1347 43.7653 76.3006C42.314 71.6193 39.879 63.8948 37.9266 58.2518C34.9342 49.6105 49.5218 73.6557 49.5218 73.6557L50.2512 74.223L50.5392 76.8416C51.5453 76.9543 52.1401 77.037 52.1401 77.037C54.8219 79.8135 56.55 83.5968 57.6123 87.8235Z" fill="black"/>
<path d="M40.9186 44.7261C40.9186 44.7261 37.1782 49.6102 40.1705 58.2514C43.1629 66.8926 47.2773 80.418 47.2773 80.418L68.9717 93.192L71.964 89.4349L51.7658 73.6553C51.7658 73.6553 51.0177 45.1018 47.2773 43.9746C43.5369 42.8475 40.9186 44.7261 40.9186 44.7261Z" fill="#D0CDE1"/>
<path d="M22.4043 77.6004C22.4043 77.6004 27.6409 88.4958 29.8851 87.3687C32.1293 86.2416 24.2745 74.9705 24.2745 74.9705L22.4043 77.6004Z" fill="#A0616A"/>
<path d="M21.8429 47.7319L2.01877 64.2629C2.01877 64.2629 -5.46204 69.5228 8.37747 73.2799C22.217 77.0369 23.3391 79.2911 23.3391 79.2911C23.3391 79.2911 24.8352 74.407 26.7054 75.1584L10.6217 67.2686L23.7131 59.3788L21.8429 47.7319Z" fill="#D0CDE1"/>
<path d="M13.8757 35.1529C14.9161 34.6354 17.2137 33.5908 19.1707 32.3324C19.0335 28.2386 19.5354 24.5222 21.0045 22.5523C21.8292 20.6715 23.5609 18.7885 24.9172 17.3056C28.2479 13.664 35.6129 11.6314 36.9191 13.4508C46.7989 13.6467 47.839 21.4255 47.839 21.4255C47.7876 24.6791 44.421 24.7821 41.4719 24.6635C41.736 26.8847 41.0322 29.1927 38.9942 30.2163C35.0969 32.1736 33.9277 34.7181 35.8764 36.4796C37.825 38.2412 41.3326 42.9388 36.6558 44.1131C31.9791 45.2875 31.3945 47.6363 32.7586 48.615C34.1226 49.5936 29.6407 46.8534 29.6407 46.8534C29.6407 46.8534 28.8613 51.5509 24.7691 50.3765C24.4024 50.2713 24.0359 50.0016 23.6756 49.5983C22.5704 50.818 21.5844 51.5392 20.8413 51.5432C16.5855 51.5659 17.0959 46.8312 17.0959 46.8312C17.0959 46.8312 12.0444 48.2562 13.6206 47.6832C15.1969 47.1102 15.2644 44.6901 11.0761 42.2926C6.8878 39.8952 11.5264 36.3215 13.8757 35.1529Z" fill="#2F2E41"/>
<path d="M66.0915 47.4258L66.0237 47.4168L66.1892 48.0487C66.3456 48.9304 66.5728 49.7979 66.8685 50.6428L71.7228 69.178C71.8777 69.7696 72.2012 70.3028 72.6536 70.7124C73.106 71.1219 73.6675 71.3899 74.2694 71.4834L84.1688 73.0217C84.8089 73.1211 85.464 73.0185 86.0435 72.728C86.6231 72.4375 87.0985 71.9734 87.4043 71.3998L96.812 53.7497C97.1059 53.2607 97.3745 52.7568 97.6167 52.2399L97.9361 51.6407L97.8863 51.6341C98.8836 49.2645 99.3226 46.6955 99.169 44.1275C99.0155 41.5595 98.2736 39.0617 97.0011 36.829C95.7286 34.5963 93.96 32.689 91.8331 31.2556C89.7062 29.8223 87.2785 28.9017 84.7392 28.5656C82.1999 28.2295 79.6176 28.4869 77.1937 29.3179C74.7697 30.149 72.5696 31.531 70.7647 33.3564C68.9599 35.1818 67.5991 37.4012 66.7886 39.8416C65.978 42.2821 65.7394 44.8775 66.0915 47.4258H66.0915Z" fill="#3F3D56"/>
<path d="M84.7761 74.2325C84.6017 74.2325 84.4276 74.2191 84.2553 74.1923L73.9077 72.5842C73.2504 72.4822 72.6372 72.1896 72.1432 71.7424C71.6492 71.2952 71.2959 70.7128 71.1269 70.0667L66.0529 50.6924C65.7428 49.8055 65.5044 48.8948 65.3402 47.9694L65.2119 47.1218C64.8666 44.414 65.1527 41.6627 66.0476 39.085C66.9424 36.5074 68.4215 34.1739 70.3682 32.2688C72.3148 30.3638 74.6756 28.9393 77.2642 28.1079C79.8529 27.2764 82.5985 27.0607 85.2844 27.4778L85.2396 27.7679C82.583 27.3567 79.8675 27.5748 77.3097 28.4048C74.7518 29.2348 72.4226 30.6538 70.5076 32.5485C68.5926 34.4432 67.145 36.7612 66.2802 39.3176C65.4154 41.874 65.1574 44.598 65.5267 47.2723L65.6253 47.9063C65.7883 48.8239 66.0246 49.7269 66.332 50.6064L71.4095 69.9921C71.5641 70.5829 71.887 71.1154 72.3388 71.5244C72.7905 71.9334 73.3513 72.2009 73.9523 72.2942L84.3 73.9022C84.9391 74.0009 85.593 73.8981 86.1716 73.6081C86.7502 73.3181 87.225 72.855 87.5308 72.2827L87.7885 72.4211C87.4961 72.9682 87.0616 73.4256 86.5312 73.7445C86.0008 74.0634 85.3943 74.2321 84.7761 74.2325Z" fill="#D0CDE1"/>
<path d="M87.4012 51.6388L81.105 68.9065L81.4598 69.037L87.756 51.7693L87.4012 51.6388Z" fill="#D0CDE1"/>
<path d="M77.1207 50.041L76.7432 50.0576L77.5468 68.4293L77.9243 68.4126L77.1207 50.041Z" fill="#D0CDE1"/>
<path d="M83.9015 83.016L70.6422 80.9556C70.5436 80.9397 70.4553 80.8853 70.3966 80.8042C70.3378 80.7231 70.3134 80.6219 70.3287 80.5228C70.3439 80.4236 70.3976 80.3346 70.478 80.2751C70.5584 80.2156 70.659 80.1905 70.7578 80.2053L84.0171 82.2657C84.0664 82.273 84.1137 82.2901 84.1564 82.3159C84.1991 82.3417 84.2363 82.3758 84.2658 82.416C84.2953 82.4563 84.3167 82.5021 84.3285 82.5507C84.3404 82.5993 84.3426 82.6498 84.335 82.6992C84.3274 82.7487 84.3101 82.7961 84.2842 82.8389C84.2582 82.8816 84.2241 82.9187 84.1838 82.9482C84.1436 82.9776 84.0979 82.9988 84.0494 83.0104C84.001 83.022 83.9507 83.024 83.9015 83.016Z" fill="#3F3D56"/>
<path d="M84.2418 80.1876L70.9825 78.1272C70.9332 78.1198 70.8859 78.1028 70.8432 78.077C70.8005 78.0512 70.7633 78.0171 70.7338 77.9768C70.7042 77.9365 70.6829 77.8908 70.671 77.8422C70.6592 77.7936 70.657 77.7431 70.6646 77.6937C70.6722 77.6442 70.6895 77.5968 70.7154 77.554C70.7414 77.5113 70.7755 77.4742 70.8157 77.4447C70.856 77.4153 70.9017 77.3941 70.9502 77.3825C70.9986 77.3708 71.0489 77.3689 71.0981 77.3769L84.3574 79.4373C84.4067 79.4446 84.454 79.4617 84.4967 79.4875C84.5394 79.5133 84.5765 79.5473 84.6061 79.5876C84.6356 79.6279 84.6569 79.6737 84.6688 79.7223C84.6807 79.7709 84.6829 79.8213 84.6753 79.8708C84.6677 79.9203 84.6504 79.9677 84.6244 80.0104C84.5985 80.0531 84.5644 80.0903 84.5241 80.1197C84.4839 80.1492 84.4382 80.1703 84.3897 80.182C84.3413 80.1936 84.291 80.1955 84.2418 80.1876Z" fill="#3F3D56"/>
<path d="M84.5817 77.3595L71.3224 75.2991C71.2238 75.2832 71.1355 75.2288 71.0767 75.1477C71.018 75.0666 70.9936 74.9654 71.0088 74.8663C71.0241 74.7672 71.0778 74.6781 71.1582 74.6186C71.2386 74.5592 71.3392 74.5341 71.438 74.5488L84.6973 76.6092C84.7959 76.6251 84.8842 76.6796 84.9429 76.7607C85.0017 76.8418 85.0261 76.9429 85.0108 77.0421C84.9956 77.1412 84.9419 77.2302 84.8615 77.2897C84.781 77.3492 84.6805 77.3743 84.5817 77.3595H84.5817Z" fill="#3F3D56"/>
<path d="M76.8601 84.6618C79.4901 85.0705 81.849 83.9295 82.1287 82.1133L72.6044 80.6333C72.3247 82.4495 74.23 84.2532 76.8601 84.6618Z" fill="#3F3D56"/>
<path d="M81.626 48.0007C81.0602 47.9128 80.5922 47.4637 80.3356 47.1626C80.2514 47.0639 80.1695 46.9615 80.0874 46.8589C79.7885 46.4852 79.5064 46.1324 79.1134 45.9484C78.2461 45.5419 77.2241 46.1096 76.3393 46.7188L76.1255 46.4057C77.0983 45.7358 78.2327 45.1169 79.2733 45.6043C79.7459 45.8257 80.0693 46.2301 80.382 46.6211C80.4616 46.7207 80.5411 46.82 80.6226 46.9157C80.8894 47.2287 81.4216 47.7358 81.9918 47.6189C82.2321 47.5485 82.4555 47.4297 82.6485 47.2696C82.7956 47.1594 82.951 47.0609 83.1133 46.9751C83.4425 46.8165 83.8111 46.7593 84.1726 46.8106C84.5342 46.8619 84.8725 47.0195 85.1451 47.2635C85.2422 47.356 85.3343 47.4537 85.4208 47.5564C85.5908 47.751 85.7513 47.9347 85.9602 48.0015C86.2691 48.1007 86.5956 47.9234 86.9415 47.736C87.2983 47.5427 87.6671 47.3426 88.0855 47.392C88.099 47.3936 88.1127 47.3955 88.1262 47.3976C88.8707 47.5132 89.2139 48.3402 89.4081 48.9574L89.0476 49.0717C88.7838 48.2328 88.4624 47.8156 88.0412 47.769C87.7415 47.7336 87.4402 47.8971 87.1211 48.07C86.7211 48.287 86.3071 48.5112 85.8455 48.3633C85.5365 48.2645 85.3332 48.0318 85.1366 47.8068C85.0592 47.7147 84.9768 47.6268 84.89 47.5437C84.6729 47.3527 84.4051 47.2294 84.1194 47.1888C83.8337 47.1483 83.5424 47.1922 83.2811 47.3152C83.1364 47.3925 82.9979 47.4809 82.8667 47.5795C82.6322 47.7717 82.3599 47.9118 82.0676 47.9908C81.9222 48.0206 81.7726 48.0239 81.626 48.0007Z" fill="#D0CDE1"/>
</svg>
