<svg width="64" height="64" viewBox="0 0 64 64" fill="none" xmlns="http://www.w3.org/2000/svg">
  <circle cx="32" cy="32" r="32" fill="#0DC2FF"/>
  <path d="M46.8446 24.9678C46.8674 25.3005 46.8674 25.6332 46.8674 25.969C46.8674 36.2003 39.1626 48 25.074 48V47.9939C20.9122 48 16.8369 46.7949 13.3333 44.5227C13.9385 44.5963 14.5467 44.6331 15.1564 44.6346C18.6054 44.6377 21.9557 43.4678 24.6691 41.3136C21.3915 41.2507 18.5174 39.0904 17.5133 35.9365C18.6615 36.1604 19.8445 36.1144 20.9714 35.8031C17.3981 35.0733 14.8273 31.8995 14.8273 28.2136C14.8273 28.1799 14.8273 28.1477 14.8273 28.1155C15.892 28.715 17.0841 29.0477 18.3035 29.0845C14.938 26.8107 13.9006 22.2846 15.933 18.7459C19.8217 23.5832 25.5594 26.524 31.7187 26.8352C31.1014 24.1459 31.9447 21.3279 33.9345 19.4374C37.0195 16.5058 41.8714 16.6561 44.7713 19.7732C46.4867 19.4312 48.1308 18.795 49.6353 17.8934C49.0635 19.6858 47.8669 21.2083 46.2683 22.1757C47.7865 21.9948 49.2698 21.5839 50.6667 20.9568C49.6384 22.5146 48.3431 23.8715 46.8446 24.9678Z" fill="white"/>
</svg>
