<svg width="2733" height="4296" viewBox="0 0 2733 4296" fill="none" xmlns="http://www.w3.org/2000/svg">
<path d="M1371.65 2720.04C1373.42 2701.57 1387.58 2686.81 1405.75 2683.03C1651.66 2631.93 1846.53 2425.61 1871.76 2162.18C1902.77 1838.46 1665.88 1551.08 1342.64 1520.28C1019.41 1489.49 732.244 1726.95 701.238 2050.66C676.005 2314.1 828.185 2553.48 1059.95 2650.09C1077.07 2657.22 1088.17 2674.39 1086.4 2692.87C1084.27 2715.11 1100.58 2734.87 1122.83 2736.99L1327.51 2756.49C1349.76 2758.61 1369.52 2742.29 1371.65 2720.04Z" fill="#FAD278"/>
<path d="M1405.75 2683.03C1387.58 2686.81 1373.42 2701.57 1371.65 2720.04C1369.52 2742.29 1349.76 2758.61 1327.51 2756.49L1146.37 2739.23C1136.94 2730.95 1131.48 2718.41 1132.77 2704.96C1134.54 2686.49 1123.44 2669.32 1106.32 2662.18C874.558 2565.57 722.377 2326.19 747.61 2062.75C778.616 1739.04 1065.78 1501.58 1389.02 1532.37C1412.78 1534.64 1436.08 1538.29 1458.84 1543.24C1720.63 1623.09 1898.91 1878.7 1871.76 2162.18C1846.53 2425.61 1651.66 2631.93 1405.75 2683.03Z" fill="#F9DA94"/>
<path d="M999 1989.85C999 1965.41 1015.49 1943.97 1039.26 1938.3C1216.69 1895.98 1336.29 1896.43 1528.75 1938.89C1552.97 1944.24 1570 1965.87 1570 1990.67C1570 2100.29 1494.58 2198.92 1385.59 2210.56C1316.31 2217.95 1252.79 2217.89 1184.23 2210.58C1074.8 2198.92 999 2099.9 999 1989.85Z" fill="#4C4763"/>
<mask id="mask0" mask-type="alpha" maskUnits="userSpaceOnUse" x="999" y="1906" width="571" height="311">
<path d="M999 1989.85C999 1965.41 1015.49 1943.97 1039.26 1938.3C1216.69 1895.98 1336.29 1896.43 1528.75 1938.89C1552.97 1944.24 1570 1965.87 1570 1990.67C1570 2100.29 1494.58 2198.92 1385.59 2210.56C1316.31 2217.95 1252.79 2217.89 1184.23 2210.58C1074.8 2198.92 999 2099.9 999 1989.85Z" fill="#4C4763"/>
</mask>
<g mask="url(#mask0)">
<circle cx="1175.18" cy="2243.42" r="146.289" fill="#F2F2F0"/>
</g>
<path d="M1089.36 2936.78C971.5 3302 911.5 3492.5 873 4018.5" stroke="#4C4763" stroke-width="60.3639"/>
<path d="M1358 2944.5C1420.5 3320 1462.5 3576 1647.5 4015" stroke="#4C4763" stroke-width="60.3639"/>
<path d="M718 4001.23C718 3984.54 731.535 3971 748.231 3971L899.092 3971L899.092 4016.12C899.092 4024.59 892.221 4031.46 883.745 4031.46L748.231 4031.46C731.535 4031.46 718 4017.93 718 4001.23Z" fill="#4C4763"/>
<path d="M1799.09 4001.23C1799.09 3984.53 1785.56 3971 1768.86 3971L1618 3971L1618 4016.12C1618 4024.59 1624.87 4031.46 1633.35 4031.46L1768.86 4031.46C1785.56 4031.46 1799.09 4017.93 1799.09 4001.23Z" fill="#4C4763"/>
<path d="M1012.04 2645.64C1012.47 2640.67 1016.85 2636.98 1021.81 2637.41L1453.34 2674.81C1458.3 2675.24 1461.98 2679.62 1461.54 2684.59L1460.05 2701.73C1453.25 2707.84 1447.99 2719.85 1446.76 2734.02C1445.52 2748.18 1448.62 2760.92 1454.26 2768.11L1451.35 2801.48C1446.02 2805.36 1441.38 2813.34 1439.42 2823.12C1436.71 2836.62 1440.04 2848.93 1446.91 2852.42L1446.5 2857.05C1445.65 2866.88 1443.9 2876.42 1441.34 2885.59C1432.6 2883.28 1421.94 2890.98 1416.92 2903.55C1412.45 2914.74 1413.88 2926.22 1419.84 2931.68C1389.1 2976.5 1335.82 3003.94 1277.88 2998.92L1138.54 2986.85C1103.82 2983.84 1072.77 2969.64 1048.61 2948.1C1052.81 2941.92 1051.27 2930.21 1044.32 2919.59C1036.18 2907.13 1023.68 2900.9 1016.42 2905.67C1016.08 2905.89 1015.76 2906.13 1015.45 2906.39C1009.21 2894.98 1004.36 2882.73 1001.12 2869.88C1007.32 2867.27 1011.12 2857.43 1009.81 2846.28C1008.55 2835.48 1002.91 2826.98 996.529 2825.47C996.628 2823.02 996.785 2820.56 997 2818.1L999.493 2789.51C1004.34 2782.87 1008.05 2771.95 1009.14 2759.39C1010.24 2746.83 1008.47 2735.45 1004.85 2728.07L1012.04 2645.64Z" fill="#4C4763"/>
<path d="M1454.79 2708.06L1005.03 2728.35C1005.82 2729.99 1006.48 2731.81 1007.08 2733.79C1009.16 2740.77 1010 2749.71 1009.16 2759.34C1008.06 2771.91 1004.34 2782.84 999.478 2789.48L1455 2768.93C1448.92 2761.92 1445.49 2748.72 1446.77 2733.97C1447.66 2723.74 1450.65 2714.63 1454.79 2708.06Z" fill="#716B89"/>
<path d="M1001.19 2870.03C1001.18 2869.98 1001.17 2869.93 1001.16 2869.89C1007.36 2867.27 1011.15 2857.43 1009.85 2846.28C1008.59 2835.48 1002.95 2826.98 996.566 2825.47C996.572 2825.32 996.579 2825.16 996.585 2825.01L1448.67 2803.88C1444.52 2808.2 1441.07 2815.05 1439.46 2823.12C1436.75 2836.62 1440.07 2848.93 1446.95 2852.42L1446.93 2852.63L1001.19 2870.03Z" fill="#716B89"/>
<path d="M1048.66 2948.08C1052.84 2941.9 1051.3 2930.2 1044.36 2919.59C1038.03 2909.92 1029.09 2904 1022 2904.07L1022.02 2904.04L1434.38 2885.71C1427.52 2887.57 1420.68 2894.22 1416.96 2903.55C1412.51 2914.68 1413.91 2926.09 1419.78 2931.59L1048.66 2948.08Z" fill="#716B89"/>
<path d="M1441.43 2885.39L1440.69 2885.43C1440.92 2885.47 1441.15 2885.53 1441.38 2885.59C1441.4 2885.52 1441.41 2885.46 1441.43 2885.39Z" fill="#716B89"/>
<path d="M1187 194.333C1187 167.087 1209.09 145 1236.33 145H1507.67C1534.91 145 1557 167.087 1557 194.333V243.667C1557 270.913 1534.91 293 1507.67 293H1335V391.667H1431.2C1459.81 391.667 1483 414.858 1483 443.467V487.867C1483 516.475 1459.81 539.667 1431.2 539.667H1335V944.2H1187V194.333Z" fill="#EAA78A"/>
<mask id="mask1" mask-type="alpha" maskUnits="userSpaceOnUse" x="1187" y="145" width="370" height="800">
<path d="M1187 194.333C1187 167.087 1209.09 145 1236.33 145H1507.67C1534.91 145 1557 167.087 1557 194.333V243.667C1557 270.913 1534.91 293 1507.67 293H1335V391.667H1431.2C1459.81 391.667 1483 414.858 1483 443.467V487.867C1483 516.475 1459.81 539.667 1431.2 539.667H1335V944.2H1187V194.333Z" fill="#EAA78A"/>
</mask>
<g mask="url(#mask1)">
<rect x="1187" y="145" width="59.2" height="744.933" fill="#E07E54"/>
<path d="M1335 512.533C1335 500.273 1344.94 490.333 1357.2 490.333H1497.8V539.667H1335V512.533Z" fill="#E07E54"/>
<path d="M1335 268.333C1335 254.71 1346.04 243.667 1359.67 243.667H1566.87V293H1335V268.333Z" fill="#E07E54"/>
</g>
<path fill-rule="evenodd" clip-rule="evenodd" d="M1261 1462.2C1424.48 1462.2 1557 1329.68 1557 1166.2C1557 1002.72 1424.48 870.2 1261 870.2C1097.52 870.2 965 1002.72 965 1166.2C965 1329.68 1097.52 1462.2 1261 1462.2ZM1261 1264.87C1315.49 1264.87 1359.67 1220.69 1359.67 1166.2C1359.67 1111.71 1315.49 1067.53 1261 1067.53C1206.51 1067.53 1162.33 1111.71 1162.33 1166.2C1162.33 1220.69 1206.51 1264.87 1261 1264.87Z" fill="#EAA78A"/>
<path fill-rule="evenodd" clip-rule="evenodd" d="M1261 1333.93C1353.64 1333.93 1428.73 1258.84 1428.73 1166.2C1428.73 1073.56 1353.64 998.467 1261 998.467C1168.36 998.467 1093.27 1073.56 1093.27 1166.2C1093.27 1258.84 1168.36 1333.93 1261 1333.93ZM1261 1264.87C1315.49 1264.87 1359.67 1220.69 1359.67 1166.2C1359.67 1111.71 1315.49 1067.53 1261 1067.53C1206.51 1067.53 1162.33 1111.71 1162.33 1166.2C1162.33 1220.69 1206.51 1264.87 1261 1264.87Z" fill="#E07E54"/>
<ellipse rx="100.347" ry="100.488" transform="matrix(1 -0.000406112 -0.000405561 1 1183.84 1746.1)" fill="#F2F2F0"/>
<ellipse rx="100.347" ry="100.488" transform="matrix(1 -0.000406112 -0.000405561 1 1360.46 1746.07)" fill="#F2F2F0"/>
<ellipse rx="48.1667" ry="48.2344" transform="matrix(1 -0.000406112 -0.000405561 1 1363.97 1693.16)" fill="#4C4763"/>
<ellipse rx="48.1667" ry="48.2344" transform="matrix(1 -0.000406112 -0.000405561 1 1187.18 1690.79)" fill="#4C4763"/>
<path d="M1058.8 1794.87C1224.72 1761.09 1316.67 1760.97 1478.58 1794.7L1478.56 1853.98L1058.77 1854.15L1058.8 1794.87Z" fill="#F9DA94"/>
<path d="M1076.4 2675.87C598.635 2377.4 819.5 1582 1132 1387.5" stroke="#716B89" stroke-width="60.3639" stroke-linecap="round"/>
<path d="M1418.54 2717.66C1895.5 2460.5 1664 1654.5 1473.5 1390" stroke="#716B89" stroke-width="60.3639" stroke-linecap="round"/>
</svg>
