<svg xmlns="http://www.w3.org/2000/svg" width="19.724" height="20.803" viewBox="0 0 19.724 20.803"><g transform="translate(0 0)"><path d="M13.7,2.113a.7.7,0,0,0,.7-.7V.7A.7.7,0,1,0,13,.7v.7A.7.7,0,0,0,13.7,2.113Z" transform="translate(-3.842 0)" fill="#ffbd27"/><path d="M4.529,5.522a.7.7,0,0,0,.993-.993l-.5-.5a.7.7,0,0,0-.993.993Z" transform="translate(-1.141 -1.141)" fill="#ffbd27"/><path d="M1.409,13H.7a.7.7,0,1,0,0,1.409h.7a.7.7,0,1,0,0-1.409Z" transform="translate(0 -3.842)" fill="#ffbd27"/><path d="M4.516,21.706l-.5.5a.7.7,0,0,0,.916,1.064.4.4,0,0,0,.077-.077l.5-.5a.7.7,0,0,0-.993-.993Z" transform="translate(-1.128 -6.363)" fill="#ffbd27"/><path d="M22.7,21.709a.7.7,0,0,0-.993.993l.5.5a.7.7,0,0,0,.993-.993Z" transform="translate(-6.366 -6.366)" fill="#ffbd27"/><path d="M26.409,13h-.7a.7.7,0,1,0,0,1.409h.7a.7.7,0,1,0,0-1.409Z" transform="translate(-7.389 -3.842)" fill="#ffbd27"/><path d="M22.177,4.029l-.5.5A.7.7,0,1,0,22.592,5.6a.4.4,0,0,0,.077-.077l.5-.5a.7.7,0,0,0-.993-.993Z" transform="translate(-6.334 -1.141)" fill="#ffbd27"/><path d="M43.849,78.25h-4.29a.539.539,0,0,0,0,1.079h4.29a.539.539,0,0,0,0-1.079Z" transform="translate(-31.83 -61.572)" fill="#35124e"/><path d="M41.925,87.308v.3a.613.613,0,0,0,.611.613h.872a.613.613,0,0,0,.611-.611V87.32A1.33,1.33,0,0,0,45.274,86H40.79A1.33,1.33,0,0,0,41.925,87.308Z" transform="translate(-33.164 -67.413)" fill="#35124e"/><path d="M33.338,28.58a5.491,5.491,0,0,0-5.418,5.563,5.664,5.664,0,0,0,.4,2.088q.049.123.1.246a5.583,5.583,0,0,0,.931,1.433l1.377,2.115h5.226l1.377-2.115a5.583,5.583,0,0,0,.931-1.433q.054-.121.1-.246a5.664,5.664,0,0,0,.4-2.088A5.494,5.494,0,0,0,33.338,28.58Zm-.246,2.049a3.38,3.38,0,0,0-3.211,3.76.539.539,0,0,1-.539.529h0a.539.539,0,0,1-.529-.549,4.562,4.562,0,0,1,2.172-4.2,4.644,4.644,0,0,1,2.118-.608.539.539,0,0,1,0,1.079Z" transform="translate(-23.463 -24.133)" fill="#ffbd27"/></g></svg>