<svg xmlns="http://www.w3.org/2000/svg" width="10.84" height="16.356" viewBox="0 0 10.84 16.356"><path d="M43.849,78.25h-4.29a.539.539,0,0,0,0,1.079h4.29a.539.539,0,0,0,0-1.079Z" transform="translate(-36.287 -66.018)" fill="#c0b7c5"/><path d="M41.925,87.308v.3a.613.613,0,0,0,.611.613h.872a.613.613,0,0,0,.611-.611V87.32A1.33,1.33,0,0,0,45.274,86H40.79A1.33,1.33,0,0,0,41.925,87.308Z" transform="translate(-37.621 -71.86)" fill="#c0b7c5"/><path d="M33.338,28.58a5.491,5.491,0,0,0-5.418,5.563,5.664,5.664,0,0,0,.4,2.088q.049.123.1.246a5.583,5.583,0,0,0,.931,1.433l1.377,2.115h5.226l1.377-2.115a5.583,5.583,0,0,0,.931-1.433q.054-.121.1-.246a5.664,5.664,0,0,0,.4-2.088A5.494,5.494,0,0,0,33.338,28.58Zm-.246,2.049a3.38,3.38,0,0,0-3.211,3.76.539.539,0,0,1-.539.529h0a.539.539,0,0,1-.529-.549,4.562,4.562,0,0,1,2.172-4.2,4.644,4.644,0,0,1,2.118-.608.539.539,0,0,1,0,1.079Z" transform="translate(-27.92 -28.58)" fill="#c0b7c5"/></svg>