<?xml version="1.0" encoding="UTF-8"?>
<svg width="72px" height="76px" viewBox="0 0 72 76" version="1.1" xmlns="http://www.w3.org/2000/svg" xmlns:xlink="http://www.w3.org/1999/xlink">
    <!-- Generator: Sketch 61.2 (89653) - https://sketch.com -->
    <title>logo_icon</title>
    <desc>Created with Sketch.</desc>
    <g id="Page-1" stroke="none" stroke-width="1" fill="none" fill-rule="evenodd">
        <g id="logo_icon">
            <g id="stem" transform="translate(26.000000, 60.000000)" fill="#7A10CE">
                <path d="M8,16 C6.8954305,16 6,15.1045695 6,14 C6,12.8954305 6.8954305,12 8,12 L8,12 L12,12 C13.1045695,12 14,12.8954305 14,14 C14,15.1045695 13.1045695,16 12,16 L12,16 Z" id="Combined-Shape"></path>
                <path d="M1.85073766,3.99451426 C0.815877791,3.91816512 0,3.0543618 0,2 C0,0.8954305 0.8954305,0 2,0 L2,0 L18,0 C19.1045695,0 20,0.8954305 20,2 C20,3.1045695 19.1045695,4 18,4 L18,4 L2,4 Z" id="Combined-Shape"></path>
                <path d="M1.85073766,9.99451426 C0.815877791,9.91816512 0,9.0543618 0,8 C0,6.8954305 0.8954305,6 2,6 L2,6 L18,6 C19.1045695,6 20,6.8954305 20,8 C20,9.1045695 19.1045695,10 18,10 L18,10 L2,10 Z" id="Combined-Shape"></path>
            </g>
            <path d="M26.5810811,57 C34.3378378,57 37.6621622,57 45.4189189,57 C47.4116439,54.5090938 48.4558835,52.3841365 49.8513514,50.3513514 C53.1118072,45.6018286 55.3918919,41.4337297 55.3918919,34.8378378 C55.3918919,25.4189189 46.527027,16 36,16 C25.472973,16 16.6081081,24.3108108 16.6081081,34.8378378 C16.6081081,41.0015174 19.2228016,45.4788793 21.5945946,49.2432432 C23.2736172,51.9080846 24.2845824,54.0145517 26.5810811,57 Z" id="Path-3" fill="#FFC61E"></path>
            <g id="rays" fill="#FFC61E">
                <path d="M3,38 L3.00043449,37.9499027 C2.83874484,37.982754 2.67138643,38 2.5,38 C1.11928813,38 0,36.8807119 0,35.5 C0,34.1192881 1.11928813,33 2.5,33 C2.67138643,33 2.83874484,33.017246 3.00043449,33.0500973 L3,33 L7,33 L7.00043449,33.0500973 C8.14133817,33.2819003 9,34.2906746 9,35.5 C9,36.7093254 8.14133817,37.7180997 7.00043449,37.9499027 L7,38 L3,38 Z" id="Combined-Shape"></path>
                <path d="M66,38 L66.0004345,37.9499027 C65.8387448,37.982754 65.6713864,38 65.5,38 C64.1192881,38 63,36.8807119 63,35.5 C63,34.1192881 64.1192881,33 65.5,33 C65.6713864,33 65.8387448,33.017246 66.0004345,33.0500973 L66,33 L70,33 L70.0004345,33.0500973 C71.1413382,33.2819003 72,34.2906746 72,35.5 C72,36.7093254 71.1413382,37.7180997 70.0004345,37.9499027 L70,38 L66,38 Z" id="Combined-Shape"></path>
                <path d="M12,15 L12.0004345,14.9499027 C11.8387448,14.982754 11.6713864,15 11.5,15 C10.1192881,15 9,13.8807119 9,12.5 C9,11.1192881 10.1192881,10 11.5,10 C11.6713864,10 11.8387448,10.017246 12.0004345,10.0500973 L12,10 L16,10 L16.0004345,10.0500973 C17.1413382,10.2819003 18,11.2906746 18,12.5 C18,13.7093254 17.1413382,14.7180997 16.0004345,14.9499027 L16,15 L12,15 Z" id="Combined-Shape" transform="translate(13.500000, 12.500000) rotate(45.000000) translate(-13.500000, -12.500000) "></path>
                <path d="M57,60 L57.0004345,59.9499027 C56.8387448,59.982754 56.6713864,60 56.5,60 C55.1192881,60 54,58.8807119 54,57.5 C54,56.1192881 55.1192881,55 56.5,55 C56.6713864,55 56.8387448,55.017246 57.0004345,55.0500973 L57,55 L61,55 L61.0004345,55.0500973 C62.1413382,55.2819003 63,56.2906746 63,57.5 C63,58.7093254 62.1413382,59.7180997 61.0004345,59.9499027 L61,60 L57,60 Z" id="Combined-Shape" transform="translate(58.500000, 57.500000) rotate(45.000000) translate(-58.500000, -57.500000) "></path>
                <path d="M57,15 L57.0004345,14.9499027 C56.8387448,14.982754 56.6713864,15 56.5,15 C55.1192881,15 54,13.8807119 54,12.5 C54,11.1192881 55.1192881,10 56.5,10 C56.6713864,10 56.8387448,10.017246 57.0004345,10.0500973 L57,10 L61,10 L61.0004345,10.0500973 C62.1413382,10.2819003 63,11.2906746 63,12.5 C63,13.7093254 62.1413382,14.7180997 61.0004345,14.9499027 L61,15 L57,15 Z" id="Combined-Shape" transform="translate(58.500000, 12.500000) rotate(-45.000000) translate(-58.500000, -12.500000) "></path>
                <path d="M12,60 L12.0004345,59.9499027 C11.8387448,59.982754 11.6713864,60 11.5,60 C10.1192881,60 9,58.8807119 9,57.5 C9,56.1192881 10.1192881,55 11.5,55 C11.6713864,55 11.8387448,55.017246 12.0004345,55.0500973 L12,55 L16,55 L16.0004345,55.0500973 C17.1413382,55.2819003 18,56.2906746 18,57.5 C18,58.7093254 17.1413382,59.7180997 16.0004345,59.9499027 L16,60 L12,60 Z" id="Combined-Shape" transform="translate(13.500000, 57.500000) rotate(-45.000000) translate(-13.500000, -57.500000) "></path>
                <path d="M35,7 L35.0004345,6.94990271 C34.8387448,6.98275399 34.6713864,7 34.5,7 C33.1192881,7 32,5.88071187 32,4.5 C32,3.11928813 33.1192881,2 34.5,2 C34.6713864,2 34.8387448,2.01724601 35.0004345,2.05009729 L35,2 L39,2 L39.0004345,2.05009729 C40.1413382,2.28190033 41,3.29067455 41,4.5 C41,5.70932545 40.1413382,6.71809967 39.0004345,6.94990271 L39,7 L35,7 Z" id="Combined-Shape" transform="translate(36.500000, 4.500000) rotate(90.000000) translate(-36.500000, -4.500000) "></path>
            </g>
        </g>
    </g>
</svg>