<svg xmlns="http://www.w3.org/2000/svg" width="64.516" height="82.767" viewBox="0 0 64.516 82.767"><defs><style>.a{fill:#fff;opacity:0.72;}.b{fill:#512b80;}.c{fill:#75cabd;}.d{fill:#26b6ea;}.e{fill:#2dbaec;}.f{fill:#ebf7fb;}.g{fill:#f16a88;}.h{fill:#f16988;}.i,.k{fill:#fbcf7e;}.j{fill:#faebf3;}.k{stroke:#512b80;stroke-miterlimit:10;stroke-width:3px;}</style></defs><g transform="translate(0.004 0.001)"><path class="a" d="M288.014,164.106a9.754,9.754,0,0,0-3.261-.547H248.066a9.756,9.756,0,0,0-3.267.547c-7.872,2.787-7.783,8.36-7.781,8.416v37.364c0,.225,0,.45.009.666.181,6.259,3.184,12.178,8.925,17.592a80.481,80.481,0,0,0,8.4,6.708c.675.487,1.349,1,1.995,1.5,2.23,1.708,4.336,3.324,6.9,3.957a9.972,9.972,0,0,0,2.382.292c.263,0,.525-.011.787-.031.26.02.521.031.787.031a9.979,9.979,0,0,0,2.383-.292c2.56-.632,4.665-2.249,6.895-3.956.648-.5,1.317-1.012,2-1.5a80.6,80.6,0,0,0,8.4-6.708c5.735-5.414,8.744-11.332,8.923-17.592.007-.225.01-.444.01-.666V172.522C295.8,172.466,295.892,166.892,288.014,164.106Z" transform="translate(-234.156 -160.695)"/><path class="b" d="M266.355,138.79a12.6,12.6,0,0,0-4.222-.711H225.45a12.6,12.6,0,0,0-4.222.711c-9.608,3.4-9.7,10.56-9.691,11.18v37.3q0,.374.01.749c.2,7.047,3.508,13.638,9.823,19.593a83.287,83.287,0,0,0,8.7,6.954c.64.459,1.29.956,1.918,1.438,2.362,1.813,4.811,3.689,7.952,4.465a12.8,12.8,0,0,0,3.069.376c.264,0,.525-.01.787-.026.26.016.521.026.787.026a12.809,12.809,0,0,0,3.07-.376c3.14-.776,5.586-2.652,7.952-4.465.629-.482,1.278-.979,1.919-1.438a83.287,83.287,0,0,0,8.7-6.954c6.314-5.96,9.62-12.547,9.823-19.593q.01-.375.01-.749v-37.3C276.055,149.35,275.962,142.188,266.355,138.79Zm6.826,11.117v37.364c0,.225,0,.45-.01.666-.18,6.259-3.183,12.178-8.923,17.592a80.6,80.6,0,0,1-8.4,6.708c-.675.487-1.349,1-2,1.5-2.23,1.708-4.336,3.324-6.9,3.957a9.979,9.979,0,0,1-2.383.292c-.263,0-.524-.011-.787-.031-.259.02-.521.031-.787.031a9.971,9.971,0,0,1-2.375-.292c-2.56-.632-4.666-2.249-6.9-3.956-.647-.5-1.316-1.012-1.995-1.5a80.483,80.483,0,0,1-8.4-6.708c-5.735-5.414-8.743-11.332-8.925-17.592,0-.225-.009-.444-.009-.666V149.907c0-.056-.1-5.63,7.781-8.416a9.755,9.755,0,0,1,3.267-.547h36.682a9.753,9.753,0,0,1,3.261.547c7.882,2.787,7.789,8.36,7.786,8.416Z" transform="translate(-211.54 -138.08)"/><path class="b" d="M364.276,290.106a8.261,8.261,0,0,0-4.214-7.473,15.409,15.409,0,0,1-2.329-1.555c-1.818-1.486-5.276-4.087-7.613-4.469,0,0,4.739-10.078,13.256-10.379,0,0,1.1,8.414,1.5,9.763l1.709.1.54.03.27.509s-2.729.217-3.059.214a11.356,11.356,0,0,0-1.6.536,11.878,11.878,0,0,0-2.055,1.229c-.27.209-1.59,1.532-1.59,1.532s-.509.689-.329,1.02.509.4,1.08.157a6.156,6.156,0,0,1,1.37-1.473c.525-.254,1.642-2.271,6.817-1.462,0,0,3.541.391,5.19,5.206,0,0-1.012-.136-5.4,2.909a12.042,12.042,0,0,0-2.5,2.314Z" transform="translate(-334.539 -251.82)"/><path class="b" d="M289,307.905a2.751,2.751,0,0,1,2.236-1.6c.225-1.853,1.862-3.2,3.493-4.106s3.449-1.649,4.6-3.118c-2.483-2.21-5.017-4.481-6.6-7.4s-2.059-6.673-.337-9.519a6.469,6.469,0,0,0,1.06-2.052,5.144,5.144,0,0,0-.112-1.76,16.4,16.4,0,0,1,.144-6.073,6.106,6.106,0,0,1,.469-1.462,7.522,7.522,0,0,1,.928-1.33c2.4-2.962,4.68-6.163,7.95-8.241a19.247,19.247,0,0,1,12.211-2.505,20.987,20.987,0,0,1,3.241.606,23.479,23.479,0,0,1,14.5,11.646,46.385,46.385,0,0,1,2.98,7.943,4.18,4.18,0,0,1,.274,1.852,1.428,1.428,0,0,1-1.2,1.266,19.977,19.977,0,0,1-5.762,22.379,1.69,1.69,0,0,1-.2,1.976,4.937,4.937,0,0,1-1.741,1.2l-6.707,3.329c2.129,2.005,2.011,5.363,1.735,8.273a4.9,4.9,0,0,1-.351,1.641,3.959,3.959,0,0,1-1,1.213,11.952,11.952,0,0,1-14.394.838c-1.366-.96-2.508-2.2-3.823-3.235-2.071-1.632-4.522-2.709-6.707-4.188A21.79,21.79,0,0,1,289,307.905Z" transform="translate(-280.292 -245.052)"/><path class="b" d="M304.323,317.942a12.562,12.562,0,0,1-7.183-2.2,23.848,23.848,0,0,1-2.293-1.912c-.532-.481-1.033-.937-1.568-1.357a29.953,29.953,0,0,0-3.758-2.4c-.958-.548-1.949-1.113-2.891-1.751a22.784,22.784,0,0,1-7.2-7.915l-.233-.426.195-.45A3.735,3.735,0,0,1,281.7,297.5c.45-1.574,1.741-2.958,3.846-4.132.337-.188.681-.368,1.012-.543a13.514,13.514,0,0,0,2.65-1.651,27.291,27.291,0,0,1-6.052-6.991c-1.523-2.811-2.407-7.042-.318-10.5.1-.165.207-.328.314-.493a2.44,2.44,0,0,0,.534-2.443l-.035-.2a17.267,17.267,0,0,1,.152-6.443,7.067,7.067,0,0,1,.552-1.7,8.444,8.444,0,0,1,1.044-1.511q.506-.628,1.012-1.265c2.079-2.613,4.23-5.316,7.175-7.188a19.255,19.255,0,0,1,10.367-2.788,23.121,23.121,0,0,1,2.474.133,21.951,21.951,0,0,1,3.4.635,24.567,24.567,0,0,1,15.116,12.145,47.3,47.3,0,0,1,3.049,8.11,5.05,5.05,0,0,1,.3,2.3,2.681,2.681,0,0,1-.927,1.635,21.063,21.063,0,0,1-5.832,22.156,2.824,2.824,0,0,1-.607,2.3,5.8,5.8,0,0,1-2.073,1.471l-5.583,2.772c1.679,2.529,1.349,6.034,1.158,8.037a5.664,5.664,0,0,1-.444,1.974,4.948,4.948,0,0,1-1.229,1.526A12.709,12.709,0,0,1,304.323,317.942Zm-22.877-17.98a20.819,20.819,0,0,0,6.3,6.734c.881.6,1.838,1.143,2.764,1.671a31.673,31.673,0,0,1,4,2.559c.588.463,1.139.963,1.672,1.446a23.021,23.021,0,0,0,2.1,1.757,10.586,10.586,0,0,0,6.043,1.835,10.778,10.778,0,0,0,7.121-2.6,3.151,3.151,0,0,0,.761-.9,4.2,4.2,0,0,0,.26-1.308c.258-2.716.38-5.757-1.428-7.459l-1.036-.975,7.984-3.961a4.209,4.209,0,0,0,1.408-.937.769.769,0,0,0,.168-.777l-.55-.758.728-.59a19.079,19.079,0,0,0,5.469-21.244l-.522-1.286,1.387-.073a.552.552,0,0,0,.275-.432,3.458,3.458,0,0,0-.242-1.407,45.726,45.726,0,0,0-2.911-7.775,22.532,22.532,0,0,0-13.877-11.149,20.12,20.12,0,0,0-3.089-.578,21.252,21.252,0,0,0-2.268-.121,17.524,17.524,0,0,0-9.306,2.474c-2.664,1.695-4.71,4.264-6.687,6.747-.337.43-.682.857-1.025,1.28a6.639,6.639,0,0,0-.811,1.15,5.285,5.285,0,0,0-.388,1.228,15.541,15.541,0,0,0-.134,5.708l.033.195a4.287,4.287,0,0,1-.829,3.858c-.093.143-.188.287-.276.432-1.656,2.745-.9,6.21.364,8.537,1.513,2.808,3.988,5.012,6.382,7.14l.694.618-.574.732a11.384,11.384,0,0,1-3.928,2.853c-.337.177-.656.343-.969.518-1.839,1.026-2.845,2.157-2.992,3.362l-.1.8-.8.069A1.778,1.778,0,0,0,281.446,299.962Z" transform="translate(-271.595 -237.095)"/><path class="c" d="M453.73,651.5a24.456,24.456,0,0,1,1.125,3.958s6.569,5.8,13.137,2.97a33.019,33.019,0,0,1-6.109-1.062,15.463,15.463,0,0,1-3.868-2.043,17.125,17.125,0,0,1-3.392-2.755A12.591,12.591,0,0,1,453.73,651.5Z" transform="translate(-426.498 -593.763)"/><path class="d" d="M362.588,403.712a3.613,3.613,0,0,0-.806.28,10.339,10.339,0,0,1-2.282.368,14.065,14.065,0,0,1-7.782-2.075,17.458,17.458,0,0,1-8.517-11.031c-.421-1.8-.476-3.767-1.665-5.3L332,376v-1.38l9.958,8.578s1.56.54,2.039-.66a19.3,19.3,0,0,0,.3-4.124s.54-2.527-1.192-3.794c0,0-7.581-5.7-9.47-7,0,0-.968-.022-1.125,0l.721-1.094a15.806,15.806,0,0,1,2.549,1.529s7.2,4.978,8.158,5.759a7.349,7.349,0,0,1,2.43,6.839l.045.824a2.091,2.091,0,0,1-.182.531,12.571,12.571,0,0,0-.374,1.585,19.6,19.6,0,0,0,.964,9.19,15.43,15.43,0,0,0,3.374,5.088,17.6,17.6,0,0,0,5.374,3.6S359.889,403.532,362.588,403.712Z" transform="translate(-318.457 -340.831)"/><path class="e" d="M336.25,384.357s.3-.54,1.049,0l5.939,4.319,3,2.069a3.064,3.064,0,0,1,1.17,2.13l-.329,4.679a.741.741,0,0,1-1.02.479l-1.259-1.139s.509-.78.39-1.17a32.854,32.854,0,0,0,0-3.839s-3.533-2.751-8.339-6.389l-.6-.061Z" transform="translate(-322.229 -356.449)"/><path class="c" d="M342.806,359.609s-.245-1.186,1.284-.8l7.2,4.846s4.08,2.61,4.98,4.289a6.635,6.635,0,0,1-.285,6.614s-.257-4.439-1.3-6.339a2.178,2.178,0,0,0-.623-.708C352.453,366.321,343.644,359.888,342.806,359.609Z" transform="translate(-328.035 -333.92)"/><path class="e" d="M488.1,427.4a1.071,1.071,0,0,0,.509-.287,1.309,1.309,0,0,0-.235-1.8,3.753,3.753,0,0,0-1.875-.715c-7.169-1.309-15.139-1.838-21.068,3.2-2.673,2.271-3.91,6.482-3.889,9.9a14.844,14.844,0,0,0,3.705,9.662c3.149,3.542,7.831,5.365,12.5,6.168a5.444,5.444,0,0,0,2.29.043,2.07,2.07,0,0,0,1.574-1.515,26.367,26.367,0,0,1-12.05-4.674,12.189,12.189,0,0,1-3.261-3.188,10.636,10.636,0,0,1-1.317-3.149,13.545,13.545,0,0,1-.075-6.8A10.369,10.369,0,0,1,468.6,428.6c2.9-2.182,6.79-2.461,10.413-2.269a51.307,51.307,0,0,1,7.766,1.012A3.058,3.058,0,0,0,488.1,427.4Z" transform="translate(-433.436 -391.589)"/><path class="c" d="M506.4,442.24a1.522,1.522,0,0,0,.938-1.1,43.387,43.387,0,0,0-11.68-1.021c-3.387.052-7.02.7-9.559,2.935a11.337,11.337,0,0,0-3.319,5.583,14.63,14.63,0,0,0,.263,7.879c1,3.393,4.115,5.735,7.17,7.535,2.963,1.749,6.131,2.445,9.6,3.206.65-.6.165-.843-.318-1-6.337-2.089-14.235-4.595-15.554-12.174a11.943,11.943,0,0,1,.8-6.777,10.15,10.15,0,0,1,3.862-4.594,12.9,12.9,0,0,1,7.085-1.668,45.333,45.333,0,0,1,9.12,1.1,4,4,0,0,0,1.3.155A1.7,1.7,0,0,0,506.4,442.24Z" transform="translate(-451.903 -406.141)"/><path class="c" d="M442.086,368.41l1.081-.27a18.554,18.554,0,0,0-.971-2.191,8.049,8.049,0,0,0-3.7-3.317,9.022,9.022,0,0,0-5.489-.675,7.929,7.929,0,0,0-3.676,1.941c-.168.152-1.863,1.655-1.581,1.87l.63.479a21.244,21.244,0,0,1,2.164-1.976,6.575,6.575,0,0,1,4.691-1.367,7.476,7.476,0,0,1,6.247,3.889A11.391,11.391,0,0,1,442.086,368.41Z" transform="translate(-403.411 -336.633)"/><path class="e" d="M255.6,129.472l1.439-.112,1.623,9.717-1.532.09Z" transform="translate(-226.859 -114.813)"/><path class="e" d="M489.76,266.354l1.662,9.808a9.626,9.626,0,0,1,7.783,6.972h7.829s-.991-10.212-6.522-14.531C500.511,268.6,494.6,265.544,489.76,266.354Z" transform="translate(-458.476 -251.808)"/><path class="c" d="M591.884,301.962l3.764.45s-.93-10.377-10.287-14.981C585.36,287.431,590.848,294.344,591.884,301.962Z" transform="translate(-543.325 -270.635)"/><path class="f" d="M598.59,294.74a22.913,22.913,0,0,1,8.8,14.161l1.589.315S606.733,297.406,598.59,294.74Z" transform="translate(-555.067 -277.123)"/><path class="c" d="M610.576,444.576l3.347.6s5.761,16.125-6.538,24.4a17.562,17.562,0,0,1-3.355-.865c1.709.655,3.472-1.372,3.739-2.444.245-.981.892-1.867,1.2-2.863.317-1.045.626-2.094.84-3.164.513-2.564.18-5.336,1.012-7.852a9.764,9.764,0,0,0,.82-2.284,10.542,10.542,0,0,0-.345-2.6c-.168-.913-4.723-3.424-5.655-3.771C605.384,443.648,610.88,444.623,610.576,444.576Z" transform="translate(-559.895 -409.359)"/><path class="b" d="M515.334,450.53a4.294,4.294,0,0,0-2.024-.809A20.19,20.19,0,0,0,501.03,451.1c-3.338,1.59-4.911,5.308-4.942,8.872a11.479,11.479,0,0,0,1.105,5.108c2.283,4.684,7.49,7.457,12.306,8.659.373.093,1.937-1.1,2.172-1.382a7.078,7.078,0,0,0,1.012-2.129c.291-.829.461-1.724.813-2.528.318-.725.877-1.328,1.137-2.08.53-1.532-.1-3.23.1-4.806C515.054,458.189,517.954,452.7,515.334,450.53Z" transform="translate(-464.09 -414.341)"/><path class="g" d="M189.79,311.39l.791.659v3.9h-.791Z" transform="translate(-168.45 -276.373)"/><path class="h" d="M176.72,302.32l.72.48v4.048l-.72-.36Z" transform="translate(-156.85 -268.323)"/><path class="h" d="M160.839,291.92l.87.479.119,3.99-1.109-.57Z" transform="translate(-142.649 -259.093)"/><path class="h" d="M148.45,282.58l.869.48.12,3.817-.99-.7Z" transform="translate(-131.759 -250.803)"/><path class="h" d="M135.38,272.98l.66.45v3.3l-.66-.3Z" transform="translate(-120.159 -242.282)"/><path class="h" d="M124.71,265.25l.48.24v3.33l-.48-.39Z" transform="translate(-110.689 -235.422)"/><path class="h" d="M329.519,473.87s7.174,7.828,7.623,8.278c0,0,.071.54-.865.63l-5.043,1.439s-3.63-3.284-3.585-6.164C327.649,478.053,327.074,474.995,329.519,473.87Z" transform="translate(-314.543 -436.109)"/><path class="d" d="M152.58,422.589l.832,1.012,5.916-1.619-.742-.941Z" transform="translate(-135.425 -373.692)"/><path class="i" d="M152.58,447.55l1.125,1.125,2.31-1.664Z" transform="translate(-135.425 -396.742)"/><path class="i" d="M167.85,451.124l.728.9,3-1.934-.866-1.08Z" transform="translate(-148.977 -398.517)"/><path class="i" d="M182.59,467.48l.45.855,3.284-1.486-.99-1.439Z" transform="translate(-162.06 -413.072)"/><path class="i" d="M192.72,487.409l.45,1.14,3.359-1.14-.839-1.589Z" transform="translate(-171.051 -431.187)"/><path class="i" d="M201,509.009l.449.9,3.269-.9-.54-1.319Z" transform="translate(-178.4 -450.598)"/><path class="i" d="M207.66,530.9v.84h3.569v-1.65Z" transform="translate(-184.311 -470.479)"/><path class="i" d="M207.66,554.09v.811l3.569.3v-1.11Z" transform="translate(-184.311 -491.78)"/><path class="i" d="M207.66,570.36v.93l2.969,1.11.45-1.619Z" transform="translate(-184.311 -506.22)"/><path class="i" d="M198.389,586.37l-.6.72,2.895,1.769.855-1.245Z" transform="translate(-175.551 -520.43)"/><path class="i" d="M188.59,600.171l2.294,2.856,1.237-1.428-2.991-1.969Z" transform="translate(-167.385 -532.199)"/><path class="i" d="M173.78,612.4l.946-.765,2.249,2.587-.967,1.012Z" transform="translate(-154.241 -542.858)"/><path class="i" d="M157.78,623.137l.9-.7,2.183,3.014Z" transform="translate(-140.04 -552.443)"/><path class="d" d="M360.52,626.005l2.789-2.115s3.735,5.159,2.7,9.508Z" transform="translate(-343.77 -569.258)"/><path class="d" d="M325.71,659.92s4.409-1.125,6.972,2.024l-3.059-4.454S326.79,658.526,325.71,659.92Z" transform="translate(-312.874 -599.08)"/><path class="d" d="M314.91,720.338l1.995,1.8,1.709-1.619S317.519,718.911,314.91,720.338Z" transform="translate(-303.289 -654.336)"/><path class="j" d="M309.84,712.674l.57.695s5.474-2.49,4.649,3.645c0,0,.773,1.26,1.11-.62,0,0,.8-3.925-3.165-4.577A4.5,4.5,0,0,0,309.84,712.674Z" transform="translate(-298.789 -647.264)"/><path class="h" d="M337.188,687.64l-.138,1.741s4.5.328,4.228,5.458l3.12-3.06-4.012-3.985Z" transform="translate(-322.939 -625.839)"/><path class="h" d="M209.047,646.64v3.179l-1.387-.779v-1.23Z" transform="translate(-184.311 -573.922)"/><path class="d" d="M450.93,758.72v7.963l1.275.63v-6.883S451.425,758.72,450.93,758.72Z" transform="translate(-424.012 -688.926)"/><path class="c" d="M457.06,749.472H455.53v-4.86a12.947,12.947,0,0,0-.188-3.2c-.214-.841-.667-1.822-1.613-2,0,0,.211-1.586.96-1.7.07-.01.273.184.324.225a5.839,5.839,0,0,1,.756.675c1.7,1.809,1.29,4.5,1.29,6.788Z" transform="translate(-426.497 -670.276)"/><path class="d" d="M489.61,799.1v4.8h.81v-2.67s-.09-1.02,1.319-1.14l7.889.03V798.86Z" transform="translate(-458.343 -724.552)"/><path class="i" d="M504.64,815.13l-.9.839v2.49l3.149-.27a16.621,16.621,0,0,0,4.739-3.059Z" transform="translate(-470.884 -738.992)"/><path class="c" d="M524.81,724.44v7.529h5.16V728.6a2.644,2.644,0,0,0-.072-1.2,6.812,6.812,0,0,0-.811-1.113,3.779,3.779,0,0,0-2.257-1.574Z" transform="translate(-489.584 -658.501)"/><path class="d" d="M462.645,698.505a16.947,16.947,0,0,1-.374,3.69s3.606,1.38,3.254,6.747h3.958v-7.5s-3.726-.809-4.711-1.687a5.181,5.181,0,0,0-.675-.5C463.543,698.9,462.76,698.429,462.645,698.505Z" transform="translate(-434.077 -635.475)"/><path class="j" d="M542,726.245a8.544,8.544,0,0,1,2.118,1.564,3.532,3.532,0,0,1,1,1.266,3.319,3.319,0,0,1,.112,1.055l-.008,3.4h.9q0-1.626.008-3.251a4.312,4.312,0,0,0-.464-2.619,3.008,3.008,0,0,0-1.037-1.222C543.843,726,542.848,726.3,542,726.245Z" transform="translate(-504.841 -660.057)"/><circle class="i" cx="0.78" cy="0.78" r="0.78" transform="translate(28.208 28.913)"/><path class="e" d="M474.16,388.734s-.457-3-2.16-3.748c0,0,2.924-1.695.3-3.389a3.712,3.712,0,0,1,4.109-.57s2.249.538,3.989,3.658v.661S475.839,386.485,474.16,388.734Z" transform="translate(-442.713 -353.358)"/><circle class="k" cx="1.2" cy="1.2" r="1.2" transform="translate(31.343 28.493)"/><path class="f" d="M636.844,454.61s5.51,14.793-5.884,24.4l.675.214s12.009-7.472,6.185-24.394Z" transform="translate(-583.797 -419.015)"/></g></svg>