<?xml version="1.0" encoding="UTF-8"?>
<svg width="282px" height="28px" viewBox="0 0 282 28" version="1.1" xmlns="http://www.w3.org/2000/svg" xmlns:xlink="http://www.w3.org/1999/xlink">
    <!-- Generator: Sketch 61.2 (89653) - https://sketch.com -->
    <title>logo_text</title>
    <desc>Created with Sketch.</desc>
    <g id="Page-1" stroke="none" stroke-width="1" fill="none" fill-rule="evenodd">
        <g id="logo_text" transform="translate(0.458496, 0.083008)" fill-rule="nonzero">
            <path d="M12.815918,27.9169922 C14.3520508,27.9169922 16.065918,27.6630859 17.9575195,27.1552734 C19.3413086,26.7871094 20.6362305,26.0476074 21.8422852,24.9367676 C23.0483398,23.8259277 23.9909668,22.4484863 24.670166,20.8044434 C25.3493652,19.1604004 25.6889648,16.8466797 25.6889648,13.8632812 C25.6889648,11.9589844 25.4604492,10.15625 25.003418,8.45507812 C24.5463867,6.75390625 23.8100586,5.26220703 22.7944336,3.97998047 C21.7788086,2.69775391 20.4934082,1.71386719 18.9382324,1.02832031 C17.3830566,0.342773438 15.3422852,0 12.815918,0 L12.815918,0 L0,0 L0,27.9169922 L12.815918,27.9169922 Z M10.7402344,21.5756836 L8.62646484,21.5756836 L8.62646484,6.32226562 L10.7783203,6.32226562 C13.0126953,6.32226562 14.6123047,6.86816406 15.5771484,7.95996094 C16.5419922,9.05175781 17.0244141,11.0766602 17.0244141,14.034668 C17.0244141,16.269043 16.8085938,17.8845215 16.3769531,18.8811035 C15.9453125,19.8776855 15.3486328,20.5759277 14.5869141,20.9758301 C13.8251953,21.3757324 12.5429688,21.5756836 10.7402344,21.5756836 L10.7402344,21.5756836 Z M41.0439453,27.9169922 L42.3959961,23.3085938 L52.222168,23.3085938 L53.5932617,27.9169922 L62.6196289,27.9169922 L52.1269531,0 L42.7197266,0 L32.2270508,27.9169922 L41.0439453,27.9169922 Z M50.4130859,17.2719727 L44.262207,17.2719727 L47.328125,7.23632812 L50.4130859,17.2719727 Z M80.8691406,27.9169922 L80.8691406,0 L72.2236328,0 L72.2236328,27.9169922 L80.8691406,27.9169922 Z M115.647949,27.9169922 L115.647949,21.0424805 L102.18457,21.0424805 L102.18457,0 L93.5581055,0 L93.5581055,27.9169922 L115.647949,27.9169922 Z M139.762695,27.9169922 L139.762695,16.2246094 L150.617188,0 L141.095703,0 L135.458984,9.42626953 L129.822266,0 L120.243652,0 L131.117188,16.2246094 L131.117188,27.9169922 L139.762695,27.9169922 Z" id="DAILY" fill="#7A10CE"></path>
            <path d="M168.885742,27.9169922 L168.885742,0 L160.240234,0 L160.240234,27.9169922 L168.885742,27.9169922 Z M194.504883,27.9169922 C196.041016,27.9169922 197.754883,27.6630859 199.646484,27.1552734 C201.030273,26.7871094 202.325195,26.0476074 203.53125,24.9367676 C204.737305,23.8259277 205.679932,22.4484863 206.359131,20.8044434 C207.03833,19.1604004 207.37793,16.8466797 207.37793,13.8632812 C207.37793,11.9589844 207.149414,10.15625 206.692383,8.45507812 C206.235352,6.75390625 205.499023,5.26220703 204.483398,3.97998047 C203.467773,2.69775391 202.182373,1.71386719 200.627197,1.02832031 C199.072021,0.342773438 197.03125,0 194.504883,0 L194.504883,0 L181.688965,0 L181.688965,27.9169922 L194.504883,27.9169922 Z M192.429199,21.5756836 L190.31543,21.5756836 L190.31543,6.32226562 L192.467285,6.32226562 C194.70166,6.32226562 196.30127,6.86816406 197.266113,7.95996094 C198.230957,9.05175781 198.713379,11.0766602 198.713379,14.034668 C198.713379,16.269043 198.497559,17.8845215 198.065918,18.8811035 C197.634277,19.8776855 197.037598,20.5759277 196.275879,20.9758301 C195.51416,21.3757324 194.231934,21.5756836 192.429199,21.5756836 L192.429199,21.5756836 Z M241.928223,27.9169922 L241.928223,21.5947266 L227.036621,21.5947266 L227.036621,16.0913086 L240.461914,16.0913086 L240.461914,10.3974609 L227.036621,10.3974609 L227.036621,5.96044922 L241.509277,5.96044922 L241.509277,0 L218.391113,0 L218.391113,27.9169922 L241.928223,27.9169922 Z M259.073242,27.9169922 L260.425293,23.3085938 L270.251465,23.3085938 L271.622559,27.9169922 L280.648926,27.9169922 L270.15625,0 L260.749023,0 L250.256348,27.9169922 L259.073242,27.9169922 Z M268.442383,17.2719727 L262.291504,17.2719727 L265.357422,7.23632812 L268.442383,17.2719727 Z" id="IDEA" fill="#FFC61E"></path>
        </g>
    </g>
</svg>