<svg width="29" height="24" viewBox="0 0 29 24" fill="none" xmlns="http://www.w3.org/2000/svg">
<path fill-rule="evenodd" clip-rule="evenodd" d="M27.5 1H13.5V22.382L19.6056 19.3292C20.1686 19.0477 20.8314 19.0477 21.3944 19.3292L27.5 22.382V1ZM13.5 0C12.9477 0 12.5 0.447716 12.5 1V22.382C12.5 23.1253 13.2823 23.6088 13.9472 23.2764L20.0528 20.2236C20.3343 20.0828 20.6657 20.0828 20.9472 20.2236L27.0528 23.2764C27.7177 23.6088 28.5 23.1253 28.5 22.382V1C28.5 0.447715 28.0523 0 27.5 0H13.5Z" fill="#5BA837"/>
<path fill-rule="evenodd" clip-rule="evenodd" d="M4.5 7.5C4.77614 7.5 5 7.72386 5 8L5 16C5 16.2761 4.77614 16.5 4.5 16.5C4.22386 16.5 4 16.2761 4 16L4 8C4 7.72386 4.22386 7.5 4.5 7.5Z" fill="#5BA837"/>
<path fill-rule="evenodd" clip-rule="evenodd" d="M9 12C9 12.2761 8.77614 12.5 8.5 12.5H0.5C0.223857 12.5 -1.20697e-08 12.2761 0 12C1.20715e-08 11.7239 0.223857 11.5 0.5 11.5H8.5C8.77614 11.5 9 11.7239 9 12Z" fill="#5BA837"/>
</svg>
