<svg width="24" height="24" viewBox="0 0 24 24" fill="none" xmlns="http://www.w3.org/2000/svg">
<path fill-rule="evenodd" clip-rule="evenodd" d="M8.5 1C8.22386 1 8 1.22386 8 1.5V3H7V1.5C7 0.671573 7.67157 0 8.5 0H15.5C16.3284 0 17 0.671573 17 1.5V3H16V1.5C16 1.22386 15.7761 1 15.5 1H8.5Z" fill="#5BA837"/>
<path fill-rule="evenodd" clip-rule="evenodd" d="M0.5 3.5C0.5 3.22386 0.723858 3 1 3H22.9993C23.2755 3 23.4993 3.22386 23.4993 3.5C23.4993 3.77614 23.2755 4 22.9993 4H1C0.723858 4 0.5 3.77614 0.5 3.5Z" fill="#5BA837"/>
<path fill-rule="evenodd" clip-rule="evenodd" d="M3.90548 21.6244L3.00049 3.52455L3.99924 3.47461L4.90423 21.5745C4.94415 22.3728 5.60305 22.9996 6.40236 22.9996H17.5974C18.3967 22.9996 19.0556 22.3728 19.0955 21.5745L20.0005 3.47461L20.9992 3.52455L20.0942 21.6244C20.0277 22.9549 18.9296 23.9996 17.5974 23.9996H6.40236C5.07018 23.9996 3.97201 22.9549 3.90548 21.6244Z" fill="#5BA837"/>
<path fill-rule="evenodd" clip-rule="evenodd" d="M9.5 5.5C9.77614 5.5 10 5.72386 10 6V20C10 20.2761 9.77614 20.5 9.5 20.5C9.22386 20.5 9 20.2761 9 20V6C9 5.72386 9.22386 5.5 9.5 5.5Z" fill="#5BA837"/>
<path fill-rule="evenodd" clip-rule="evenodd" d="M15.5 5.5C15.7761 5.5 16 5.72386 16 6V20C16 20.2761 15.7761 20.5 15.5 20.5C15.2239 20.5 15 20.2761 15 20V6C15 5.72386 15.2239 5.5 15.5 5.5Z" fill="#5BA837"/>
</svg>
