<svg width="22" height="20" viewBox="0 0 22 20" fill="none" xmlns="http://www.w3.org/2000/svg">
<path fill-rule="evenodd" clip-rule="evenodd" d="M12.2577 1.72826C11.6751 0.757248 10.2678 0.757248 9.68524 1.72826L1.21762 15.841C0.61775 16.8407 1.33792 18.1127 2.50386 18.1127H19.4391C20.605 18.1127 21.3252 16.8407 20.7253 15.841L12.2577 1.72826ZM8.82775 1.21376C9.79875 -0.404585 12.1442 -0.404589 13.1152 1.21376L21.5828 15.3265C22.5826 16.9928 21.3823 19.1127 19.4391 19.1127H2.50386C0.560624 19.1127 -0.639658 16.9928 0.360129 15.3265L8.82775 1.21376Z" fill="#DD4040"/>
<path fill-rule="evenodd" clip-rule="evenodd" d="M10.9717 4.6123C11.524 4.6123 11.9717 5.06002 11.9717 5.6123V11.6123C11.9717 12.1646 11.524 12.6123 10.9717 12.6123C10.4194 12.6123 9.97168 12.1646 9.97168 11.6123V5.6123C9.97168 5.06002 10.4194 4.6123 10.9717 4.6123Z" fill="#DD4040"/>
<path d="M11.9717 14.6123C11.9717 15.1646 11.524 15.6123 10.9717 15.6123C10.4194 15.6123 9.97168 15.1646 9.97168 14.6123C9.97168 14.06 10.4194 13.6123 10.9717 13.6123C11.524 13.6123 11.9717 14.06 11.9717 14.6123Z" fill="#DD4040"/>
</svg>
