<svg width="71" height="13" viewBox="0 0 71 13" fill="none" xmlns="http://www.w3.org/2000/svg">
<path d="M0.456 12H1.992V6.816H7.864V12H9.4V0.672H7.864V5.376H1.992V0.672H0.456V12ZM70.1006 0.672H68.5646V8.736H70.1006V0.672ZM68.3086 11.04C68.3086 11.616 68.7886 12.096 69.3646 12.096C69.9406 12.096 70.4206 11.616 70.4206 11.04C70.4206 10.464 69.9406 9.984 69.3646 9.984C68.7886 9.984 68.3086 10.464 68.3086 11.04Z" fill="#1DC701"/>
<path d="M17.5154 12.288C20.9714 12.288 23.4194 9.696 23.4194 6.336C23.4194 2.976 20.9714 0.384 17.5154 0.384C14.0594 0.384 11.6114 2.976 11.6114 6.336C11.6114 9.696 14.0594 12.288 17.5154 12.288ZM17.5154 10.848C14.9234 10.848 13.2434 8.816 13.2434 6.336C13.2434 3.856 14.9234 1.824 17.5154 1.824C20.1074 1.824 21.7874 3.856 21.7874 6.336C21.7874 8.816 20.1074 10.848 17.5154 10.848Z" fill="#FFD540"/>
<path d="M30.8279 12.288C34.2839 12.288 36.7319 9.696 36.7319 6.336C36.7319 2.976 34.2839 0.384 30.8279 0.384C27.3719 0.384 24.9239 2.976 24.9239 6.336C24.9239 9.696 27.3719 12.288 30.8279 12.288ZM30.8279 10.848C28.2359 10.848 26.5559 8.816 26.5559 6.336C26.5559 3.856 28.2359 1.824 30.8279 1.824C33.4199 1.824 35.0999 3.856 35.0999 6.336C35.0999 8.816 33.4199 10.848 30.8279 10.848Z" fill="#FF462D"/>
<path d="M38.9404 12H40.4764V7.008H42.1884L45.0684 12H46.9884L43.7724 6.832C45.4844 6.64 46.5564 5.28 46.5564 3.84C46.5564 2.416 45.8204 0.672 42.9244 0.672H38.9404V12ZM40.4764 2.016H42.4924C43.7084 2.016 44.9244 2.304 44.9244 3.84C44.9244 5.376 43.7084 5.664 42.4924 5.664H40.4764V2.016Z" fill="#FF462D"/>
<path d="M47.2816 12H49.0736L50.1936 9.2H55.5856L56.7216 12H58.5136L53.6656 0.672H52.2736L47.2816 12ZM50.7376 7.856L52.8816 2.656H52.9136L55.0256 7.856H50.7376ZM61.4718 12H63.0078V7.168L67.2958 0.672H65.4237L62.2398 5.648L59.1518 0.672H57.1837L61.4718 7.168V12Z" fill="#3290FE"/>
</svg>
