<svg width="18" height="18" viewBox="0 0 18 18" fill="none" xmlns="http://www.w3.org/2000/svg">
<path fill-rule="evenodd" clip-rule="evenodd" d="M9 1.5C4.85786 1.5 1.5 4.85786 1.5 9C1.5 13.1421 4.85786 16.5 9 16.5C13.1421 16.5 16.5 13.1421 16.5 9C16.5 4.85786 13.1421 1.5 9 1.5ZM0.5 9C0.5 4.30558 4.30558 0.5 9 0.5C13.6944 0.5 17.5 4.30558 17.5 9C17.5 13.6944 13.6944 17.5 9 17.5C4.30558 17.5 0.5 13.6944 0.5 9Z" fill="#5742B4"/>
<path fill-rule="evenodd" clip-rule="evenodd" d="M7.04547 6.82104C7.04547 6.5449 7.26933 6.32104 7.54547 6.32104H8.63638C9.11335 6.32104 9.50002 6.70771 9.50002 7.18468V11.912C9.50002 12.0375 9.60177 12.1392 9.72729 12.1392H10.8182C11.0943 12.1392 11.3182 12.3631 11.3182 12.6392C11.3182 12.9154 11.0943 13.1392 10.8182 13.1392H9.72729C9.04949 13.1392 8.50002 12.5898 8.50002 11.912V7.32104H7.54547C7.26933 7.32104 7.04547 7.09719 7.04547 6.82104Z" fill="#5742B4"/>
<path fill-rule="evenodd" clip-rule="evenodd" d="M8.13275 5.18109C8.13275 4.80453 8.43801 4.49927 8.81457 4.49927C9.19113 4.49927 9.49639 4.80453 9.49639 5.18109C9.49639 5.55764 9.19113 5.8629 8.81457 5.8629C8.43801 5.8629 8.13275 5.55764 8.13275 5.18109Z" fill="#5742B4"/>
</svg>
