<svg width="24" height="22" viewBox="0 0 24 22" fill="none" xmlns="http://www.w3.org/2000/svg">
<path fill-rule="evenodd" clip-rule="evenodd" d="M12.0001 2.10185C9.25487 -0.700634 4.80407 -0.700615 2.05889 2.1019C-0.686164 4.9043 -0.686298 9.4478 2.05849 12.2504L11.3312 21.7175C11.7002 22.0942 12.2985 22.0942 12.6676 21.7175L21.8812 12.3113C21.9013 12.2913 21.9212 12.2712 21.9411 12.2509C24.6863 9.44838 24.6863 4.90457 21.9411 2.10203C19.196 -0.700442 14.7453 -0.700504 12.0001 2.10185ZM11.9849 21.0202C11.9862 21.0215 11.987 21.022 11.9885 21.0226C11.9906 21.0235 11.9944 21.0245 11.9994 21.0245C12.0044 21.0245 12.0082 21.0235 12.0103 21.0226C12.0111 21.0223 12.0118 21.022 12.0124 21.0215C12.0129 21.0212 12.0134 21.0207 12.0139 21.0202L21.2354 11.6061C21.2528 11.5887 21.2702 11.5712 21.2875 11.5536C23.6579 9.13369 23.6579 5.21926 21.2875 2.79932C18.9056 0.367728 15.0356 0.367674 12.6537 2.79916L12 3.46641L11.3464 2.79914C8.96453 0.367544 5.09442 0.36756 2.71254 2.79919C0.342245 5.219 0.34212 9.13314 2.71216 11.5531C2.71217 11.5531 2.71215 11.5531 2.71216 11.5531L11.9849 21.0202Z" fill="#5BA837"/>
</svg>
