<svg width="16" height="16" viewBox="0 0 16 16" fill="none" xmlns="http://www.w3.org/2000/svg">
<path fill-rule="evenodd" clip-rule="evenodd" d="M5.05981 12.9718C6.01088 13.4699 7.00738 13.7659 7.99898 13.745C10.7912 13.8038 13.6229 11.3503 15.3704 8.94622C15.7584 8.40768 15.7584 7.58975 15.3704 7.05122C14.7817 6.2422 14.0789 5.43947 13.3029 4.72873L12.625 5.40661C13.3589 6.07446 14.0303 6.83745 14.5944 7.61243C14.7402 7.81645 14.7402 8.18114 14.5943 8.3851C13.7687 9.52046 12.6954 10.6543 11.5216 11.4886C10.338 12.3299 9.13269 12.811 8.01912 12.7876C8.00569 12.7873 7.99226 12.7873 7.97884 12.7876C7.27109 12.8024 6.52635 12.6135 5.77375 12.2579L5.05981 12.9718ZM7.06172 10.9699C7.35146 11.1127 7.6671 11.1911 7.9974 11.1912C9.40775 11.1915 10.5508 9.76266 10.5511 7.99966C10.5512 7.83482 10.5411 7.67129 10.5212 7.51039L9.55971 8.47193C9.38856 9.61522 8.61086 10.2337 7.99761 10.2335C7.9382 10.2335 7.87726 10.2277 7.81547 10.2162L7.06172 10.9699ZM6.43477 7.53379L5.47455 8.49401C5.45444 8.33253 5.444 8.16706 5.44401 7.99853C5.44414 6.23553 6.58749 4.80642 7.99785 4.80642C8.32293 4.80631 8.64163 4.8837 8.93815 5.03041L8.1877 5.78086C8.12356 5.76954 8.06018 5.76408 7.99817 5.7641C7.38346 5.7641 6.60342 6.38545 6.43477 7.53379ZM10.224 3.7446C9.46661 3.38629 8.72137 3.19763 8.01917 3.21243C8.00571 3.21272 7.99225 3.21272 7.97879 3.21243C6.88639 3.1894 5.68986 3.6588 4.50589 4.49319C3.33198 5.3205 2.24858 6.453 1.40578 7.61224C1.25974 7.81628 1.25976 8.18129 1.40585 8.38529C1.96371 9.1531 2.63497 9.92022 3.37409 10.5945L2.69624 11.2723C1.91455 10.5547 1.2118 9.74774 0.629633 8.94622C0.241575 8.40768 0.241575 7.58975 0.629633 7.05122C2.41459 4.5952 5.25378 2.19708 7.99898 2.25497C8.98415 2.23419 9.98143 2.52973 10.9378 3.03073L10.224 3.7446Z" fill="#5B41BB"/>
<path fill-rule="evenodd" clip-rule="evenodd" d="M0 15.3228L15.3228 0L16 0.677179L0.677179 16L0 15.3228Z" fill="#5B41BB"/>
</svg>
