<svg width="16" height="12" viewBox="0 0 16 12" fill="none" xmlns="http://www.w3.org/2000/svg">
<path fill-rule="evenodd" clip-rule="evenodd" d="M7.99893 0.0010727C5.13241 -0.0593743 2.16775 2.44473 0.303906 5.00929C-0.101302 5.57162 -0.101302 6.4257 0.303906 6.98804C2.12722 9.49837 5.08334 12.0603 7.99893 11.9989C10.9145 12.0603 13.8714 9.49837 15.6961 6.98804C16.1013 6.4257 16.1013 5.57162 15.6961 5.00929C13.8301 2.44473 10.8655 -0.0593743 7.99893 0.0010727ZM1.11436 5.5951C0.961859 5.80816 0.961881 6.18931 1.11442 6.40232C1.97574 7.58778 3.09594 8.77166 4.32127 9.64285C5.55676 10.5213 6.81514 11.0236 7.9779 10.9991C7.99192 10.9988 8.00595 10.9988 8.01997 10.9991C9.18274 11.0236 10.4413 10.5212 11.6772 9.64278C12.9029 8.77157 14.0237 7.58766 14.8857 6.40212C15.0381 6.18914 15.0381 5.80834 14.8858 5.59531C14.0046 4.3847 12.8728 3.20214 11.6467 2.33827C10.4101 1.46694 9.16069 0.976797 8.02002 1.00085C8.00596 1.00115 7.9919 1.00115 7.97785 1.00085C6.83717 0.976797 5.58777 1.46694 4.35148 2.33821C3.12568 3.20208 1.9944 4.38464 1.11436 5.5951Z" fill="#5B41BB"/>
<path fill-rule="evenodd" clip-rule="evenodd" d="M7.99775 3.66528C7.27403 3.66528 6.33116 4.49011 6.33105 5.99853C6.33095 7.50697 7.27372 8.33207 7.9975 8.33223C8.72117 8.3324 9.66413 7.50786 9.66445 5.99943C9.66474 5.3171 9.44621 4.69554 9.1029 4.26627C8.76422 3.84281 8.35857 3.66516 7.99775 3.66528ZM7.99775 2.66528C6.52507 2.66528 5.33119 4.15755 5.33105 5.99846C5.33092 7.83937 6.5246 9.33191 7.99728 9.33223C9.46996 9.33256 10.6635 7.84056 10.6639 5.99965C10.6643 5.11533 10.384 4.26708 9.88386 3.64169C9.38369 3.0163 8.70519 2.66505 7.99775 2.66528Z" fill="#5B41BB"/>
</svg>
