<svg width="25" height="17" viewBox="0 0 25 17" fill="none" xmlns="http://www.w3.org/2000/svg">
<path fill-rule="evenodd" clip-rule="evenodd" d="M15.1304 2.49837C15.1304 1.06269 16.7898 0.335586 17.7751 1.33955L24.032 7.7152C24.656 8.35104 24.656 9.39701 24.032 10.0328L17.7751 16.4085C16.7898 17.4125 15.1304 16.6854 15.1304 15.2497V11.6506H7.58793C5.6594 11.6506 3.96216 12.976 3.42149 14.9042L3.35863 15.1284C2.88586 16.8145 0.5 16.459 0.5 14.7025C0.5 9.53838 4.51907 5.35206 9.47683 5.35206H15.1304V2.49837ZM17.0495 2.1121C16.7211 1.77744 16.1679 2.01981 16.1679 2.49837V6.4328H9.47683C5.09209 6.4328 1.53756 10.1353 1.53756 14.7025C1.53756 15.2095 2.22622 15.3121 2.36268 14.8254L2.42554 14.6012C3.09545 12.2121 5.19841 10.5698 7.58793 10.5698H16.1679V15.2497C16.1679 15.7282 16.7211 15.9706 17.0495 15.6359L23.3064 9.2603C23.5144 9.04835 23.5144 8.6997 23.3064 8.48775L17.0495 2.1121Z" fill="#5BA837"/>
</svg>
