<svg width="21" height="24" viewBox="0 0 21 24" fill="none" xmlns="http://www.w3.org/2000/svg">
<path d="M16.8182 0.353365H3.85336C3.30108 0.353365 2.85336 0.80108 2.85336 1.35337V14.3182L3.85336 13.3182L3.85336 1.35336H15.8182L16.8182 0.353365Z" fill="#DD4040"/>
<path d="M3.85336 20.3893V22.7353L9.95894 19.6825C10.522 19.401 11.1847 19.401 11.7478 19.6825L17.8534 22.7353V6.38928L18.8534 5.38928V22.7353C18.8534 23.4787 18.0711 23.9622 17.4062 23.6298L11.3006 20.577C11.0191 20.4362 10.6877 20.4362 10.4062 20.577L4.30058 23.6298C3.63568 23.9622 2.85336 23.4787 2.85336 22.7353V21.3893L3.85336 20.3893Z" fill="#DD4040"/>
<path fill-rule="evenodd" clip-rule="evenodd" d="M20.7071 0.707107L0.707107 20.7071L0 20L20 0L20.7071 0.707107Z" fill="#DD4040"/>
</svg>
