<svg width="24" height="22" viewBox="0 0 24 22" fill="none" xmlns="http://www.w3.org/2000/svg">
<path fill-rule="evenodd" clip-rule="evenodd" d="M23.8536 1.35359L5.35359 19.8536L4.64648 19.1465L23.1465 0.646484L23.8536 1.35359Z" fill="#DD4040"/>
<path d="M21.0488 1.32993C18.3032 -0.671044 14.4644 -0.414208 12 2.10142C9.25488 -0.700341 4.8042 -0.700341 2.05908 2.10142C-0.686035 4.90415 -0.686523 9.4481 2.05859 12.2499L6.05176 16.327L6.72705 15.6522L2.7124 11.5526C0.342285 9.13267 0.342285 5.2186 2.7124 2.79868C5.09424 0.367042 8.96436 0.367042 11.3462 2.79868L12 3.46665L12.6538 2.79868C14.7461 0.662941 17.9868 0.403175 20.3584 2.02036L21.0488 1.32993Z" fill="#DD4040"/>
<path fill-rule="evenodd" clip-rule="evenodd" d="M8.82617 17.7948L8.15088 18.4706L11.3311 21.7176C11.7002 22.0936 12.2983 22.0936 12.6675 21.7176L21.8813 12.3114L21.9409 12.2508C24.2461 9.89732 24.6157 6.31724 23.0503 3.57017L22.354 4.26646C23.5776 6.60728 23.2222 9.57798 21.2876 11.5536L21.2354 11.6063L12.0103 21.0223L11.9995 21.0243L11.9849 21.0204L8.82617 17.7948ZM11.9849 21.0204L11.9883 21.0223ZM12.0103 21.0223C12.0103 21.0223 12.0117 21.0223 12.0142 21.0204Z" fill="#DD4040"/>
</svg>
