<svg width="263" height="201" viewBox="0 0 263 201" fill="none" xmlns="http://www.w3.org/2000/svg">
<g clip-path="url(#clip0)">
<path d="M192.63 96.9886L188.743 114.538L185.588 128.775L183.074 140.13L179.921 154.367L169.617 200.88L41.9437 141.653L32.5589 137.299L20.6797 131.788L11.2917 127.433L0 122.195L6.40134 112.845L11.7247 105.07L18.459 95.2342L23.7804 87.4645L83.6651 0L147.104 56.4667L158.4 66.5217L167.408 74.5395L178.707 84.5945L192.63 96.9886Z" fill="#F2F2F2"/>
<path d="M144.806 119.092L151.401 130.559L157.996 142.027H144.806H131.616L138.211 130.559L144.806 119.092Z" fill="#FFC61E"/>
<path d="M107.329 96.5688H79.6709V124.335H107.329V96.5688Z" fill="#FFC61E"/>
<path d="M127.156 78.8763C136.956 78.8763 144.901 70.9003 144.901 61.0615C144.901 51.2227 136.956 43.2467 127.156 43.2467C117.355 43.2467 109.41 51.2227 109.41 61.0615C109.41 70.9003 117.355 78.8763 127.156 78.8763Z" fill="#FFC61E"/>
<path d="M143.126 90.8077C143.126 90.2245 143.298 89.6544 143.621 89.1695C143.944 88.6846 144.402 88.3066 144.939 88.0835C145.476 87.8603 146.066 87.8019 146.636 87.9157C147.206 88.0294 147.729 88.3103 148.14 88.7227C148.551 89.135 148.831 89.6604 148.944 90.2324C149.057 90.8044 148.999 91.3973 148.777 91.9361C148.554 92.4749 148.178 92.9354 147.695 93.2594C147.212 93.5834 146.644 93.7563 146.063 93.7563C145.284 93.7554 144.538 93.4445 143.987 92.8917C143.437 92.3389 143.127 91.5894 143.126 90.8077ZM143.616 90.8077C143.616 91.2936 143.759 91.7687 144.028 92.1728C144.297 92.5769 144.679 92.8918 145.126 93.0778C145.574 93.2638 146.066 93.3125 146.541 93.2176C147.015 93.1228 147.452 92.8888 147.794 92.5452C148.136 92.2015 148.369 91.7637 148.464 91.287C148.558 90.8104 148.51 90.3163 148.325 89.8673C148.139 89.4183 147.826 89.0346 147.423 88.7646C147.021 88.4946 146.547 88.3504 146.063 88.3504C145.414 88.3512 144.792 88.6103 144.333 89.071C143.874 89.5316 143.616 90.1562 143.616 90.8077Z" fill="#3F3D56"/>
<path d="M117.839 142.099L113.515 137.445L118.15 133.105L122.474 137.759L117.839 142.099ZM114.204 137.47L117.863 141.407L121.785 137.734L118.126 133.797L114.204 137.47Z" fill="#3F3D56"/>
<path d="M82.1321 75.9001L78.6133 72.1128L82.3859 68.5802L85.9047 72.3675L82.1321 75.9001ZM79.1742 72.1324L82.1516 75.337L85.3438 72.3479L82.3664 69.1433L79.1742 72.1324Z" fill="#3F3D56"/>
<path d="M263 200.509H110.267V201.001H263V200.509Z" fill="#3F3D56"/>
<path d="M131.561 81.0883C126.72 81.0883 121.988 79.6472 117.963 76.9472C113.937 74.2472 110.8 70.4095 108.948 65.9196C107.095 61.4296 106.61 56.489 107.555 51.7224C108.499 46.9559 110.83 42.5776 114.253 39.1411C117.677 35.7046 122.038 33.3644 126.786 32.4162C131.534 31.4681 136.455 31.9547 140.928 33.8145C145.4 35.6743 149.223 38.8238 151.912 42.8647C154.602 46.9055 156.037 51.6563 156.037 56.5162C156.03 63.0309 153.449 69.2766 148.86 73.8832C144.272 78.4898 138.05 81.081 131.561 81.0883ZM131.561 32.4355C126.817 32.4355 122.179 33.8479 118.235 36.4939C114.29 39.1399 111.215 42.9008 109.4 47.3009C107.584 51.7011 107.109 56.5429 108.035 61.2141C108.96 65.8853 111.245 70.1761 114.6 73.5438C117.954 76.9116 122.228 79.205 126.881 80.1342C131.534 81.0634 136.357 80.5865 140.74 78.7639C145.123 76.9413 148.87 73.8548 151.505 69.8947C154.141 65.9347 155.548 61.2789 155.548 56.5162C155.541 50.1318 153.011 44.011 148.514 39.4966C144.018 34.9821 137.921 32.4427 131.561 32.4355Z" fill="#3F3D56"/>
<path d="M116.493 75.6341L110.17 88.8447L110.611 89.0576L116.934 75.847L116.493 75.6341Z" fill="#3F3D56"/>
<path d="M115.034 106.427L114.801 106.859L142.652 121.991L142.885 121.559L115.034 106.427Z" fill="#3F3D56"/>
<path d="M115.162 124.581H79.4263V88.7053H115.162V124.581ZM79.9158 124.089H114.672V89.1968H79.9158V124.089Z" fill="#3F3D56"/>
<path d="M168.156 142.272H131.192L149.674 110.136L168.156 142.272ZM132.04 141.781H167.308L149.674 111.118L132.04 141.781Z" fill="#3F3D56"/>
<path d="M214.781 88.9514C218.161 88.9514 220.9 86.201 220.9 82.8083C220.9 79.4156 218.161 76.6653 214.781 76.6653C211.402 76.6653 208.662 79.4156 208.662 82.8083C208.662 86.201 211.402 88.9514 214.781 88.9514Z" fill="#A0616A"/>
<path d="M217.963 86.0026C217.963 86.0026 218.697 93.3743 219.921 94.6029C221.145 95.8315 211.354 93.8657 211.354 93.8657C211.354 93.8657 212.823 87.7227 211.844 86.7398C210.865 85.7569 217.963 86.0026 217.963 86.0026Z" fill="#A0616A"/>
<path d="M222.247 98.4111C222.247 98.4111 225.184 106.766 225.918 111.926C226.652 117.086 226.652 119.297 226.652 119.297C226.652 119.297 229.834 129.126 228.855 133.795C228.855 133.795 232.527 144.852 229.345 144.852C226.163 144.852 225.184 135.761 225.184 135.761L220.289 112.417L222.247 98.4111Z" fill="#A0616A"/>
<path d="M223.715 102.343C223.715 102.343 222.98 93.2512 219.799 92.514C218.279 92.1621 215.812 91.6421 213.648 91.1948C209.878 90.4156 205.99 92.2111 204.276 95.671C203.955 96.2983 203.741 96.9755 203.644 97.6741C203.155 101.606 200.707 101.606 202.91 106.766C205.113 111.926 204.623 117.332 204.623 117.332L206.092 130.355C206.092 130.355 199.973 147.556 200.462 159.104L194.833 187.362C194.833 187.362 196.056 190.311 199.483 188.837C199.483 188.837 208.05 174.339 207.316 163.773L216.127 144.115C216.127 144.115 222.246 162.79 223.96 164.51L228.365 191.048C228.365 191.048 232.526 192.277 234.484 191.048C234.484 191.048 235.219 165.493 231.058 161.316C231.058 161.316 226.897 143.624 227.876 138.955C228.855 134.287 229.1 127.161 221.757 120.772C221.757 120.772 222.736 118.069 219.554 116.595L222.001 108.732L223.715 102.343Z" fill="#2F2E41"/>
<path d="M208.363 91.871C208.297 91.8614 208.23 91.8535 208.161 91.8472C205.994 91.6508 204.128 93.388 204.031 95.5704L203.644 104.308L202.176 113.892L198.994 134.532C198.994 134.532 192.875 141.904 197.036 142.395C201.197 142.887 201.931 134.286 201.931 134.286L207.316 118.069L209.519 103.08C209.519 103.08 212.088 100.5 211.019 94.5373C210.91 93.8698 210.595 93.2535 210.119 92.7752C209.642 92.2968 209.028 91.9806 208.363 91.871Z" fill="#A0616A"/>
<path d="M194.344 186.379L192.63 195.225C192.63 195.225 188.469 197.191 191.162 199.648C193.854 202.105 197.526 199.157 197.526 199.157L198.505 196.208L198.26 200.631H198.994L199.728 196.208C199.728 196.208 201.197 193.505 200.218 191.294V188.345L194.344 186.379Z" fill="#2F2E41"/>
<path d="M227.754 187.24L226.775 195.348C226.775 195.348 222.614 197.314 225.306 199.771C227.999 202.228 231.67 199.28 231.67 199.28L232.649 196.331L232.404 200.754H233.139L233.873 196.331C233.873 196.331 235.342 193.628 234.362 191.417V188.468L227.754 187.24Z" fill="#2F2E41"/>
<path d="M217.974 73.3128H217.974C217.63 73.3135 217.288 73.3477 216.951 73.4149C216.343 73.1185 215.676 72.9641 215 72.9634H214.823C211.408 72.9634 208.64 76.0654 208.64 79.8918V79.8918H209.784L209.969 78.4799L210.24 79.8918H211.193C210.897 81.0248 210.748 82.1916 210.75 83.363V90.415H212.48L213.482 87.8022L213.231 90.415H224.351L225.261 88.0397L225.034 90.415H226.285V84.8779C226.285 78.4907 222.564 73.3128 217.974 73.3128Z" fill="#2F2E41"/>
<path d="M252.412 118.325H251.953V200.701H252.412V118.325Z" fill="#3F3D56"/>
<path d="M252.271 193.642C257.213 193.642 261.219 184.464 261.219 173.143C261.219 161.821 257.213 152.644 252.271 152.644C247.329 152.644 243.323 161.821 243.323 173.143C243.323 184.464 247.329 193.642 252.271 193.642Z" fill="#3F3D56"/>
<path d="M252.271 146.886C257.213 146.886 261.219 137.708 261.219 126.386C261.219 115.065 257.213 105.887 252.271 105.887C247.329 105.887 243.323 115.065 243.323 126.386C243.323 137.708 247.329 146.886 252.271 146.886Z" fill="#3F3D56"/>
<path d="M252.491 109.638L252.051 109.506C252.079 109.413 254.777 100.132 250.347 94.1579C247.845 90.7838 243.552 89.0728 237.587 89.0728V88.6122C243.706 88.6122 248.123 90.3861 250.716 93.8846C255.283 100.046 252.519 109.543 252.491 109.638Z" fill="#3F3D56"/>
<path d="M237.587 94.6016C240.755 94.6016 243.323 92.0235 243.323 88.8434C243.323 85.6632 240.755 83.0852 237.587 83.0852C234.42 83.0852 231.852 85.6632 231.852 88.8434C231.852 92.0235 234.42 94.6016 237.587 94.6016Z" fill="#F2F2F2"/>
</g>
<defs>
<clipPath id="clip0">
<rect width="263" height="201" fill="white"/>
</clipPath>
</defs>
</svg>
