<svg width="340" height="274" viewBox="0 0 340 274" fill="none" xmlns="http://www.w3.org/2000/svg">
<g clip-path="url(#clip0)">
<path d="M306.665 258.141C306.665 260.611 250.506 273.999 181.23 273.999C111.954 273.999 55.7944 260.611 55.7944 258.141C55.7944 255.671 111.954 259.768 181.23 259.768C250.506 259.768 306.665 255.671 306.665 258.141Z" fill="#3F3D56"/>
<path opacity="0.1" d="M306.665 258.141C306.665 260.611 250.506 273.999 181.23 273.999C111.954 273.999 55.7944 260.611 55.7944 258.141C55.7944 255.671 111.954 259.768 181.23 259.768C250.506 259.768 306.665 255.671 306.665 258.141Z" fill="black"/>
<path d="M181.23 262.615C250.506 262.615 306.665 260.612 306.665 258.142C306.665 255.671 250.506 253.669 181.23 253.669C111.954 253.669 55.7944 255.671 55.7944 258.142C55.7944 260.612 111.954 262.615 181.23 262.615Z" fill="#3F3D56"/>
<path d="M246.798 256.109V175.599" stroke="#3F3D56" stroke-width="2" stroke-miterlimit="10"/>
<path d="M98.1492 257.329V217.073" stroke="#3F3D56" stroke-width="2" stroke-miterlimit="10"/>
<path d="M98.1494 222.766C101.298 222.766 103.851 220.217 103.851 217.073C103.851 213.929 101.298 211.381 98.1494 211.381C95.0004 211.381 92.4478 213.929 92.4478 217.073C92.4478 220.217 95.0004 222.766 98.1494 222.766Z" fill="#3F3D56"/>
<path d="M98.1492 241.884C98.1492 241.884 98.9637 224.393 115.661 226.426L98.1492 241.884Z" fill="#3F3D56"/>
<path d="M219.919 256.922V216.667" stroke="#3F3D56" stroke-width="2" stroke-miterlimit="10"/>
<path d="M219.919 222.36C223.068 222.36 225.621 219.811 225.621 216.667C225.621 213.523 223.068 210.974 219.919 210.974C216.77 210.974 214.218 213.523 214.218 216.667C214.218 219.811 216.77 222.36 219.919 222.36Z" fill="#3F3D56"/>
<path d="M219.919 241.477C219.919 241.477 219.105 223.986 202.407 226.019L219.919 241.477Z" fill="#3F3D56"/>
<path d="M299.334 256.922V216.667" stroke="#3F3D56" stroke-width="2" stroke-miterlimit="10"/>
<path d="M299.334 222.36C302.483 222.36 305.036 219.811 305.036 216.667C305.036 213.523 302.483 210.974 299.334 210.974C296.186 210.974 293.633 213.523 293.633 216.667C293.633 219.811 296.186 222.36 299.334 222.36Z" fill="#3F3D56"/>
<path d="M299.334 241.477C299.334 241.477 298.52 223.986 281.822 226.019L299.334 241.477Z" fill="#3F3D56"/>
<path d="M79.0083 256.109V175.599" stroke="#3F3D56" stroke-width="2" stroke-miterlimit="10"/>
<path d="M79.0083 181.291C82.1572 181.291 84.7099 178.743 84.7099 175.599C84.7099 172.455 82.1572 169.906 79.0083 169.906C75.8593 169.906 73.3066 172.455 73.3066 175.599C73.3066 178.743 75.8593 181.291 79.0083 181.291Z" fill="#3F3D56"/>
<path d="M61.496 226.426C64.645 226.426 67.1977 223.877 67.1977 220.733C67.1977 217.589 64.645 215.041 61.496 215.041C58.3471 215.041 55.7944 217.589 55.7944 220.733C55.7944 223.877 58.3471 226.426 61.496 226.426Z" fill="#3F3D56"/>
<path d="M79.0082 198.783C79.0082 198.783 78.1937 181.292 61.4961 183.325L79.0082 198.783Z" fill="#3F3D56"/>
<path d="M79.0082 254.544C79.0082 254.544 82.6735 222.359 61.4961 220.733" stroke="#3F3D56" stroke-width="2" stroke-miterlimit="10"/>
<path d="M246.798 181.291C249.947 181.291 252.5 178.743 252.5 175.599C252.5 172.455 249.947 169.906 246.798 169.906C243.649 169.906 241.096 172.455 241.096 175.599C241.096 178.743 243.649 181.291 246.798 181.291Z" fill="#3F3D56"/>
<path d="M246.798 198.783C246.798 198.783 247.613 181.292 264.31 183.325L246.798 198.783Z" fill="#3F3D56"/>
<path d="M246.798 254.544C246.798 254.544 243.133 222.359 264.31 220.733" stroke="#3F3D56" stroke-width="2" stroke-miterlimit="10"/>
<path d="M264.31 226.426C267.459 226.426 270.012 223.877 270.012 220.733C270.012 217.589 267.459 215.041 264.31 215.041C261.161 215.041 258.609 217.589 258.609 220.733C258.609 223.877 261.161 226.426 264.31 226.426Z" fill="#3F3D56"/>
<path d="M240.73 166.155L210.461 159.7L203.995 189.921L234.264 196.376L240.73 166.155Z" fill="#5B41BB"/>
<path d="M204.837 151.625C204.837 151.625 215.955 159.554 212.249 162.726C208.543 165.897 201.131 153.211 201.131 153.211L204.837 151.625Z" fill="#FFB9B9"/>
<path d="M153.483 163.783C153.483 163.783 155.601 190.212 156.13 193.913C156.66 197.613 157.189 230.914 158.248 234.614C159.307 238.314 160.366 247.3 160.366 247.3H166.719C166.719 247.3 166.189 230.914 167.778 224.571C169.366 218.227 168.837 200.784 168.837 200.784C168.837 200.784 172.013 169.598 170.425 165.369C168.837 161.14 153.483 163.783 153.483 163.783Z" fill="#FFB9B9"/>
<path d="M161.954 245.714C161.954 245.714 159.307 247.299 159.307 248.357C159.307 249.414 159.837 252.057 159.307 253.114C158.778 254.171 155.072 258.4 157.189 259.457C159.307 260.514 168.837 259.457 168.837 259.457C168.837 259.457 168.307 252.057 167.778 251.528C167.248 250.999 168.307 245.714 168.307 245.714H161.954Z" fill="#2F2E41"/>
<path d="M193.954 163.136C193.954 163.136 194.627 189.641 194.489 193.376C194.352 197.111 197.326 230.284 196.662 234.074C195.998 237.865 195.89 246.912 195.89 246.912L189.572 247.578C189.572 247.578 188.376 231.227 186.13 225.085C183.883 218.944 182.576 201.541 182.576 201.541C182.576 201.541 176.138 170.86 177.273 166.488C178.408 162.116 193.954 163.136 193.954 163.136Z" fill="#FFB9B9"/>
<path d="M194.144 245.501C194.144 245.501 196.943 246.801 197.054 247.852C197.166 248.903 196.917 251.587 197.555 252.583C198.192 253.579 202.322 257.396 200.327 258.669C198.333 259.942 188.745 259.89 188.745 259.89C188.745 259.89 188.493 252.475 188.964 251.894C189.435 251.313 187.826 246.167 187.826 246.167L194.144 245.501Z" fill="#2F2E41"/>
<path d="M160.895 124.139C160.895 124.139 156.66 124.667 155.072 133.653C153.483 142.639 147.66 165.368 152.425 166.954C157.189 168.54 171.484 171.711 172.013 170.654C172.542 169.597 173.601 166.954 173.601 166.954C173.601 166.954 172.013 171.711 174.131 171.711C176.248 171.711 196.896 168.54 196.366 166.954C195.837 165.368 194.778 153.74 194.778 153.74C194.778 153.74 191.601 134.182 188.425 131.01C187.506 130.129 186.792 129.057 186.334 127.869C185.877 126.682 185.687 125.408 185.778 124.139H160.895Z" fill="#2F2E41"/>
<path d="M152.954 119.91C152.954 119.91 159.837 118.324 160.895 120.439C161.954 122.553 158.248 125.725 156.66 125.725C155.072 125.725 152.425 124.139 152.425 124.139L152.954 119.91Z" fill="#FFB9B9"/>
<path d="M167.248 74.9808C172.511 74.9808 176.778 70.721 176.778 65.4663C176.778 60.2116 172.511 55.9518 167.248 55.9518C161.985 55.9518 157.719 60.2116 157.719 65.4663C157.719 70.721 161.985 74.9808 167.248 74.9808Z" fill="#FFB9B9"/>
<path d="M168.837 72.338C168.837 72.338 170.425 79.7382 169.366 79.7382C168.307 79.7382 177.307 84.4954 177.307 84.4954L184.19 83.4383L186.307 80.2667C186.307 80.2667 175.19 72.8666 175.19 68.6379C175.19 64.4092 168.837 72.338 168.837 72.338Z" fill="#FFB9B9"/>
<path d="M173.602 79.7384C173.602 79.7384 172.013 78.6813 171.484 78.6813H167.249C166.719 78.6813 159.837 80.267 159.837 80.267L155.601 104.053C155.601 104.053 163.013 116.211 157.719 125.725C157.719 125.725 159.307 124.668 166.719 125.197C174.131 125.725 187.366 127.311 187.896 127.311C188.425 127.311 188.425 123.082 187.896 122.025C187.366 120.968 188.425 121.497 188.425 118.854C188.425 116.211 190.013 111.454 190.013 111.454L197.425 84.4957C197.425 84.4957 187.896 79.2098 186.308 79.7384C184.719 80.267 179.955 81.8528 178.896 81.3242C177.837 80.7956 173.602 79.7384 173.602 79.7384Z" fill="#FFC61E"/>
<path d="M161.425 80.7949L159.837 80.2663C159.837 80.2663 156.66 79.7377 152.954 82.9092C149.248 86.0807 135.483 95.5953 135.483 95.5953C135.483 95.5953 130.189 99.8239 131.777 104.581C133.366 109.338 136.013 120.967 143.954 120.439C143.954 120.439 148.719 126.782 151.366 125.725C154.013 124.667 156.131 120.439 154.542 119.91C152.954 119.382 148.719 114.096 148.719 114.096L154.013 104.053H155.601L161.425 100.881V80.7949Z" fill="#FFC61E"/>
<path d="M193.19 83.9667L197.425 84.4953C197.425 84.4953 201.131 86.081 200.602 92.9526C200.072 99.8242 203.778 131.011 202.19 134.711C202.19 134.711 207.484 152.683 206.425 153.211C205.367 153.74 199.013 156.911 199.543 154.797C200.072 152.683 193.719 137.882 193.719 137.882C193.719 137.882 186.308 129.954 189.484 118.853V109.867L193.19 83.9667Z" fill="#FFC61E"/>
<path d="M161.16 77.888L168.042 77.6075V74.1878L168.587 77.5853L179.69 77.1328V75.245L179.99 77.1206L187.102 76.8307L182.866 62.9356C182.866 60.0319 181.711 57.2472 179.654 55.194C177.598 53.1408 174.809 51.9873 171.901 51.9873H169.214C164.766 51.9873 157.454 54.9465 157.454 59.3875C161.251 66.1408 166.572 73.2428 161.16 77.888Z" fill="#2F2E41"/>
<path d="M113.625 7.25891H82.6733V38.1618H113.625V7.25891Z" stroke="#3F3D56" stroke-width="2" stroke-miterlimit="10"/>
<path d="M331.915 6.85266H223.992V58.0864H331.915V6.85266Z" fill="#5B41BB"/>
<path d="M339.653 0.346558H231.729V51.5803H339.653V0.346558Z" stroke="#3F3D56" stroke-width="2" stroke-miterlimit="10"/>
<path d="M107.923 93.8689H0V145.103H107.923V93.8689Z" fill="#5B41BB"/>
<path d="M115.661 87.3628H7.73779V138.597H115.661V87.3628Z" stroke="#3F3D56" stroke-width="2" stroke-miterlimit="10"/>
</g>
<defs>
<clipPath id="clip0">
<rect width="340" height="274" fill="white"/>
</clipPath>
</defs>
</svg>
