<svg width="169" height="141" viewBox="0 0 169 141" fill="none" xmlns="http://www.w3.org/2000/svg">
<g clip-path="url(#clip0)">
<path opacity="0.1" d="M120.111 140.998C129.646 140.998 137.376 140.235 137.376 139.294C137.376 138.354 129.646 137.591 120.111 137.591C110.575 137.591 102.846 138.354 102.846 139.294C102.846 140.235 110.575 140.998 120.111 140.998Z" fill="#FFC61E"/>
<path opacity="0.1" d="M73.9905 2.06259C81.5945 -0.766579 90.8515 1.66661 98.7567 5.21528C123.585 16.3634 141.673 37.5257 156.045 59.0857C161.248 66.8925 166.19 75.043 168.147 83.7579C172.129 101.496 161.741 119.86 144.074 126.295C138.066 128.485 131.465 129.384 124.854 129.884C113.099 130.775 100.928 130.421 89.2674 127.121C80.9514 124.761 73.0849 120.967 65.5399 116.774C44.4687 105.06 25.2258 89.8476 11.3697 71.2651C5.29261 63.1146 0.1515 53.9261 0.00336101 44.522C-0.144778 35.1178 5.97775 25.6682 16.0512 24.0691C20.216 23.4086 24.6214 24.0961 28.9191 24.8038C35.247 25.8468 41.6608 26.9438 47.9163 26.4888C54.3789 26.0153 62.7841 23.4878 63.9625 17.3121C65.2099 10.6815 66.3967 4.88838 73.9905 2.06259Z" fill="#FFC61E"/>
<path d="M41.0783 129.547C41.0783 129.547 49.2024 129.057 48.2445 134.755C48.2445 134.755 48.4348 135.766 47.5224 136.22C47.5224 136.22 47.5089 135.797 46.6891 135.94C46.3979 135.99 46.1017 136.005 45.807 135.984C45.4084 135.956 45.0296 135.799 44.7279 135.537C44.7279 135.537 42.4435 134.594 41.5564 130.856C41.5564 130.856 40.8982 130.042 40.9251 129.832L42.2954 130.418C42.2954 130.418 41.8274 131.409 42.1961 132.231C42.1961 132.231 42.2399 130.455 42.5042 130.496C42.5563 130.504 43.2162 130.833 43.2162 130.833C43.2162 130.833 42.4099 132.556 43.0176 133.81C43.0176 133.81 42.787 131.685 43.4671 130.957L44.4333 131.522C44.4333 131.522 43.4906 133.303 44.1303 134.755C44.1303 134.755 43.962 132.526 44.6353 131.658L45.5107 132.332C45.5107 132.332 44.6252 134.088 45.1656 135.295C45.1656 135.295 45.2346 132.698 45.6992 132.502C45.6992 132.502 46.4652 133.176 46.5813 133.456C46.5813 133.456 45.9753 134.73 46.3507 135.402C46.3507 135.402 46.5813 133.674 46.7716 133.665C46.7716 133.665 47.5325 134.811 47.6133 135.596C47.6133 135.596 47.5796 134.428 46.9551 133.556C46.9551 133.556 47.6924 133.682 48.1233 134.161C48.1233 134.161 48.0038 133.35 46.7682 133.279C46.7682 133.279 46.1386 132.411 45.9686 132.358C45.9686 132.358 47.1992 132.255 47.9449 132.587C47.9449 132.587 47.2884 131.822 45.743 132.169L44.8794 131.465C44.8794 131.465 46.5005 131.242 47.1857 131.488C47.1857 131.488 46.3962 130.814 44.6471 131.304L43.7078 130.742C43.7078 130.742 45.0882 130.443 45.9113 130.551C45.9113 130.551 45.0427 130.083 43.4317 130.59L42.7583 130.288C42.7583 130.288 43.7684 130.09 44.0663 130.058C44.3643 130.025 44.3778 129.945 44.3778 129.945C43.737 129.837 43.079 129.91 42.4772 130.155C42.4772 130.155 41.0531 129.645 41.0783 129.547Z" fill="#FFC61E"/>
<path opacity="0.1" d="M46.674 137.689C49.8499 137.689 52.4244 137.253 52.4244 136.716C52.4244 136.179 49.8499 135.744 46.674 135.744C43.498 135.744 40.9235 136.179 40.9235 136.716C40.9235 137.253 43.498 137.689 46.674 137.689Z" fill="#FFC61E"/>
<path d="M30.1952 125.714C30.1952 125.714 34.7757 125.437 34.2353 128.651C34.2639 128.814 34.24 128.981 34.167 129.13C34.0941 129.278 33.976 129.4 33.8296 129.476C33.8296 129.476 33.8212 129.239 33.36 129.32C33.196 129.348 33.0292 129.356 32.8634 129.343C32.6381 129.329 32.4238 129.241 32.254 129.092C32.254 129.092 30.9679 128.558 30.4628 126.452C30.4628 126.452 30.0925 125.992 30.1059 125.874L30.8803 126.211C30.8803 126.211 30.616 126.77 30.8231 127.234C30.8231 127.234 30.8483 126.231 30.9914 126.255C31.0217 126.255 31.3938 126.448 31.3938 126.448C31.3938 126.448 30.9392 127.421 31.2826 128.133C31.2826 128.133 31.1513 126.935 31.5352 126.524L32.0789 126.843C32.0789 126.843 31.5486 127.854 31.9106 128.666C31.9106 128.666 31.818 127.409 32.1951 126.92L32.6883 127.304C32.6883 127.304 32.1833 128.294 32.4947 128.974C32.4947 128.974 32.5334 127.51 32.796 127.4C32.796 127.4 33.227 127.781 33.2926 127.938C33.2926 127.938 32.956 128.656 33.163 129.035C33.163 129.035 33.2926 128.061 33.4004 128.056C33.4004 128.056 33.8296 128.701 33.8734 129.144C33.8519 128.735 33.7243 128.338 33.5031 127.994C33.7507 128.039 33.9796 128.156 34.1613 128.331C34.1613 128.331 34.0956 127.874 33.397 127.833C33.397 127.833 33.0418 127.343 32.9475 127.314C32.9475 127.314 33.6411 127.256 34.0619 127.443C34.0619 127.443 33.6916 127.011 32.8196 127.207L32.3331 126.809C32.3331 126.809 33.2472 126.684 33.6344 126.822C33.6344 126.822 33.1883 126.442 32.2018 126.72L31.6732 126.401C32.0804 126.312 32.4975 126.276 32.9139 126.295C32.9139 126.295 32.4257 126.031 31.5166 126.317L31.1379 126.148C31.1379 126.148 31.7086 126.036 31.8752 126.019C32.0419 126.002 32.052 125.955 32.052 125.955C31.6903 125.895 31.3192 125.936 30.9796 126.074C30.9796 126.074 30.1817 125.769 30.1952 125.714Z" fill="#FFC61E"/>
<path opacity="0.1" d="M33.3498 130.303C35.1404 130.303 36.592 130.057 36.592 129.754C36.592 129.451 35.1404 129.205 33.3498 129.205C31.5591 129.205 30.1075 129.451 30.1075 129.754C30.1075 130.057 31.5591 130.303 33.3498 130.303Z" fill="#FFC61E"/>
<path d="M142.884 128.802C142.884 128.802 148.414 128.465 147.766 132.341C147.799 132.538 147.769 132.74 147.681 132.919C147.593 133.098 147.45 133.245 147.274 133.338C147.274 133.338 147.264 133.05 146.707 133.148C146.508 133.182 146.307 133.191 146.106 133.176C145.835 133.159 145.577 133.052 145.372 132.873C145.372 132.873 143.816 132.231 143.212 129.687C143.212 129.687 142.764 129.132 142.783 128.991L143.715 129.388C143.715 129.388 143.397 130.062 143.648 130.624C143.648 130.624 143.678 129.414 143.857 129.444C143.894 129.444 144.342 129.677 144.342 129.677C144.342 129.677 143.793 130.856 144.207 131.699C144.207 131.699 144.05 130.253 144.513 129.757L145.17 130.14C145.17 130.14 144.528 131.353 144.964 132.342C144.964 132.342 144.852 130.826 145.301 130.234L145.897 130.699C145.897 130.699 145.294 131.894 145.661 132.721C145.661 132.721 145.71 130.956 146.027 130.821C146.027 130.821 146.547 131.281 146.626 131.469C146.626 131.469 146.214 132.337 146.469 132.796C146.469 132.796 146.626 131.616 146.756 131.616C146.756 131.616 147.274 132.396 147.328 132.93C147.303 132.437 147.149 131.958 146.882 131.542C147.181 131.599 147.457 131.742 147.676 131.953C147.676 131.953 147.596 131.402 146.752 131.353C146.752 131.353 146.325 130.762 146.21 130.726C146.21 130.726 147.052 130.656 147.557 130.881C147.557 130.881 147.109 130.362 146.057 130.598L145.47 130.118C145.47 130.118 146.572 129.966 147.04 130.133C147.04 130.133 146.501 129.673 145.311 130.009L144.672 129.626C144.672 129.626 145.611 129.424 146.171 129.496C146.171 129.496 145.581 129.178 144.488 129.523L144.03 129.318C144.03 129.318 144.719 129.181 144.921 129.161C145.123 129.141 145.133 129.083 145.133 129.083C144.697 129.011 144.249 129.06 143.84 129.227C143.84 129.227 142.867 128.866 142.884 128.802Z" fill="#FFC61E"/>
<path opacity="0.1" d="M146.692 134.345C148.853 134.345 150.606 134.049 150.606 133.683C150.606 133.317 148.853 133.021 146.692 133.021C144.53 133.021 142.778 133.317 142.778 133.683C142.778 134.049 144.53 134.345 146.692 134.345Z" fill="#FFC61E"/>
<path d="M137.374 87.8943C137.268 87.301 137.207 86.7006 137.19 86.0981C137.19 85.3752 136.209 84.7349 136.209 84.7349C136.209 84.7349 135.603 83.3312 135.199 83.124C134.795 82.9167 133.548 81.08 133.548 81.08C133.533 80.7177 133.401 80.37 133.172 80.0892C132.798 79.5975 132.457 79.0819 132.15 78.5458C131.982 78.3402 132.066 78.1953 131.814 76.9972C131.8 76.9349 131.785 76.8742 131.767 76.8169C131.767 76.79 131.75 76.7664 131.74 76.7394C132.008 76.4703 132.194 76.1312 132.279 75.7607C132.363 75.3903 132.341 75.0036 132.216 74.6449C132.171 74.5023 132.088 74.3743 131.977 74.2742C131.692 74.0417 131.238 74.1377 130.945 73.917L131.256 72.5386C131.331 72.2016 131.369 71.7753 131.075 71.5933C130.964 71.5408 130.848 71.5018 130.728 71.477C130.223 71.3085 129.93 70.7744 129.799 70.2605C129.672 69.7654 129.638 69.2514 129.698 68.7439C129.755 68.2553 129.898 67.7801 129.95 67.2898C130.045 66.3828 129.827 65.4706 129.332 64.7049C129.14 64.3745 128.856 64.1065 128.516 63.9332C128.204 63.7933 127.843 63.7647 127.551 63.5962C126.925 63.1968 126.957 62.2481 126.457 61.7039C125.957 61.1596 125.072 61.1613 124.343 61.3483C123.614 61.5354 122.888 61.8538 122.141 61.7746C121.659 61.7207 121.208 61.5017 120.725 61.4511C120.587 61.438 120.447 61.4442 120.311 61.4697V61.4545C119.954 61.5185 119.626 61.7174 119.542 62.056C119.523 62.1366 119.515 62.2194 119.518 62.3021C119.518 62.4992 119.565 62.7048 119.569 62.8935C119.575 62.9685 119.566 63.0439 119.543 63.1154C119.519 63.1869 119.482 63.253 119.432 63.3097C119.336 63.4125 119.195 63.4664 119.096 63.5726C119.055 63.6132 119.023 63.6616 119.002 63.7149C118.981 63.7682 118.971 63.8253 118.973 63.8826C118.973 64.1826 119.346 64.4471 119.597 64.5684H119.607C119.54 64.6358 119.473 64.7066 119.41 64.7791C118.691 65.5919 118.295 66.6404 118.296 67.7262C118.302 68.6031 118.564 69.4592 119.05 70.189C119.535 70.9189 120.224 71.4907 121.03 71.8343L120.994 71.9438C120.924 72.1605 120.841 72.3731 120.747 72.5807C120.573 72.5221 120.388 72.5023 120.205 72.5227C120.023 72.543 119.847 72.6031 119.69 72.6987C119.208 73.0357 118.267 73.0087 118.016 72.9464C117.766 72.884 115.155 72.5538 114.944 72.6364C114.734 72.7189 114.318 72.3482 114.047 72.8436C113.776 73.339 113.65 73.6069 113.374 73.7316C113.098 73.8563 112.621 74.2472 112.685 74.3298C112.749 74.4124 111.995 74.9078 111.995 74.9078C111.995 74.9078 111.347 75.5818 110.971 75.6711C110.596 75.7604 109.801 76.271 109.801 76.271L108.881 76.9922C108.881 76.9922 108.192 77.0966 108.401 76.6214C108.61 76.1463 108.024 75.5481 108.024 75.5481C108.024 75.5481 106.854 73.1739 106.854 72.6835C106.854 72.1932 105.893 70.1021 105.893 70.1021L105.775 70.0903L105.721 69.9369C105.544 69.4398 105.315 68.8299 105.14 68.4726C104.803 67.7902 104.596 67.7194 104.596 67.7194C104.596 67.7194 100.543 64.6729 97.9099 65.6013C95.2771 66.5298 102.716 69.2966 103.384 69.5864C103.618 69.6875 103.787 70.0144 103.905 70.3969C103.312 70.6832 102.812 71.1327 102.465 71.6927C102.465 71.6927 104.075 75.2633 104.117 76.1513C104.159 77.0393 105.224 79.5214 105.224 79.5214C105.224 79.5214 105.622 81.3598 107.773 81.2553C107.773 81.2553 110.741 81.8012 111.389 81.2553C112.037 80.7093 112.621 80.2813 112.936 80.219C113.168 80.1428 113.371 79.9991 113.52 79.8062C113.52 79.8062 112.539 85.9986 112.057 86.5362C111.576 87.0737 107.322 94.0261 108.849 95.2697C110.058 96.2069 111.336 97.0518 112.672 97.7972C112.801 97.8613 113.19 97.2125 113.746 96.7525C113.746 96.8688 113.746 96.9867 113.746 97.1114C113.756 99.585 114.082 103.346 114.534 104.189C115.207 105.427 114.931 107.821 114.931 107.821C115.285 107.988 115.669 108.081 116.06 108.093C116.081 108.174 116.104 108.261 116.126 108.346C116.495 109.739 117.092 111.894 117.397 112.467C117.857 113.335 118.19 116.081 118.19 116.081C118.19 116.081 118.463 118.778 118.358 119.157C118.318 119.3 118.495 120.422 118.772 121.853C118.604 123.789 118.284 127.521 118.23 128.871C118.23 128.896 118.23 128.921 118.23 128.945V128.969C118.231 128.984 118.231 128.999 118.23 129.014C118.23 129.044 118.23 129.071 118.23 129.097C118.225 129.182 118.228 129.267 118.24 129.351C118.261 129.48 118.251 129.611 118.212 129.735C118.093 130.108 117.941 130.47 117.759 130.817C117.682 130.987 117.615 131.162 117.557 131.339C117.389 131.414 117.183 131.594 117.069 132.034C116.86 132.839 116.547 135.067 116.547 135.067C116.547 135.067 116.421 136.43 116.171 136.74C115.922 137.05 115.666 138.989 117.446 139.237C119.225 139.485 119.994 138.294 119.994 138.294L119.932 132.888V132.878C119.968 132.832 119.999 132.783 120.025 132.731V132.718C120.037 132.693 120.05 132.666 120.062 132.635L120.077 132.595L120.104 132.529C120.103 132.521 120.103 132.513 120.104 132.505C120.277 131.988 120.328 131.437 120.255 130.896V130.869V130.827C120.255 130.814 120.255 130.799 120.255 130.785V130.701C120.255 130.691 120.255 130.679 120.255 130.669C120.255 130.633 120.259 130.596 120.266 130.558C120.266 130.558 120.266 130.544 120.266 130.537L120.276 130.472V130.443C120.276 130.421 120.276 130.399 120.289 130.376C120.288 130.37 120.288 130.364 120.289 130.359C120.306 130.281 120.326 130.19 120.348 130.116V130.098L120.373 130.017C120.399 129.931 120.427 129.848 120.457 129.757V129.74C120.457 129.713 120.476 129.686 120.486 129.661V129.651C120.516 129.568 120.548 129.483 120.579 129.412L120.587 129.39L120.614 129.322L120.622 129.302L120.686 129.152L121.18 130.677C121.18 130.677 121.452 131.813 121.306 132.081C121.159 132.349 121.474 133.464 121.681 133.484L121.488 134.888C121.383 135.662 121.321 136.441 121.301 137.222C121.287 137.311 121.274 137.39 121.264 137.444C121.129 138.164 121.452 139.279 121.452 139.279C123.102 141.232 125.068 139.431 125.068 139.431C125.068 139.431 125.297 138.398 125.068 138.192C124.839 137.987 124.942 137.242 124.942 137.242C124.942 137.242 125.046 135.404 125.067 134.062C125.087 132.721 123.971 131.535 123.971 131.535L123.908 131.591C123.705 131.065 123.472 130.451 123.521 130.177C123.605 129.702 123.291 124.685 123.291 124.685C123.407 123.34 123.432 121.989 123.365 120.641C123.392 120.414 123.417 120.19 123.442 119.967C123.568 118.889 123.671 117.967 123.711 117.483V117.426C123.722 117.296 123.727 117.204 123.725 117.16C123.725 116.991 123.725 116.799 123.742 116.589C123.78 116.009 123.871 115.364 123.871 115.364L124.309 112.7C124.309 112.7 124.646 111.399 125.126 110.678L125.183 110.587C125.201 110.555 125.22 110.519 125.24 110.482L125.248 110.467C125.267 110.432 125.287 110.395 125.306 110.356L125.314 110.341C125.381 110.207 125.454 110.054 125.53 109.886C125.53 109.872 125.541 109.86 125.546 109.847L125.604 109.719C125.604 109.702 125.617 109.685 125.625 109.668C125.634 109.651 125.661 109.582 125.679 109.54C125.688 109.523 125.695 109.506 125.701 109.488C125.723 109.437 125.747 109.385 125.769 109.331L125.801 109.254C125.816 109.215 125.833 109.176 125.849 109.137L125.89 109.035C125.902 109.009 125.912 108.984 125.922 108.959L125.967 108.843C125.967 108.826 125.982 108.807 125.989 108.79C126.109 108.492 126.223 108.197 126.326 107.929C126.358 107.845 126.39 107.761 126.418 107.687C127.489 107.752 128.216 107.811 128.216 107.811C128.216 107.811 128.553 105.397 128.445 103.808C128.374 102.723 128.576 101.358 128.709 100.606C128.725 100.524 128.738 100.449 128.752 100.382L128.78 100.406C129.304 100.818 129.679 99.4553 129.679 99.4553C129.679 99.4553 129.538 98.1831 129.342 96.6413L129.322 96.488C129.624 96.5524 129.929 96.5991 130.236 96.6278C130.236 96.6278 130.405 96.6126 130.635 96.584C131.273 96.9537 131.947 97.2585 132.645 97.4939L133.758 95.4382C133.967 95.012 134.212 94.6045 134.49 94.2199C134.827 93.8071 136.015 92.486 135.995 92.2383C135.975 91.9906 136.393 90.5651 136.81 89.9248C137.227 89.2845 137.394 87.9971 137.374 87.8943ZM132.734 89.4631C132.295 89.6484 131.878 90.6813 131.857 90.9914C131.837 91.3014 131.376 92.6629 130.896 92.8281C130.453 92.9797 129.608 93.7582 129.474 93.8829C129.336 93.8947 129.179 93.9132 129.016 93.9402C128.832 92.6377 128.651 91.5592 128.534 91.3419C128.198 90.7218 128.903 88.7402 128.903 88.7402C128.903 88.7402 128.972 86.7384 129.408 86.2632C129.844 85.788 129.745 84.59 129.745 84.59C129.745 84.59 129.849 84.0946 129.891 83.8688C129.933 83.643 130.512 83.8688 130.517 83.8688C130.517 83.8688 131.645 84.4872 131.814 85.4156C131.982 86.3441 133.214 87.955 133.214 87.955C133.214 87.955 133.026 88.5127 133.214 88.7975C133.403 89.0823 133.174 89.2777 132.734 89.4631Z" fill="url(#paint0_linear)"/>
<path d="M102.512 71.819C102.856 71.2525 103.358 70.7997 103.957 70.5174C104.556 70.2351 105.224 70.1357 105.879 70.2317V72.643H104.416L103.272 72.3532L102.512 71.819Z" fill="#4C4981"/>
<path opacity="0.1" d="M102.512 71.819C102.856 71.2525 103.358 70.7997 103.957 70.5174C104.556 70.2351 105.224 70.1357 105.879 70.2317V72.643H104.416L103.272 72.3532L102.512 71.819Z" fill="black"/>
<path d="M105.989 70.8704L104.196 72.1274C104.196 72.1274 104.181 71.8763 104.135 71.5326C104.046 70.8821 103.846 69.9065 103.413 69.7178C102.755 69.428 95.427 66.6679 98.0262 65.7394C100.625 64.811 104.613 67.8541 104.613 67.8541C104.613 67.8541 104.819 67.9249 105.147 68.604C105.315 68.9612 105.546 69.5695 105.719 70.0666C105.879 70.5148 105.989 70.8704 105.989 70.8704Z" fill="#AE6E79"/>
<path d="M120.311 72.8069L120.515 72.7108L121.087 73.3646L120.619 74.3639L119.821 74.0437L120.006 73.245L120.311 72.8069Z" fill="#4C4981"/>
<path d="M117.599 131.33C117.599 131.33 117.084 131.269 116.879 132.073C116.673 132.877 116.363 135.106 116.363 135.106C116.363 135.106 116.241 136.466 115.993 136.776C115.746 137.086 115.5 139.022 117.249 139.268C118.998 139.514 119.761 138.326 119.761 138.326L119.698 132.922L117.599 131.33Z" fill="#444053"/>
<path d="M123.703 131.572C123.703 131.572 124.804 132.752 124.784 134.089C124.764 135.427 124.659 137.262 124.659 137.262C124.659 137.262 124.558 138.005 124.784 138.211C125.009 138.417 124.784 139.448 124.784 139.448C124.784 139.448 122.848 141.246 121.222 139.296C121.222 139.296 120.905 138.182 121.037 137.465C121.168 136.747 121.535 133.52 121.535 133.52L123.703 131.572Z" fill="#444053"/>
<path d="M126.43 106.932C126.43 106.932 125.319 110.043 124.844 110.764C124.37 111.485 124.043 112.786 124.043 112.786L123.611 115.443C123.526 116.037 123.478 116.636 123.466 117.236C123.486 117.834 122.395 126.549 122.395 126.549L120.666 128.755C120.666 128.755 119.905 130.3 120.028 130.945C120.151 131.591 119.946 132.615 119.692 132.924C119.692 132.924 119.651 134.946 119.589 135.396C119.527 135.845 119.816 137.128 119.589 137.354C119.362 137.579 116.337 137.478 116.254 137.106C116.172 136.733 116.624 134.942 116.624 134.942L116.892 133.212C116.892 133.212 117.427 132.265 117.305 131.955C117.182 131.645 117.53 130.925 117.55 130.863C117.57 130.8 118.128 129.791 118.025 129.4C117.922 129.009 118.673 120.695 118.673 120.695L120.793 105.798L126.43 106.932Z" fill="#AE6E79"/>
<path opacity="0.1" d="M126.43 106.932C126.43 106.932 126.262 107.4 126.031 108.016C125.664 108.986 125.136 110.322 124.844 110.764C124.371 111.485 124.041 112.786 124.041 112.786L123.609 115.445C123.525 116.039 123.477 116.638 123.466 117.238C123.466 117.474 123.308 118.978 123.106 120.712C122.794 123.363 122.395 126.551 122.395 126.551L120.666 128.757C120.666 128.757 120.579 128.925 120.469 129.191C120.252 129.697 119.946 130.517 120.028 130.94C120.151 131.579 119.946 132.609 119.692 132.919C119.692 132.919 119.649 134.941 119.589 135.391C119.528 135.84 119.816 137.121 119.589 137.349C119.362 137.576 116.337 137.473 116.254 137.103C116.172 136.732 116.624 134.939 116.624 134.939L116.892 133.207C116.892 133.207 117.427 132.26 117.303 131.95C117.178 131.64 117.53 130.92 117.55 130.858C117.57 130.795 118.128 129.786 118.025 129.395C117.946 129.097 118.362 124.215 118.555 121.9C118.621 121.172 118.663 120.699 118.663 120.699L120.486 107.882L120.634 106.849L120.782 105.801L126.43 106.932Z" fill="black"/>
<path d="M124.578 137.921C124.597 138.149 121.675 138.479 121.257 138.231C120.84 137.983 121.257 134.913 121.257 134.913L121.447 133.513C121.244 133.491 120.934 132.379 121.077 132.111C121.22 131.843 120.954 130.711 120.954 130.711L120.469 129.194L120.173 128.266C119.692 127.203 118.995 124.17 118.562 121.905C118.289 120.483 118.116 119.362 118.155 119.219C118.257 118.848 117.986 116.149 117.986 116.149C117.986 116.149 117.65 113.407 117.205 112.543C116.904 111.97 116.316 109.818 115.953 108.43C115.768 107.717 115.64 107.205 115.64 107.205C115.64 107.205 118.751 106.943 120.638 106.852C121.505 106.81 122.114 106.805 122.043 106.876C121.973 106.947 121.954 107.324 121.957 107.87C121.966 109.284 122.163 111.771 122.372 112.44C122.659 113.367 122.947 116.147 122.824 116.417C122.701 116.686 122.742 118.478 122.742 118.478C122.954 119.205 123.076 119.956 123.106 120.714C123.171 122.055 123.148 123.4 123.035 124.739C123.035 124.739 123.343 129.747 123.26 130.221C123.178 130.694 123.919 132.179 123.919 132.467C123.919 132.755 124.124 134.713 124.124 134.713C124.124 134.713 124.565 137.695 124.578 137.921Z" fill="#AE6E79"/>
<path d="M126.203 77.7324L125.849 78.1149L125.619 78.3643L124.272 79.8134L120.792 80.2061L118.941 79.7107L118.483 79.5877C118.483 79.5877 118.483 78.6575 118.565 77.542C118.683 76.1114 118.964 74.3742 119.636 73.9007C119.972 73.6371 120.241 73.2968 120.419 72.9082C120.553 72.6402 120.666 72.3618 120.755 72.0758C120.769 72.0387 120.779 72.0033 120.791 71.9663C120.942 71.4669 121.051 70.9556 121.117 70.4379C121.117 70.4379 121.562 70.1919 122.18 69.9055C123.791 69.1523 126.573 68.1126 125.605 70.4379C125.463 70.7785 125.342 71.1273 125.242 71.4826C125.227 71.5349 125.213 71.5871 125.201 71.6377C124.878 72.9318 125.092 73.717 125.333 74.1501C125.373 74.2251 125.42 74.2966 125.472 74.3641C125.538 74.4545 125.617 74.5345 125.706 74.6016L126.107 77.1477L126.141 77.3584L126.203 77.7324Z" fill="#AE6E79"/>
<path opacity="0.1" d="M125.607 70.5626C125.423 71.0041 125.696 70.202 125.607 70.5626C124.873 71.0849 123.144 72.5728 122.173 72.5728C121.516 72.5728 121.319 72.4532 120.757 72.1987C120.927 71.6655 121.048 71.1179 121.119 70.5626C121.119 70.5626 126.945 67.3475 125.607 70.5626Z" fill="black"/>
<path d="M127.09 67.8544C127.089 68.9641 126.678 70.0343 125.936 70.8589C125.195 71.6836 124.174 72.2045 123.072 72.3214C122.917 72.3365 122.76 72.3467 122.602 72.3467C121.714 72.3467 120.847 72.0832 120.109 71.5896C119.371 71.0959 118.795 70.3944 118.456 69.5735C118.116 68.7526 118.027 67.8494 118.2 66.978C118.374 66.1065 118.801 65.3061 119.429 64.6778C120.056 64.0496 120.856 63.6217 121.727 63.4484C122.597 63.275 123.499 63.364 124.32 63.704C125.14 64.044 125.841 64.6198 126.334 65.3586C126.827 66.0973 127.09 66.9659 127.09 67.8544Z" fill="#AE6E79"/>
<path opacity="0.1" d="M127.728 87.7687L127.088 89.4385C127.088 89.4385 126.568 89.4604 125.757 89.4857C123.018 89.5733 116.983 89.6845 116.714 88.9802C116.653 88.8015 116.621 88.6144 116.619 88.4258C116.584 87.3525 117.084 85.7045 117.084 85.7045C117.084 85.7045 117.372 82.4069 117.372 82.2637C117.372 82.1205 117.124 79.8103 117.124 79.8103L117.619 77.9567L118.998 76.9879C118.998 76.9879 119.616 77.9365 119.986 78.0174C120.357 78.0983 120.851 78.5549 120.851 78.5549C120.851 78.5549 122.065 79.2963 122.457 78.8835C122.85 78.4707 125.895 76.6576 125.895 76.6576L127.501 78.4302L127.728 87.7687Z" fill="black"/>
<path d="M127.728 88.0245L127.088 89.6927C127.088 89.6927 126.568 89.7163 125.757 89.7416H125.678C125.328 89.7534 124.927 89.7652 124.499 89.7736C122.323 89.8242 119.325 89.8376 117.757 89.6051C117.168 89.5209 116.783 89.3995 116.719 89.2344C116.683 89.1351 116.658 89.0323 116.645 88.9277C116.634 88.8502 116.628 88.7592 116.624 88.68C116.589 87.6067 117.089 85.9587 117.089 85.9587C117.089 85.9587 117.377 82.6611 117.377 82.5179C117.377 82.3746 117.129 80.0645 117.129 80.0645L117.624 78.2109L118.572 77.547L119.003 77.2437C119.148 77.4609 119.306 77.6691 119.476 77.8672C119.609 78.0457 119.787 78.1858 119.991 78.2733C120.363 78.3558 120.856 78.8108 120.856 78.8108C120.856 78.8108 122.07 79.5522 122.462 79.1394C122.76 78.8243 124.612 77.6903 125.467 77.1729C125.73 77.0129 125.9 76.9135 125.9 76.9135L126.115 77.1527L127.506 78.6861L127.728 88.0245Z" fill="white"/>
<path opacity="0.1" d="M105.989 70.8709L104.196 72.1279C104.196 72.1279 104.181 71.8769 104.135 71.5331C105.021 71.159 105.559 70.3317 105.714 70.0671C105.879 70.5154 105.989 70.8709 105.989 70.8709Z" fill="black"/>
<path d="M112.288 75.1368L111.897 75.0323C111.897 75.0323 111.258 75.7064 110.887 75.7957C110.517 75.885 109.736 76.3922 109.736 76.3922L108.829 77.1134C108.829 77.1134 108.155 77.2178 108.356 76.7427C108.556 76.2675 107.985 75.671 107.985 75.671C107.985 75.671 106.832 73.3018 106.832 72.8064C106.832 72.311 105.879 70.2317 105.879 70.2317C105.879 70.2317 104.684 72.5604 102.502 71.819C102.502 71.819 104.088 75.3828 104.128 76.2692C104.169 77.1555 105.219 79.6274 105.219 79.6274C105.219 79.6274 105.612 81.4624 107.731 81.3596C107.731 81.3596 110.655 81.9039 111.293 81.3596C111.931 80.8154 112.507 80.3874 112.808 80.325C113.109 80.2627 113.384 79.9139 113.384 79.9139V77.4638L112.288 75.1368Z" fill="#4C4981"/>
<path opacity="0.1" d="M108.623 77.4641C108.623 77.4641 109.138 79.3817 108.808 79.5873L108.623 77.4641Z" fill="black"/>
<path opacity="0.1" d="M125.757 89.7327C123.018 89.8203 116.983 89.9299 116.714 89.2272C116.653 89.0486 116.621 88.8615 116.619 88.6729L125.567 89.1447L125.757 89.7327Z" fill="black"/>
<path opacity="0.1" d="M126.43 106.932C126.43 106.932 126.262 107.4 126.031 108.015C124.895 107.946 123.39 107.874 121.961 107.864C121.456 107.864 120.961 107.864 120.493 107.881C119.5 107.911 118.641 107.992 118.094 108.147C117.402 108.36 116.679 108.454 115.956 108.423C115.771 107.71 115.643 107.198 115.643 107.198C115.643 107.198 118.754 106.937 120.641 106.846L120.789 105.798L126.43 106.932Z" fill="black"/>
<path d="M128.839 99.3899L128.489 100.131C128.489 100.131 128.44 100.352 128.378 100.703C128.247 101.457 128.041 102.819 128.119 103.904C128.221 105.491 127.891 107.901 127.891 107.901C127.891 107.901 120.316 107.262 118.094 107.901C115.872 108.54 114.778 107.901 114.778 107.901C114.778 107.901 115.047 105.512 114.387 104.275C113.938 103.432 113.621 99.6713 113.611 97.1977C113.611 96.0569 113.668 95.1925 113.811 95.0173C114.264 94.4612 116.198 88.8972 116.198 88.8972L116.64 88.9208L117.818 88.9832L124.518 89.337L125.57 89.3926L125.681 89.7296L128.839 99.3899Z" fill="#444053"/>
<path d="M132.174 96.9167L132.236 97.5772C132.236 97.5772 128.918 96.4954 129.087 95.1659C129.255 93.8364 129.087 93.9864 129.087 93.9864L131.753 94.2122L132.174 96.9167Z" fill="#4C4981"/>
<path opacity="0.1" d="M132.174 96.9167L132.236 97.5772C132.236 97.5772 128.918 96.4954 129.087 95.1659C129.255 93.8364 129.087 93.9864 129.087 93.9864L131.753 94.2122L132.174 96.9167Z" fill="black"/>
<path opacity="0.1" d="M110.837 77.9964C111.176 78.2845 111.575 78.4924 112.005 78.6047C111.881 78.5776 111.765 78.5197 111.668 78.4362C111.431 78.2677 111.205 78.084 110.977 77.9054C110.791 77.7605 110.561 77.5195 110.333 77.4606C110.482 77.6562 110.651 77.8357 110.837 77.9964Z" fill="black"/>
<path opacity="0.1" d="M110.887 78.8644C110.994 78.985 111.08 79.1222 111.143 79.2705C111.249 79.6899 111.243 80.13 111.125 80.5461L110.593 79.2621C110.5 79.043 110.408 78.824 110.296 78.6151C110.248 78.5257 109.941 78.1534 109.977 78.0758C110.071 77.8568 110.788 78.7414 110.887 78.8644Z" fill="black"/>
<path opacity="0.1" d="M125.73 85.9749C126.092 85.9309 126.432 85.7721 126.698 85.5216C126.151 85.5907 125.632 85.8064 125.094 85.9193C124.593 86.0356 124.069 85.9871 123.599 85.7811C124.218 86.0844 125.07 86.0945 125.73 85.9749Z" fill="black"/>
<path opacity="0.1" d="M124.183 82.2027C124.085 82.2173 123.985 82.1924 123.905 82.1336C123.494 81.8977 123.089 81.6517 122.69 81.3955C122.301 81.1445 121.831 80.89 121.499 80.5732C122.316 81.3113 123.077 81.9348 124.183 82.2027Z" fill="black"/>
<path opacity="0.1" d="M125.324 86.5736C125.54 86.5834 125.756 86.5658 125.967 86.5214C126.181 86.4769 126.37 86.3528 126.496 86.1743C126.419 86.1566 126.339 86.1693 126.272 86.2096C125.62 86.4844 124.903 86.5702 124.205 86.4573C124.54 86.6006 124.969 86.5719 125.324 86.5736Z" fill="black"/>
<path opacity="0.1" d="M121.425 96.1413C120.997 96.2706 120.556 96.357 120.111 96.3991C119.764 96.4151 119.416 96.4083 119.07 96.3789L117.387 96.2727L116.545 96.2188C116.446 96.2188 116.04 96.2188 116.24 96.0183C116.341 95.9205 116.904 95.9829 117.049 95.9778C117.328 95.9688 117.609 95.9638 117.89 95.9626C118.447 95.9626 119.006 95.9626 119.564 95.9963C120.188 96.0267 120.802 96.0739 121.425 96.1413Z" fill="black"/>
<path opacity="0.1" d="M119.474 96.9751C119.188 96.9633 118.82 97.1335 118.525 97.1705C118.195 97.2095 117.863 97.2225 117.532 97.2093C116.876 97.1935 116.228 97.0611 115.618 96.8184C116.902 96.8841 118.19 96.9228 119.474 96.9751Z" fill="black"/>
<path opacity="0.1" d="M115.869 97.858C115.993 97.8832 116.116 97.917 116.235 97.9591C116.946 98.1613 117.702 97.9827 118.424 97.8041C118.244 98.0754 117.919 98.1917 117.594 98.2658C117.066 98.3998 116.515 98.4199 115.978 98.3248C115.81 98.2911 115.387 98.2304 115.305 98.0552C115.167 97.7973 115.71 97.8327 115.869 97.858Z" fill="black"/>
<path opacity="0.1" d="M119.851 99.1874C120.064 99.231 120.275 99.2873 120.481 99.3559C121.281 99.5547 122.111 99.2817 122.914 99.0981C123.879 98.8786 124.869 98.7869 125.858 98.8251C125.681 98.8251 125.4 98.9801 125.227 99.0323C124.999 99.1014 124.769 99.1655 124.538 99.2228C124.085 99.334 123.626 99.425 123.163 99.4907C122.228 99.6259 121.282 99.6671 120.34 99.6137C119.909 99.5901 119.161 99.6339 118.793 99.4165C119.111 99.227 119.483 99.1465 119.851 99.1874Z" fill="black"/>
<path opacity="0.1" d="M120.153 73.7746C120.153 73.7746 120.193 75.6719 119.885 76.538C119.788 76.8076 119.636 77.3047 119.471 77.8625C119.291 78.4809 119.094 79.1734 118.942 79.716C118.791 80.2586 118.69 80.6225 118.69 80.6225C118.69 80.6225 117.995 86.291 117.815 88.9921C117.815 89.0393 117.815 89.0881 117.804 89.1336C117.794 89.2853 117.778 89.4437 117.752 89.6071C117.352 92.2897 115.04 96.4265 114.264 96.7567C114.022 96.8679 113.801 97.0201 113.611 97.2066C113.611 96.0659 113.668 95.2014 113.811 95.0262C114.264 94.4701 116.198 88.9062 116.198 88.9062L116.64 88.9297C116.629 88.8522 116.623 88.7612 116.619 88.6821C116.584 87.6087 117.084 85.9607 117.084 85.9607C117.084 85.9607 117.372 82.6631 117.372 82.5199C117.372 82.3767 117.124 80.0665 117.124 80.0665L117.619 78.2129L118.567 77.549C118.685 76.1185 118.966 74.3812 119.638 73.9077C119.974 73.6442 120.242 73.3039 120.42 72.9152C120.553 72.9337 120.311 72.8158 120.311 72.8158L120.153 73.7746Z" fill="black"/>
<path d="M120.515 72.7108C120.343 72.652 120.161 72.6321 119.98 72.6525C119.8 72.6729 119.627 72.7331 119.473 72.8287C118.998 73.1657 118.072 73.1371 117.825 73.0764C117.577 73.0158 115.005 72.6838 114.794 72.7664C114.584 72.8489 114.177 72.4782 113.909 72.9736C113.641 73.469 113.518 73.7353 113.251 73.8583C112.983 73.9813 112.508 74.3739 112.577 74.4565C112.646 74.539 111.904 75.0327 111.904 75.0327L113.406 79.9193C113.406 79.9193 112.438 86.1 111.965 86.6358C111.492 87.1717 107.291 94.1157 108.795 95.3525C109.985 96.2892 111.244 97.1342 112.562 97.88C112.731 97.9626 113.323 96.8505 114.146 96.5C114.969 96.1495 117.523 91.5123 117.681 88.8752C117.84 86.2382 118.567 80.3659 118.567 80.3659C118.567 80.3659 119.452 77.1508 119.76 76.2847C120.069 75.4186 120.028 73.5213 120.028 73.5213L120.515 72.7108Z" fill="#4C4981"/>
<path opacity="0.1" d="M128.839 99.3902L128.489 100.132C128.489 100.132 128.44 100.352 128.378 100.703C128.315 100.695 128.257 100.669 128.209 100.627C127.694 100.214 124.674 97.1036 124.525 94.3419C124.419 92.3047 124.469 90.5489 124.503 89.767C124.513 89.521 124.523 89.3727 124.523 89.3407C124.523 89.3407 126.87 86.4964 126.602 85.4887C126.334 84.4811 125.716 79.0856 125.716 79.0856L125.625 78.3779L125.469 77.1815L125.095 74.2866L125.482 74.3776C125.548 74.468 125.627 74.5481 125.716 74.6152L126.117 77.1613L127.508 78.6947L127.735 88.0297L127.095 89.6979C127.095 89.6979 126.575 89.7215 125.764 89.7468H125.684L128.839 99.3902Z" fill="black"/>
<path d="M130.135 83.98C130.135 83.98 129.56 83.7525 129.519 83.98C129.479 84.2074 129.374 84.6995 129.374 84.6995C129.374 84.6995 129.477 85.8958 129.038 86.3693C128.598 86.8428 128.533 88.8413 128.533 88.8413C128.533 88.8413 127.839 90.8195 128.167 91.4379C128.287 91.662 128.472 92.7859 128.657 94.1339C128.775 94.9765 128.891 95.9015 128.994 96.7474C129.181 98.2842 129.321 99.5564 129.321 99.5564C129.321 99.5564 128.949 100.916 128.433 100.503C127.918 100.091 124.898 96.98 124.75 94.2182C124.649 92.2787 124.69 90.5937 124.723 89.763C124.737 89.4108 124.75 89.212 124.75 89.212C124.75 89.212 127.097 86.3676 126.829 85.3583C126.561 84.349 125.944 78.9552 125.944 78.9552L125.836 78.1211L125.72 77.2247L125.693 77.0275L125.321 74.163C125.386 74.1781 127.696 74.7005 128.001 75.0055C128.305 75.3105 130.189 75.7469 130.189 75.7469C130.473 75.8241 130.732 75.9761 130.937 76.1871C131.143 76.3981 131.288 76.6604 131.357 76.9466C131.376 77.0039 131.389 77.0646 131.403 77.1269C131.65 78.3233 131.571 78.4665 131.74 78.6738C131.908 78.8811 130.135 83.98 130.135 83.98Z" fill="#4C4981"/>
<path opacity="0.1" d="M129.008 96.7457C128.166 96.5772 126.917 96.1879 126.945 95.3286C126.971 94.5248 127.937 94.235 128.669 94.1322C128.787 94.9713 128.903 95.8998 129.008 96.7457Z" fill="black"/>
<path d="M131.618 96.3176C131.585 96.3901 131.45 96.4524 131.258 96.508C130.808 96.6153 130.351 96.6902 129.89 96.7321C129.89 96.7321 127.028 96.5046 127.068 95.2055C127.098 94.2737 128.391 94.026 129.117 93.9704C129.277 93.9554 129.439 93.9486 129.6 93.9502C129.6 93.9502 131.741 96.0514 131.618 96.3176Z" fill="#AE6E79"/>
<path opacity="0.1" d="M131.618 96.3176C131.585 96.3901 131.45 96.4524 131.258 96.508C130.512 95.5088 129.472 94.2265 128.962 94.1136L129.117 93.9704C129.277 93.9554 129.439 93.9486 129.6 93.9502C129.6 93.9502 131.741 96.0514 131.618 96.3176Z" fill="black"/>
<path d="M130.898 78.5359L131.74 78.6606C132.044 79.1964 132.381 79.7125 132.75 80.2058C132.976 80.4872 133.106 80.8339 133.12 81.1949C133.12 81.1949 134.356 83.0282 134.746 83.2338C135.137 83.4393 135.734 84.8413 135.734 84.8413C135.734 84.8413 136.702 85.4799 136.702 86.2011C136.72 86.8025 136.781 87.4018 136.888 87.994C136.909 88.0968 136.744 89.3757 136.332 90.016C135.92 90.6563 135.507 92.0684 135.529 92.3211C135.551 92.5739 134.376 93.8882 134.048 94.2994C133.774 94.6838 133.533 95.0908 133.327 95.516L132.236 97.5767C132.236 97.5767 129.93 94.1763 129.087 93.991C129.087 93.991 130.033 93.0844 130.506 92.9193C130.979 92.7542 131.433 91.4028 131.454 91.086C131.474 90.7692 131.886 89.7464 132.317 89.5695C132.748 89.3925 132.977 89.1988 132.792 88.9089C132.607 88.6191 132.792 88.0664 132.792 88.0664C132.792 88.0664 131.576 86.4589 131.411 85.5389C131.246 84.6189 130.135 83.9937 130.135 83.9937L129.497 82.4266L130.898 78.5359Z" fill="#4C4981"/>
<path opacity="0.1" d="M133.96 86.2281C134.426 85.8344 135.012 85.6121 135.621 85.5979C135.231 85.6653 134.82 85.7512 134.534 86.0242C134.422 86.1424 134.321 86.271 134.233 86.4084C134.135 86.5483 133.34 87.5593 133.223 87.3992C133.026 87.165 133.8 86.3646 133.96 86.2281Z" fill="black"/>
<path opacity="0.1" d="M132.095 85.2522C132.221 85.2413 132.342 85.197 132.445 85.1239C132.548 85.0507 132.63 84.9514 132.682 84.836C132.783 84.6038 132.845 84.3568 132.866 84.1047C132.926 83.6828 133.011 83.2647 133.12 82.8527C133.153 82.7713 133.166 82.6835 133.16 82.5959C133.154 82.5083 133.128 82.4233 133.085 82.3472C133.039 82.2156 132.978 82.09 132.903 81.9731C132.751 82.1416 132.707 82.5343 132.645 82.7601C132.568 83.0398 132.497 83.3212 132.43 83.6026C132.394 83.7374 132.115 85.2522 132.095 85.2522Z" fill="black"/>
<path opacity="0.1" d="M131.366 76.934C131.283 77.0426 131.187 77.141 131.081 77.2272C130.745 77.4951 130.299 77.7209 130.257 78.1438C130.268 78.2812 130.251 78.4196 130.206 78.5499C130.098 78.7353 129.834 78.7184 129.624 78.683C129.446 78.667 129.276 78.6042 129.13 78.5011C128.91 78.3123 128.89 77.9753 128.721 77.7377C128.619 77.6151 128.49 77.5177 128.344 77.4532C128.198 77.3886 128.039 77.3585 127.88 77.3654C127.565 77.3552 127.252 77.426 126.937 77.4395C126.735 77.4497 126.532 77.4361 126.333 77.3991C126.267 77.389 126.202 77.3755 126.137 77.3586C125.997 77.3239 125.859 77.2771 125.727 77.2188C125.658 77.1914 125.591 77.1599 125.526 77.1244C125.315 77.0161 125.12 76.8801 124.945 76.72C124.637 76.4369 124.381 76.046 124.407 75.6264C124.422 75.3686 124.538 75.131 124.575 74.8766C124.701 74.1486 124.218 73.4611 123.695 72.9405C123.486 72.7332 123.264 72.5327 123.055 72.3221C122.73 72.022 122.473 71.6553 122.303 71.247C122.162 70.8124 122.116 70.3528 122.168 69.899C122.215 69.4389 122.228 68.9759 122.207 68.5139C122.052 66.876 120.654 65.6207 119.257 64.9382L119.195 64.9062C119.609 64.4301 120.12 64.0468 120.692 63.7814C121.265 63.516 121.887 63.3745 122.518 63.3661C123.149 63.3577 123.774 63.4826 124.354 63.7327C124.933 63.9828 125.453 64.3523 125.88 64.8173C126.307 65.2823 126.631 65.8322 126.832 66.4311C127.032 67.03 127.104 67.6645 127.042 68.2931C126.981 68.9216 126.788 69.5302 126.475 70.079C126.163 70.6277 125.739 71.1044 125.23 71.4779C125.215 71.5301 125.201 71.5823 125.19 71.6329C124.866 72.927 125.08 73.7122 125.321 74.1453C125.386 74.1604 127.696 74.6828 128.001 74.9878C128.305 75.2928 130.189 75.7292 130.189 75.7292C130.475 75.8055 130.736 75.9576 130.943 76.1697C131.15 76.3817 131.296 76.6458 131.366 76.934Z" fill="black"/>
<path d="M118.899 63.718C118.991 63.6119 119.131 63.558 119.225 63.4552C119.516 63.1384 119.225 62.6211 119.331 62.2032C119.446 61.7398 120.015 61.5376 120.489 61.5865C120.964 61.6353 121.409 61.8544 121.883 61.9083C122.621 61.9909 123.334 61.6707 124.053 61.4837C124.772 61.2966 125.641 61.2865 126.136 61.8375C126.63 62.3885 126.597 63.3271 127.213 63.7265C127.497 63.9101 127.856 63.9303 128.164 64.0635C128.501 64.2366 128.781 64.5042 128.969 64.8335C129.456 65.6002 129.671 66.5092 129.578 67.4133C129.526 67.902 129.385 68.3771 129.327 68.8658C129.269 69.3733 129.303 69.8871 129.428 70.3823C129.558 70.8878 129.839 71.4338 130.342 71.5956C130.459 71.6212 130.572 71.6602 130.679 71.7118C130.97 71.8938 130.932 72.3218 130.858 72.6554L130.558 74.0389C130.846 74.2579 131.294 74.1635 131.568 74.3944C131.678 74.4949 131.759 74.6228 131.804 74.7651C131.939 75.152 131.954 75.5709 131.846 75.9663C131.738 76.3617 131.512 76.715 131.199 76.9792C130.863 77.2472 130.416 77.473 130.374 77.8942C130.387 78.0316 130.37 78.1702 130.324 78.3003C130.218 78.4857 129.952 78.4688 129.741 78.4334C129.564 78.4171 129.395 78.3543 129.25 78.2514C129.028 78.0627 129.009 77.7257 128.841 77.4881C128.738 77.3657 128.609 77.2684 128.463 77.2039C128.317 77.1393 128.159 77.1092 127.999 77.1157C127.683 77.1056 127.371 77.1764 127.055 77.1916C126.325 77.2215 125.612 76.9638 125.07 76.4737C124.76 76.189 124.506 75.7997 124.53 75.3785C124.545 75.1223 124.661 74.8831 124.698 74.6286C124.823 73.9024 124.341 73.2132 123.818 72.6925C123.294 72.1718 122.68 71.6916 122.424 70.9991C122.104 70.1414 122.414 69.1843 122.328 68.2744C122.173 66.6348 120.777 65.3812 119.378 64.697C119.067 64.537 118.537 64.1309 118.899 63.718Z" fill="#444053"/>
<path opacity="0.1" d="M129.908 77.8692C129.686 77.6788 129.667 77.3434 129.499 77.1058C129.397 76.9833 129.267 76.8859 129.121 76.821C128.976 76.7562 128.817 76.7256 128.657 76.7318C128.341 76.7217 128.028 76.7924 127.713 76.8076C126.98 76.8398 126.265 76.5812 125.721 76.0881C125.412 75.805 125.159 75.4141 125.183 74.9945C125.198 74.7367 125.314 74.4974 125.351 74.2447C125.477 73.5167 124.994 72.8275 124.471 72.3069C123.947 71.7862 123.334 71.306 123.077 70.6134C122.759 69.7574 123.077 68.8003 122.983 67.8887C122.826 66.2492 121.43 64.9955 120.033 64.3114C119.707 64.1513 119.176 63.7452 119.538 63.3324C119.629 63.2262 119.769 63.1723 119.863 63.0695C120.154 62.7544 119.863 62.2354 119.971 61.8192C119.992 61.7364 120.028 61.6581 120.077 61.5884C119.725 61.6541 119.404 61.8529 119.318 62.1899C119.215 62.6078 119.503 63.1251 119.212 63.4419C119.117 63.5447 118.978 63.5986 118.885 63.7031C118.523 64.1159 119.053 64.5237 119.38 64.6821C120.779 65.3662 122.174 66.6216 122.329 68.2594C122.415 69.171 122.105 70.1281 122.425 70.9858C122.681 71.6767 123.296 72.1653 123.819 72.6793C124.343 73.1932 124.829 73.8874 124.7 74.6154C124.629 74.8617 124.572 75.1121 124.531 75.3652C124.508 75.7848 124.762 76.1757 125.072 76.4588C125.614 76.9521 126.329 77.2108 127.061 77.1783C127.378 77.1631 127.689 77.094 128.006 77.1025C128.165 77.0965 128.324 77.1271 128.47 77.1919C128.616 77.2567 128.745 77.3541 128.847 77.4765C129.016 77.7141 129.034 78.0511 129.257 78.2399C129.402 78.3422 129.571 78.4044 129.748 78.4202C129.959 78.4589 130.225 78.4724 130.331 78.2887C130.368 78.2138 130.385 78.1298 130.378 78.0461C130.208 78.0295 130.046 77.9684 129.908 77.8692Z" fill="black"/>
<path d="M105.403 67.8542H93.7587V56.369H105.411L105.403 67.8542ZM105.234 50.5371H93.9271C93.9271 32.6893 110.876 33.7323 110.876 22.4409C110.876 16.2215 105.79 11.2388 99.5766 11.2388C93.3631 11.2388 88.2792 16.6107 88.2792 22.6178H76.9803C76.9752 19.6461 77.5561 16.7027 78.6899 13.9562C79.8237 11.2097 81.4879 8.7143 83.5872 6.61299C85.6865 4.51168 88.1795 2.84584 90.9233 1.71097C93.6671 0.576114 96.6077 -0.00543795 99.5766 -0.00033289C112.057 -0.00033289 122.173 9.96662 122.173 22.4409C122.173 36.5598 105.226 38.1673 105.226 50.5371H105.234Z" fill="#FFC61E"/>
<path opacity="0.1" d="M47.3271 64.4338H44.3239V61.4648H47.3271V64.4338ZM47.2817 59.9685H44.3694C44.3694 55.3684 48.7378 55.6363 48.7378 52.7229C48.7363 52.3417 48.6597 51.9645 48.5125 51.613C48.3653 51.2614 48.1503 50.9423 47.8798 50.674C47.6094 50.4056 47.2888 50.1932 46.9363 50.0489C46.5838 49.9046 46.2063 49.8313 45.8255 49.833C45.0564 49.8508 44.3242 50.1662 43.7824 50.7128C43.2406 51.2595 42.9315 51.995 42.92 52.765H40.0077C40.027 51.2351 40.6462 49.7741 41.7317 48.697C42.8173 47.6198 44.2822 47.0128 45.8107 47.0069C47.3393 47.0009 48.8089 47.5964 49.9028 48.6651C50.9967 49.7337 51.6273 51.1898 51.6585 52.7195C51.6501 56.3592 47.2817 56.7737 47.2817 59.9617V59.9685Z" fill="#FFC61E"/>
<path opacity="0.1" d="M70.0665 85.0604H67.0634V82.0998H70.0665V85.0604ZM70.0228 80.5968H67.1105C67.1105 75.9949 71.4789 76.2645 71.4789 73.3511C71.4774 72.97 71.4008 72.5929 71.2536 72.2415C71.1063 71.89 70.8913 71.571 70.6208 71.3028C70.3504 71.0346 70.0297 70.8223 69.6772 70.6782C69.3248 70.5341 68.9474 70.461 68.5666 70.463C67.7943 70.4769 67.0577 70.791 66.5126 71.3388C65.9675 71.8866 65.6567 72.6252 65.6459 73.3983H62.7336C62.753 71.8684 63.3721 70.4074 64.4577 69.3303C65.5432 68.2531 67.0082 67.6461 68.5367 67.6402C70.0652 67.6342 71.5348 68.2297 72.6288 69.2984C73.7227 70.367 74.3532 71.8231 74.3845 73.3528C74.3895 76.9925 70.0228 77.4087 70.0228 80.5968Z" fill="#FFC61E"/>
<path opacity="0.1" d="M83.894 48.5457H81.7173V46.404H83.894V48.5457ZM83.862 45.3087H81.751C81.751 41.9757 84.9175 42.1695 84.9175 40.0598C84.9161 39.7837 84.8605 39.5105 84.7537 39.2558C84.6469 39.0012 84.491 38.7701 84.295 38.5758C84.099 38.3815 83.8666 38.2277 83.6112 38.1232C83.3558 38.0188 83.0824 37.9657 82.8065 37.967C82.2478 37.9783 81.7154 38.2064 81.3216 38.6032C80.9277 38.9999 80.7032 39.5343 80.6955 40.0935H78.5845C78.58 38.9727 79.0206 37.896 79.8092 37.1003C80.5978 36.3046 81.6699 35.8551 82.7896 35.8506C83.9094 35.8462 84.985 36.2871 85.78 37.0765C86.5749 37.8659 87.024 38.939 87.0285 40.0598C87.0251 42.6969 83.862 42.9985 83.862 45.3087Z" fill="#FFC61E"/>
<path opacity="0.1" d="M121.07 51.5685H119.84V50.3553H121.07V51.5685ZM121.052 49.7403H119.851C119.851 47.8564 121.641 47.966 121.641 46.773C121.641 46.6169 121.61 46.4624 121.55 46.3184C121.49 46.1744 121.402 46.0438 121.291 45.9341C121.18 45.8244 121.049 45.7378 120.904 45.6793C120.76 45.6208 120.605 45.5917 120.449 45.5934C120.133 45.5999 119.833 45.7288 119.61 45.9529C119.387 46.177 119.26 46.4789 119.256 46.7949H118.062C118.076 46.1722 118.332 45.5796 118.776 45.1433C119.22 44.7069 119.817 44.4614 120.439 44.459C121.061 44.4566 121.66 44.6975 122.107 45.1303C122.555 45.5632 122.816 46.1538 122.834 46.7763C122.841 48.2575 121.052 48.4344 121.052 49.7403Z" fill="#FFC61E"/>
<path opacity="0.1" d="M139.884 106.748H138.653V105.535H139.884V106.748ZM139.865 104.92H138.672C138.672 103.035 140.463 103.146 140.463 101.953C140.461 101.638 140.334 101.337 140.11 101.116C139.886 100.895 139.584 100.771 139.269 100.773C138.954 100.779 138.653 100.908 138.43 101.132C138.207 101.356 138.08 101.659 138.076 101.975H136.882C136.896 101.352 137.153 100.759 137.597 100.323C138.041 99.8867 138.637 99.6412 139.26 99.6388C139.882 99.6364 140.48 99.8773 140.928 100.31C141.375 100.743 141.636 101.334 141.655 101.956C141.662 103.444 139.872 103.614 139.872 104.92H139.865Z" fill="#FFC61E"/>
</g>
<defs>
<linearGradient id="paint0_linear" x1="117.367" y1="140.203" x2="117.367" y2="61.2169" gradientUnits="userSpaceOnUse">
<stop stop-color="#808080" stop-opacity="0.25"/>
<stop offset="0.54" stop-color="#808080" stop-opacity="0.12"/>
<stop offset="1" stop-color="#808080" stop-opacity="0.1"/>
</linearGradient>
<clipPath id="clip0">
<rect width="169" height="141" fill="white"/>
</clipPath>
</defs>
</svg>
