<svg width="329" height="244" viewBox="0 0 329 244" fill="none" xmlns="http://www.w3.org/2000/svg">
<g clip-path="url(#clip0)">
<path d="M127.353 234.012C192.235 234.012 244.831 181.626 244.831 117.006C244.831 52.3853 192.235 0 127.353 0C62.4721 0 9.87549 52.3853 9.87549 117.006C9.87549 181.626 62.4721 234.012 127.353 234.012Z" fill="#F2F2F2"/>
<path d="M63.2353 43.3122L60.8027 62.9042C63.7886 68.7242 66.9511 75.3406 69.9672 82.4776L75.6958 52.935L75.9853 53.198C71.797 48.9773 67.3913 45.5415 62.9411 43.0762L63.2353 43.3122Z" fill="#FFC61E"/>
<path d="M60.277 61.8842L62.6336 42.9061C57.6275 40.1845 52.5702 38.6975 47.7071 38.7242C47.4541 38.7256 47.2042 38.7343 46.9546 38.7438C47.9313 40.2308 53.6055 48.9967 60.277 61.8842Z" fill="#FFC61E"/>
<path d="M99.2092 92.4522L99.4714 92.8046C98.6008 90.1679 97.6413 87.5849 96.5928 85.0557L81.8196 118.018L81.6934 117.861C82.0672 119.483 82.4116 121.089 82.7267 122.68L99.2092 92.4522Z" fill="#FFC61E"/>
<path d="M89.2053 70.5481L89.4845 70.862C85.785 64.5737 81.3508 58.744 76.2745 53.4946L70.4365 83.6001C73.2327 90.3021 75.6423 96.8442 77.6653 103.226L89.2053 70.5481Z" fill="#FFC61E"/>
<path d="M23.7572 69.0059C23.3687 74.1826 23.5064 79.3852 24.1681 84.5343L75.6923 98.9443C73.8257 93.4436 71.8167 88.2386 69.8178 83.4658L23.8194 69.4396L23.7572 69.0059Z" fill="#FFC61E"/>
<path d="M25.099 90.5013L25.0288 90.067L77.3067 103.897C76.882 102.537 76.4472 101.193 76.0022 99.8637L24.2879 85.4005L24.2207 84.9661C24.4526 86.7808 24.7454 88.6259 25.099 90.5013Z" fill="#FFC61E"/>
<path d="M96.1193 84.2341L96.39 84.5693C94.4725 79.9933 92.2472 75.5515 89.7292 71.2739L78.0332 104.394C79.3579 108.658 80.5032 112.833 81.4692 116.921L96.1193 84.2341Z" fill="#FFC61E"/>
<path d="M85.118 141.028C85.6516 150.485 84.9604 159.221 83.0444 167.139C87.1057 161.349 102.922 137.188 102.918 112.136L85.118 141.028Z" fill="#FFC61E"/>
<path d="M31.6519 110.562C33.8078 114.814 36.2474 118.917 38.9542 122.844L38.9051 122.367L84.4551 140.165C84.1067 134.875 83.4402 129.612 82.459 124.402L31.6519 110.562Z" fill="#FFC61E"/>
<path d="M59.8142 62.1317C52.5926 48.1901 46.5588 39.1258 46.4719 38.9959L46.6386 38.7571C39.2578 39.1417 33.4087 43.0922 29.4419 49.584L59.8142 62.1317Z" fill="#FFC61E"/>
<path d="M82.9629 123.912C83.0568 124.406 83.1536 124.901 83.2419 125.392C84.0967 130.097 84.6937 134.844 85.0302 139.613L102.661 110.995L102.91 111.347C102.872 106.937 102.274 102.549 101.129 98.288C100.671 96.6159 100.176 94.9613 99.642 93.3242L82.9629 123.912Z" fill="#FFC61E"/>
<path d="M69.4168 82.5144C66.43 75.4606 63.3024 68.9232 60.3505 63.1714L29.2814 50.3356L29.2422 49.9104C26.3062 54.8571 24.4408 61.2336 23.793 68.6024L69.4168 82.5144Z" fill="#FFC61E"/>
<path d="M84.5062 141.005L39.2896 123.337C55.5139 146.889 80.4223 167.096 82.0138 168.376C84.3752 159.635 85.0252 150.35 84.5062 141.005Z" fill="#FFC61E"/>
<path d="M82.2702 123.517L82.286 123.488C81.0579 117.181 79.4897 110.945 77.5881 104.806L25.1816 90.9419C25.6721 93.4805 26.2758 96.0649 26.9927 98.695C28.0503 102.448 29.4494 106.098 31.1727 109.598L82.2702 123.517Z" fill="#FFC61E"/>
<path d="M151.577 125.904L137.157 139.448C135.729 145.828 133.928 152.933 131.681 160.345L155.011 141.231L155.066 141.618C154.543 135.706 153.35 130.261 151.501 125.535L151.577 125.904Z" fill="#FFC61E"/>
<path d="M137.405 138.329L151.374 125.209C149.261 119.933 146.318 115.575 142.555 112.506C142.36 112.347 142.162 112.194 141.963 112.043C141.763 113.809 140.52 124.165 137.405 138.329Z" fill="#FFC61E"/>
<path d="M147.815 186.603L147.791 187.041C148.81 184.458 149.725 181.859 150.537 179.245L118.05 195.247L118.053 195.046C117.302 196.533 116.539 197.989 115.763 199.414L147.815 186.603Z" fill="#FFC61E"/>
<path d="M154.138 163.379L154.152 163.798C155.329 156.604 155.647 149.298 155.099 142.03L131.324 161.508C129.185 168.446 126.852 175.016 124.323 181.216L154.138 163.379Z" fill="#FFC61E"/>
<path d="M104.718 120.615C101.103 124.355 97.8777 128.449 95.0898 132.835L125.545 176.665C127.63 171.242 129.416 165.957 130.933 161.012L104.488 120.988L104.718 120.615Z" fill="#FFC61E"/>
<path d="M91.9858 138.022L92.2099 137.643L123.617 181.505C124.161 180.188 124.687 178.876 125.195 177.57L94.6276 133.579L94.854 133.201C93.8705 134.746 92.9144 136.353 91.9858 138.022Z" fill="#FFC61E"/>
<path d="M150.698 178.311L150.692 178.741C152.146 173.999 153.276 169.164 154.076 164.27L123.858 182.349C122.148 186.474 120.356 190.418 118.482 194.18L150.698 178.311Z" fill="#FFC61E"/>
<path d="M105.855 215.065C100.209 222.687 94.0826 228.977 87.5366 233.857C94.3724 231.978 122.026 223.417 138.066 204.12L105.855 215.065Z" fill="#FFC61E"/>
<path d="M84.1857 157.635C83.1233 162.28 82.3745 166.99 81.9443 171.734L82.2124 171.335L105.897 213.979C109.016 209.684 111.873 205.206 114.454 200.57L84.1857 157.635Z" fill="#FFC61E"/>
<path d="M136.891 138.226C140.257 122.9 141.414 112.086 141.43 111.931L141.712 111.853C135.781 107.46 128.746 106.787 121.534 109.267L136.891 138.226Z" fill="#FFC61E"/>
<path d="M115.156 200.513C114.912 200.953 114.669 201.396 114.423 201.83C112.069 205.997 109.488 210.032 106.693 213.919L138.599 203.078L138.565 203.507C141.361 200.086 143.71 196.327 145.556 192.318C146.275 190.739 146.953 189.15 147.59 187.55L115.156 200.513Z" fill="#FFC61E"/>
<path d="M131.233 160.024C133.45 152.694 135.228 145.672 136.638 139.367L120.928 109.744L121.17 109.392C115.741 111.336 110.221 115.063 105.003 120.326L131.233 160.024Z" fill="#FFC61E"/>
<path d="M105.398 214.658L81.8875 172.327C79.3005 200.773 85.5446 232.159 85.9506 234.156C93.3673 228.924 99.8136 222.186 105.398 214.658Z" fill="#FFC61E"/>
<path d="M114.875 199.769L114.906 199.756C117.999 194.119 120.785 188.319 123.251 182.384L91.7669 138.414C90.5189 140.681 89.3289 143.055 88.1967 145.536C86.6077 149.098 85.3483 152.798 84.4341 156.588L114.875 199.769Z" fill="#FFC61E"/>
<path d="M31.0913 126.579L34.8581 145.96C39.5039 150.576 44.565 155.895 49.6483 161.754L45.928 131.894L46.2849 132.055C40.9919 129.33 35.7357 127.419 30.7383 126.445L31.0913 126.579Z" fill="#FFC61E"/>
<path d="M34.0415 145.152L30.3929 126.377C24.7873 125.33 19.5162 125.473 14.8996 126.996C14.6594 127.075 14.4243 127.16 14.1899 127.246C15.5803 128.359 23.6971 134.949 34.0415 145.152Z" fill="#FFC61E"/>
<path d="M80.5537 162.237L80.9125 162.492C79.2663 160.252 77.5521 158.091 75.77 156.008L71.9498 191.904L71.7812 191.794C72.6401 193.222 73.4661 194.643 74.2593 196.059L80.5537 162.237Z" fill="#FFC61E"/>
<path d="M64.2419 144.485L64.6048 144.698C59.135 139.857 53.1087 135.677 46.6519 132.248L50.4428 162.676C55.182 168.189 59.5039 173.669 63.4085 179.116L64.2419 144.485Z" fill="#FFC61E"/>
<path d="M1.52002 163.167C2.75717 168.21 4.5027 173.116 6.73002 177.809L60.2032 175.651C56.7208 170.995 53.1948 166.663 49.8127 162.739L1.71375 163.561L1.52002 163.167Z" fill="#FFC61E"/>
<path d="M9.46717 183.197L9.26562 182.805L63.2756 179.864C62.4497 178.702 61.6189 177.557 60.7833 176.43L7.11281 178.595L6.91406 178.203C7.6978 179.858 8.54883 181.522 9.46717 183.197Z" fill="#FFC61E"/>
<path d="M75.065 155.373L75.4265 155.608C72.1827 151.847 68.6879 148.307 64.9657 145.014L64.1211 180.113C66.704 183.76 69.0892 187.379 71.2766 190.969L75.065 155.373Z" fill="#FFC61E"/>
<path d="M82.2275 212.772C85.6699 221.602 87.7238 230.123 88.3588 238.242C90.4242 231.486 97.9676 203.639 90.1895 179.815L82.2275 212.772Z" fill="#FFC61E"/>
<path d="M21.9243 200.258C25.2943 203.638 28.8879 206.79 32.6809 209.691L32.4859 209.252L81.329 212.156C79.3561 207.233 77.0886 202.432 74.5386 197.779L21.9243 200.258Z" fill="#FFC61E"/>
<path d="M33.678 145.529C22.4833 134.494 13.932 127.731 13.809 127.634L13.8934 127.355C6.99341 129.993 2.65681 135.551 0.898926 142.946L33.678 145.529Z" fill="#FFC61E"/>
<path d="M74.8662 197.158C75.1088 197.599 75.3547 198.04 75.5909 198.48C77.8639 202.691 79.905 207.022 81.7051 211.454L89.5914 178.81L89.937 179.068C88.5324 174.885 86.6014 170.896 84.1901 167.196C83.2361 165.747 82.2513 164.326 81.2359 162.933L74.8662 197.158Z" fill="#FFC61E"/>
<path d="M49.1361 161.958C44.1064 156.169 39.1032 150.915 34.5107 146.353L0.979549 143.711L0.810348 143.318C-0.446705 148.927 -0.241808 155.565 1.4289 162.773L49.1361 161.958Z" fill="#FFC61E"/>
<path d="M81.6389 212.939L33.1533 210.056C55.8926 227.461 85.8522 239.01 87.7631 239.737C87.2959 230.697 85.0327 221.667 81.6389 212.939Z" fill="#FFC61E"/>
<path d="M74.085 196.996L74.091 196.963C70.9658 191.343 67.539 185.895 63.8255 180.643L9.68262 183.591C10.9369 185.854 12.3131 188.126 13.8111 190.407C15.9817 193.651 18.4449 196.691 21.17 199.489L74.085 196.996Z" fill="#FFC61E"/>
<path d="M36.3799 244C36.3799 244 112.311 214.035 204.001 244H36.3799Z" fill="#2F2E41"/>
<path d="M91.5838 221.01C91.6425 221.812 91.7419 222.611 91.8817 223.402C91.8817 223.402 98.4158 227.828 98.9386 222.882C99.2783 219.659 98.5099 218.204 97.9297 217.582L97.9206 217.572C97.5719 217.205 97.3754 216.72 97.3704 216.215V210.387L91.6204 212.209L91.8817 217.155C91.4949 218.183 91.4897 219.719 91.5838 221.01Z" fill="#FFB9B9"/>
<path opacity="0.05" d="M91.584 221.01C91.6427 221.812 91.7421 222.61 91.8819 223.402C91.8819 223.402 98.416 227.828 98.9388 222.882C99.2785 219.659 98.5101 218.204 97.9299 217.582C97.703 217.411 97.4336 217.305 97.1508 217.276C96.868 217.247 96.5825 217.295 96.3251 217.415C95.2797 216.952 94.1297 217.725 93.1783 218.724C92.5336 219.401 91.996 220.172 91.584 221.01Z" fill="black"/>
<path d="M96.3254 217.936C96.3254 217.936 99.2003 216.374 99.7231 223.403C100.246 230.431 100.507 229.65 100.507 229.65C100.507 229.65 103.121 235.898 97.6322 235.117C92.1436 234.336 89.5299 233.815 89.7913 230.691C89.9488 228.809 90.3912 226.075 90.7178 224.2C91.029 222.342 91.8848 220.618 93.1775 219.244C94.1312 218.244 95.2799 217.473 96.3254 217.936Z" fill="#2F2E41"/>
<path d="M127.03 226.871L130.026 228.31C130.026 228.31 139.387 229.741 136.418 224.432C135.559 222.846 134.903 221.158 134.466 219.409C133.84 216.973 133.493 214.475 133.429 211.961L125.51 213.061C128.092 216.486 127.765 222.043 127.365 224.953C127.204 226.126 127.03 226.871 127.03 226.871Z" fill="#FFB9B9"/>
<path opacity="0.05" d="M127.03 226.871L130.027 228.31C130.027 228.31 139.388 229.741 136.418 224.432C135.559 222.846 134.903 221.158 134.466 219.409C132.648 219.758 131.264 222.365 131.264 222.365C129.798 227.436 128.478 226.169 127.366 224.954C127.204 226.127 127.03 226.871 127.03 226.871Z" fill="black"/>
<path d="M131.436 222.856C131.436 222.856 133.77 218.46 136.359 220.317C138.948 222.173 137.664 224.826 146.05 227.424C154.435 230.022 148.893 235.534 143.763 235.113C138.632 234.692 127.692 232.706 127.692 232.706C127.692 232.706 124.848 224.597 126.168 224.413C127.488 224.23 129.31 230.214 131.436 222.856Z" fill="#2F2E41"/>
<path opacity="0.3" d="M143.418 234.13C146.749 234.403 150.252 232.176 150.006 229.868C151.598 232.474 147.568 235.425 143.763 235.113C138.632 234.692 127.692 232.707 127.692 232.707C127.692 232.707 127.559 232.325 127.363 231.726C127.681 231.784 138.364 233.715 143.418 234.13Z" fill="white"/>
<path opacity="0.3" d="M89.8048 230.541C90.1062 232.883 92.7141 233.375 97.6322 234.075C100.133 234.431 100.95 233.327 101.1 232.02C101.263 233.694 100.786 235.565 97.6322 235.116C92.1435 234.335 89.5299 233.815 89.7913 230.691C89.7953 230.642 89.8004 230.591 89.8048 230.541Z" fill="white"/>
<path d="M77.8494 128.935L76.9818 141.897C76.9818 141.897 76.2878 155.031 81.6669 156.068C87.046 157.105 81.6669 139.304 81.6669 139.304V127.552L77.8494 128.935Z" fill="#FBBEBE"/>
<path d="M82.3613 81.7542L81.6672 83.3096C81.6672 83.3096 81.8408 94.1974 81.6672 95.0615C81.4937 95.9256 79.238 102.666 79.238 103.357C79.238 104.048 77.5028 124.096 77.1557 125.306C76.8087 126.515 75.247 130.317 76.6352 130.836C78.0233 131.354 80.6261 129.28 81.6672 130.836C82.7084 132.391 83.576 130.836 83.576 130.317C83.576 129.799 83.923 119.948 86.0053 117.183C88.0875 114.418 89.9962 108.196 90.3433 106.986C90.6903 105.777 91.2109 88.3214 91.3844 87.9758C91.5579 87.6301 90.6903 82.9639 90.6903 82.9639L82.3613 81.7542Z" fill="#3F3D56"/>
<path d="M92.2517 100.073C92.2517 100.073 90.1695 108.196 88.7813 109.752C87.3932 111.307 80.4524 122.886 82.5346 138.267C84.6168 153.649 88.2608 173.696 88.2608 173.696C88.2608 173.696 88.7814 180.782 88.0873 182.683C87.3932 184.584 91.2106 214.828 91.2106 214.828C91.2106 214.828 96.5898 218.976 99.5396 213.791C99.5396 213.791 98.8455 202.557 99.5396 201.521C100.234 200.484 99.5396 181.819 99.5396 181.819C99.5396 181.819 100.06 135.329 102.836 137.23C105.613 139.131 114.115 171.449 114.115 171.449C114.115 171.449 117.759 183.893 117.586 184.93C117.412 185.966 120.709 198.928 120.709 198.928C120.709 198.928 123.832 216.902 125.047 217.247C126.262 217.593 133.723 217.766 134.417 215.865L132.335 199.62C132.335 199.62 130.253 181.127 129.212 178.535C128.17 175.943 126.435 139.131 121.403 128.244C121.403 128.244 119.494 110.789 118.106 108.196C118.106 108.196 117.292 104.635 118.297 101.31C118.297 101.31 94.1605 101.456 92.2517 100.073Z" fill="#2F2E41"/>
<path d="M102.576 67.6692C110.626 67.6692 117.152 59.4287 117.152 49.2636C117.152 39.0984 110.626 30.8579 102.576 30.8579C94.5262 30.8579 88.0005 39.0984 88.0005 49.2636C88.0005 59.4287 94.5262 67.6692 102.576 67.6692Z" fill="#2F2E41"/>
<path d="M132.508 70.8663L130.253 75.7053L103.531 83.4823C103.531 83.4823 84.9639 88.8399 83.0552 80.1987C81.1465 71.5575 90.343 70.6934 90.343 70.6934C90.343 70.6934 93.8134 68.2739 98.1514 65.8544C99.6021 65.0439 100.083 63.7321 100.079 62.3444C100.076 61.9316 100.037 61.52 99.963 61.1139C99.8793 60.6445 99.7633 60.1814 99.6159 59.7278C99.2486 58.6084 98.7574 57.5332 98.1514 56.5219C98.1514 56.5219 109.604 52.0286 109.43 54.4481C109.357 55.3196 109.451 56.1971 109.708 57.0335C109.945 57.7659 110.264 58.4692 110.661 59.1298C110.855 59.4634 111.072 59.809 111.313 60.1754C111.625 60.6507 111.981 61.1571 112.38 61.7066C114.636 64.8175 122.097 64.8175 122.097 64.8175C127.997 64.1262 132.508 70.8663 132.508 70.8663Z" fill="#FBBEBE"/>
<path d="M160.098 98.5181C160.098 98.5181 172.591 107.678 175.021 107.505C177.45 107.332 191.679 106.468 188.382 109.752C185.085 113.035 170.162 110.961 170.162 110.961L156.454 102.32L160.098 98.5181Z" fill="#FBBEBE"/>
<path opacity="0.1" d="M109.708 57.0335C108.445 58.3755 106.831 59.339 105.048 59.8151C103.264 60.2913 101.383 60.261 99.6159 59.7278C99.2485 58.6084 98.7573 57.5332 98.1514 56.522C98.1514 56.522 109.604 52.0286 109.43 54.4481C109.357 55.3196 109.451 56.1971 109.708 57.0335Z" fill="black"/>
<path d="M102.489 58.9416C107.952 58.9416 112.38 54.5312 112.38 49.0907C112.38 43.6501 107.952 39.2397 102.489 39.2397C97.0268 39.2397 92.5986 43.6501 92.5986 49.0907C92.5986 54.5312 97.0268 58.9416 102.489 58.9416Z" fill="#FBBEBE"/>
<path d="M90.1693 77.7793C90.1693 77.7793 133.202 68.1012 133.376 69.4838C133.549 70.8664 135.285 73.6316 135.285 73.6316L125.22 85.0379C125.22 85.0379 126.435 90.5682 124.006 91.778C121.576 92.9877 121.229 102.147 118.974 102.32C116.718 102.493 90.3428 102.147 90.1693 100.765C89.9957 99.3822 90.8633 98.5181 90.1693 98.1724C89.4752 97.8268 88.4341 97.8268 89.3017 96.0985C90.1693 94.3703 90.1693 87.1118 90.1693 87.1118L82.0138 83.3097C82.0138 83.3097 80.8954 80.0893 82.9295 79.5392C84.9636 78.9891 90.1693 77.7793 90.1693 77.7793Z" fill="#3F3D56"/>
<path d="M133.723 73.2859H135.285C135.285 73.2859 139.97 76.3967 141.185 79.1619C142.399 81.927 146.737 85.5563 147.778 86.5932C148.819 87.6302 163.048 97.4811 162.875 98.8637C162.701 100.246 158.71 101.629 158.537 103.184C158.363 104.74 160.272 105.431 159.057 105.431C157.842 105.431 150.381 101.11 147.605 99.555C144.828 97.9996 139.102 93.5062 138.408 92.2964C137.714 91.0866 133.029 89.0128 132.509 88.1487C131.988 87.2845 123.833 83.3096 123.833 83.3096L133.723 73.2859Z" fill="#3F3D56"/>
<path d="M88.0004 43.6466C91.067 43.6466 93.553 41.1706 93.553 38.1163C93.553 35.062 91.067 32.5859 88.0004 32.5859C84.9338 32.5859 82.4478 35.062 82.4478 38.1163C82.4478 41.1706 84.9338 43.6466 88.0004 43.6466Z" fill="#2F2E41"/>
<path d="M112.467 36.3881C115.533 36.3881 118.019 33.912 118.019 30.8577C118.019 27.8034 115.533 25.3274 112.467 25.3274C109.4 25.3274 106.914 27.8034 106.914 30.8577C106.914 33.912 109.4 36.3881 112.467 36.3881Z" fill="#2F2E41"/>
<path d="M103.878 49.0043C109.58 49.0043 114.202 46.1801 114.202 42.6962C114.202 39.2124 109.58 36.3882 103.878 36.3882C98.1756 36.3882 93.5532 39.2124 93.5532 42.6962C93.5532 46.1801 98.1756 49.0043 103.878 49.0043Z" fill="#2F2E41"/>
<path d="M110.66 59.1299C105.902 60.9946 102.142 61.2159 99.9629 61.1139C100.037 61.52 100.076 61.9317 100.079 62.3444C100.332 62.3548 100.605 62.3599 100.895 62.3599C103.301 62.3599 106.897 61.9434 111.313 60.1755L110.66 59.1299Z" fill="#2F2E41"/>
<path d="M321.323 110.585H185.889C181.65 110.585 178.213 114.008 178.213 118.23V192.834C178.213 197.056 181.65 200.479 185.889 200.479H321.323C325.563 200.479 329 197.056 329 192.834V118.23C329 114.008 325.563 110.585 321.323 110.585Z" fill="#6F58C3"/>
<path opacity="0.3" d="M312.665 173.636H194.471V177.917H312.665V173.636Z" fill="#FFC61E"/>
<path opacity="0.3" d="M312.742 162.399H194.547V166.68H312.742V162.399Z" fill="#FFC61E"/>
<path opacity="0.3" d="M312.742 147.06H291.61V151.341H312.742V147.06Z" fill="#FFC61E"/>
<path opacity="0.3" d="M312.742 135.645H235.378V139.926H312.742V135.645Z" fill="#FFC61E"/>
<path opacity="0.3" d="M253.645 185.051H194.471V189.332H253.645V185.051Z" fill="#FFC61E"/>
<path d="M220.634 121.732H198.188C196.177 121.732 194.547 123.356 194.547 125.359V147.714C194.547 149.717 196.177 151.341 198.188 151.341H220.634C222.645 151.341 224.275 149.717 224.275 147.714V125.359C224.275 123.356 222.645 121.732 220.634 121.732Z" fill="#FFC61E"/>
</g>
<defs>
<clipPath id="clip0">
<rect width="329" height="244" fill="white"/>
</clipPath>
</defs>
</svg>
