<svg width="23" height="24" viewBox="0 0 23 24" fill="none" xmlns="http://www.w3.org/2000/svg">
<mask id="path-1-inside-1" fill="white">
<path fill-rule="evenodd" clip-rule="evenodd" d="M3.77116 15.7419C1.68844 13.6591 1.68847 10.2822 3.77124 8.19947C5.85401 6.1167 9.23083 6.11667 11.3136 8.19939C13.3964 6.11667 16.7733 6.1167 18.856 8.19947C20.9388 10.2822 20.9388 13.6591 18.8561 15.7419L18.856 15.7419L12.0207 22.5772C11.6302 22.9678 10.997 22.9678 10.6065 22.5772L3.77124 15.7419C3.77121 15.7419 3.77118 15.7419 3.77116 15.7419Z"/>
</mask>
<path d="M3.77116 15.7419L3.06404 16.449L3.06405 16.449L3.77116 15.7419ZM11.3136 8.19939L10.6065 8.90651L11.3136 9.61357L12.0207 8.90651L11.3136 8.19939ZM18.8561 15.7419L19.5632 16.449L19.5632 16.449L18.8561 15.7419ZM18.856 15.7419L18.1489 15.0348L18.856 15.7419ZM4.47828 15.0348C2.78607 13.3425 2.78609 10.5988 4.47834 8.90657L3.06413 7.49236C0.590839 9.96565 0.590809 13.9756 3.06404 16.449L4.47828 15.0348ZM4.47834 8.90657C6.17059 7.21432 8.91426 7.2143 10.6065 8.90651L12.0207 7.49227C9.5474 5.01904 5.53742 5.01907 3.06413 7.49236L4.47834 8.90657ZM19.5631 7.49236C17.0898 5.01907 13.0799 5.01904 10.6065 7.49227L12.0207 8.90651C13.713 7.2143 16.4567 7.21432 18.1489 8.90657L19.5631 7.49236ZM19.5632 16.449C22.0365 13.9756 22.0364 9.96565 19.5631 7.49236L18.1489 8.90657C19.8412 10.5988 19.8412 13.3425 18.149 15.0348L19.5632 16.449ZM19.5631 16.449L19.5632 16.449L18.149 15.0348L18.1489 15.0348L19.5631 16.449ZM12.7278 23.2843L19.5631 16.449L18.1489 15.0348L11.3136 21.8701L12.7278 23.2843ZM9.89942 23.2843C10.6805 24.0654 11.9468 24.0654 12.7278 23.2843L11.3136 21.8701L11.3136 21.8701L9.89942 23.2843ZM3.06413 16.449L9.89942 23.2843L11.3136 21.8701L4.47834 15.0348L3.06413 16.449ZM4.47834 15.0348C4.47834 15.0348 4.47834 15.0348 4.47834 15.0348C4.47834 15.0348 4.47834 15.0348 4.47834 15.0348C4.47834 15.0348 4.47834 15.0348 4.47834 15.0348C4.47834 15.0348 4.47834 15.0348 4.47834 15.0348C4.47834 15.0348 4.47834 15.0348 4.47834 15.0348C4.47834 15.0348 4.47834 15.0348 4.47834 15.0348C4.47834 15.0348 4.47834 15.0348 4.47834 15.0348C4.47834 15.0348 4.47834 15.0348 4.47834 15.0348C4.47834 15.0348 4.47834 15.0348 4.47834 15.0348C4.47834 15.0348 4.47834 15.0348 4.47834 15.0348C4.47834 15.0348 4.47834 15.0348 4.47834 15.0348C4.47834 15.0348 4.47834 15.0348 4.47834 15.0348C4.47834 15.0348 4.47834 15.0348 4.47834 15.0348C4.47834 15.0348 4.47834 15.0348 4.47834 15.0348C4.47834 15.0348 4.47834 15.0348 4.47834 15.0348C4.47834 15.0348 4.47834 15.0348 4.47834 15.0348C4.47834 15.0348 4.47834 15.0348 4.47834 15.0348C4.47834 15.0348 4.47834 15.0348 4.47834 15.0348C4.47834 15.0348 4.47834 15.0348 4.47834 15.0348C4.47834 15.0348 4.47834 15.0348 4.47834 15.0348C4.47834 15.0348 4.47834 15.0348 4.47834 15.0348C4.47834 15.0348 4.47834 15.0348 4.47834 15.0348C4.47834 15.0348 4.47834 15.0348 4.47834 15.0348C4.47834 15.0348 4.47834 15.0348 4.47834 15.0348C4.47834 15.0348 4.47834 15.0348 4.47834 15.0348C4.47834 15.0348 4.47834 15.0348 4.47834 15.0348C4.47834 15.0348 4.47834 15.0348 4.47834 15.0348C4.47834 15.0348 4.47834 15.0348 4.47834 15.0348C4.47834 15.0348 4.47834 15.0348 4.47834 15.0348C4.47834 15.0348 4.47834 15.0348 4.47834 15.0348C4.47834 15.0348 4.47834 15.0348 4.47834 15.0348C4.47834 15.0348 4.47834 15.0348 4.47834 15.0348C4.47834 15.0348 4.47834 15.0348 4.47834 15.0348C4.47834 15.0348 4.47834 15.0348 4.47834 15.0348C4.47834 15.0348 4.47834 15.0348 4.47834 15.0348C4.47834 15.0348 4.47834 15.0348 4.47834 15.0348C4.47834 15.0348 4.47834 15.0348 4.47834 15.0348C4.47834 15.0348 4.47834 15.0348 4.47834 15.0348C4.47834 15.0348 4.47834 15.0348 4.47834 15.0348C4.47834 15.0348 4.47834 15.0348 4.47834 15.0348C4.47834 15.0348 4.47834 15.0348 4.47834 15.0348C4.47834 15.0348 4.47834 15.0348 4.47834 15.0348C4.47834 15.0348 4.47834 15.0348 4.47834 15.0348C4.47834 15.0348 4.47834 15.0348 4.47834 15.0348C4.47834 15.0348 4.47834 15.0348 4.47834 15.0348C4.47834 15.0348 4.47834 15.0348 4.47834 15.0348C4.47834 15.0348 4.47834 15.0348 4.47834 15.0348C4.47834 15.0348 4.47834 15.0348 4.47834 15.0348C4.47834 15.0348 4.47834 15.0348 4.47834 15.0348C4.47834 15.0348 4.47834 15.0348 4.47834 15.0348C4.47834 15.0348 4.47834 15.0348 4.47834 15.0348C4.47834 15.0348 4.47834 15.0348 4.47834 15.0348C4.47834 15.0348 4.47834 15.0348 4.47834 15.0348C4.47833 15.0348 4.47833 15.0348 4.47833 15.0348C4.47833 15.0348 4.47833 15.0348 4.47833 15.0348C4.47833 15.0348 4.47833 15.0348 4.47833 15.0348C4.47833 15.0348 4.47833 15.0348 4.47833 15.0348C4.47833 15.0348 4.47833 15.0348 4.47833 15.0348C4.47833 15.0348 4.47833 15.0348 4.47833 15.0348C4.47833 15.0348 4.47833 15.0348 4.47833 15.0348C4.47833 15.0348 4.47833 15.0348 4.47833 15.0348C4.47833 15.0348 4.47833 15.0348 4.47833 15.0348C4.47833 15.0348 4.47833 15.0348 4.47833 15.0348C4.47833 15.0348 4.47833 15.0348 4.47833 15.0348C4.47833 15.0348 4.47833 15.0348 4.47833 15.0348C4.47833 15.0348 4.47833 15.0348 4.47833 15.0348C4.47833 15.0348 4.47833 15.0348 4.47833 15.0348C4.47833 15.0348 4.47833 15.0348 4.47833 15.0348C4.47833 15.0348 4.47833 15.0348 4.47833 15.0348C4.47833 15.0348 4.47833 15.0348 4.47833 15.0348C4.47833 15.0348 4.47833 15.0348 4.47833 15.0348C4.47833 15.0348 4.47833 15.0348 4.47833 15.0348C4.47833 15.0348 4.47833 15.0348 4.47833 15.0348C4.47833 15.0348 4.47833 15.0348 4.47833 15.0348C4.47833 15.0348 4.47833 15.0348 4.47833 15.0348C4.47833 15.0348 4.47833 15.0348 4.47833 15.0348C4.47833 15.0348 4.47833 15.0348 4.47833 15.0348C4.47833 15.0348 4.47833 15.0348 4.47833 15.0348C4.47833 15.0348 4.47833 15.0348 4.47833 15.0348C4.47833 15.0348 4.47833 15.0348 4.47833 15.0348C4.47833 15.0348 4.47833 15.0348 4.47833 15.0348C4.47833 15.0348 4.47833 15.0348 4.47833 15.0348C4.47833 15.0348 4.47833 15.0348 4.47833 15.0348C4.47833 15.0348 4.47833 15.0348 4.47833 15.0348C4.47833 15.0348 4.47833 15.0348 4.47833 15.0348C4.47833 15.0348 4.47833 15.0348 4.47833 15.0348C4.47833 15.0348 4.47833 15.0348 4.47833 15.0348C4.47833 15.0348 4.47833 15.0348 4.47833 15.0348C4.47833 15.0348 4.47833 15.0348 4.47833 15.0348C4.47833 15.0348 4.47833 15.0348 4.47833 15.0348C4.47833 15.0348 4.47833 15.0348 4.47833 15.0348C4.47833 15.0348 4.47833 15.0348 4.47833 15.0348C4.47833 15.0348 4.47833 15.0348 4.47833 15.0348C4.47833 15.0348 4.47833 15.0348 4.47833 15.0348C4.47833 15.0348 4.47833 15.0348 4.47833 15.0348C4.47833 15.0348 4.47833 15.0348 4.47833 15.0348C4.47833 15.0348 4.47833 15.0348 4.47833 15.0348C4.47833 15.0348 4.47833 15.0348 4.47833 15.0348C4.47833 15.0348 4.47833 15.0348 4.47833 15.0348C4.47833 15.0348 4.47833 15.0348 4.47833 15.0348C4.47833 15.0348 4.47833 15.0348 4.47833 15.0348C4.47833 15.0348 4.47833 15.0348 4.47833 15.0348C4.47833 15.0348 4.47833 15.0348 4.47833 15.0348C4.47833 15.0348 4.47833 15.0348 4.47833 15.0348C4.47833 15.0348 4.47833 15.0348 4.47833 15.0348C4.47833 15.0348 4.47833 15.0348 4.47833 15.0348C4.47833 15.0348 4.47833 15.0348 4.47833 15.0348C4.47833 15.0348 4.47833 15.0348 4.47833 15.0348C4.47833 15.0348 4.47833 15.0348 4.47833 15.0348C4.47833 15.0348 4.47833 15.0348 4.47833 15.0348C4.47833 15.0348 4.47833 15.0348 4.47833 15.0348C4.47833 15.0348 4.47833 15.0348 4.47833 15.0348C4.47833 15.0348 4.47833 15.0348 4.47833 15.0348C4.47833 15.0348 4.47833 15.0348 4.47833 15.0348C4.47833 15.0348 4.47833 15.0348 4.47833 15.0348C4.47833 15.0348 4.47833 15.0348 4.47833 15.0348C4.47833 15.0348 4.47833 15.0348 4.47833 15.0348C4.47833 15.0348 4.47833 15.0348 4.47833 15.0348C4.47833 15.0348 4.47833 15.0348 4.47833 15.0348C4.47833 15.0348 4.47832 15.0348 4.47832 15.0348C4.47832 15.0348 4.47832 15.0348 4.47832 15.0348C4.47832 15.0348 4.47832 15.0348 4.47832 15.0348C4.47832 15.0348 4.47832 15.0348 4.47832 15.0348C4.47832 15.0348 4.47832 15.0348 4.47832 15.0348C4.47832 15.0348 4.47832 15.0348 4.47832 15.0348C4.47832 15.0348 4.47832 15.0348 4.47832 15.0348C4.47832 15.0348 4.47832 15.0348 4.47832 15.0348C4.47832 15.0348 4.47832 15.0348 4.47832 15.0348C4.47832 15.0348 4.47832 15.0348 4.47832 15.0348C4.47832 15.0348 4.47832 15.0348 4.47832 15.0348C4.47832 15.0348 4.47832 15.0348 4.47832 15.0348C4.47832 15.0348 4.47832 15.0348 4.47832 15.0348C4.47832 15.0348 4.47832 15.0348 4.47832 15.0348C4.47832 15.0348 4.47832 15.0348 4.47832 15.0348C4.47832 15.0348 4.47832 15.0348 4.47832 15.0348C4.47832 15.0348 4.47832 15.0348 4.47832 15.0348C4.47832 15.0348 4.47832 15.0348 4.47832 15.0348C4.47832 15.0348 4.47832 15.0348 4.47832 15.0348C4.47832 15.0348 4.47832 15.0348 4.47832 15.0348C4.47832 15.0348 4.47832 15.0348 4.47832 15.0348C4.47832 15.0348 4.47832 15.0348 4.47832 15.0348C4.47832 15.0348 4.47832 15.0348 4.47832 15.0348C4.47832 15.0348 4.47832 15.0348 4.47832 15.0348C4.47832 15.0348 4.47832 15.0348 4.47832 15.0348C4.47832 15.0348 4.47832 15.0348 4.47832 15.0348C4.47832 15.0348 4.47832 15.0348 4.47832 15.0348C4.47832 15.0348 4.47832 15.0348 4.47832 15.0348C4.47832 15.0348 4.47832 15.0348 4.47832 15.0348C4.47832 15.0348 4.47832 15.0348 4.47832 15.0348C4.47832 15.0348 4.47832 15.0348 4.47832 15.0348C4.47832 15.0348 4.47832 15.0348 4.47832 15.0348C4.47832 15.0348 4.47832 15.0348 4.47832 15.0348C4.47832 15.0348 4.47832 15.0348 4.47832 15.0348C4.47832 15.0348 4.47832 15.0348 4.47832 15.0348C4.47832 15.0348 4.47832 15.0348 4.47832 15.0348C4.47832 15.0348 4.47832 15.0348 4.47832 15.0348C4.47832 15.0348 4.47832 15.0348 4.47832 15.0348C4.47832 15.0348 4.47832 15.0348 4.47832 15.0348C4.47832 15.0348 4.47832 15.0348 4.47832 15.0348C4.47832 15.0348 4.47832 15.0348 4.47832 15.0348C4.47832 15.0348 4.47832 15.0348 4.47832 15.0348C4.47832 15.0348 4.47832 15.0348 4.47832 15.0348C4.47832 15.0348 4.47832 15.0348 4.47832 15.0348C4.47832 15.0348 4.47832 15.0348 4.47832 15.0348C4.47832 15.0348 4.47832 15.0348 4.47832 15.0348C4.47832 15.0348 4.47832 15.0348 4.47832 15.0348C4.47832 15.0348 4.47832 15.0348 4.47832 15.0348C4.47832 15.0348 4.47832 15.0348 4.47832 15.0348C4.47832 15.0348 4.47832 15.0348 4.47832 15.0348C4.47832 15.0348 4.47832 15.0348 4.47832 15.0348C4.47832 15.0348 4.47832 15.0348 4.47832 15.0348C4.47832 15.0348 4.47832 15.0348 4.47832 15.0348C4.47832 15.0348 4.47832 15.0348 4.47832 15.0348C4.47832 15.0348 4.47832 15.0348 4.47832 15.0348C4.47832 15.0348 4.47832 15.0348 4.47832 15.0348C4.47832 15.0348 4.47832 15.0348 4.47832 15.0348C4.47832 15.0348 4.47832 15.0348 4.47832 15.0348C4.47832 15.0348 4.47832 15.0348 4.47832 15.0348C4.47832 15.0348 4.47832 15.0348 4.47832 15.0348C4.47832 15.0348 4.47832 15.0348 4.47832 15.0348C4.47832 15.0348 4.47832 15.0348 4.47832 15.0348C4.47832 15.0348 4.47832 15.0348 4.47832 15.0348C4.47832 15.0348 4.47832 15.0348 4.47832 15.0348C4.47832 15.0348 4.47832 15.0348 4.47832 15.0348C4.47832 15.0348 4.47832 15.0348 4.47832 15.0348C4.47832 15.0348 4.47832 15.0348 4.47831 15.0348C4.47831 15.0348 4.47831 15.0348 4.47831 15.0348C4.47831 15.0348 4.47831 15.0348 4.47831 15.0348C4.47831 15.0348 4.47831 15.0348 4.47831 15.0348C4.47831 15.0348 4.47831 15.0348 4.47831 15.0348C4.47831 15.0348 4.47831 15.0348 4.47831 15.0348C4.47831 15.0348 4.47831 15.0348 4.47831 15.0348C4.47831 15.0348 4.47831 15.0348 4.47831 15.0348C4.47831 15.0348 4.47831 15.0348 4.47831 15.0348C4.47831 15.0348 4.47831 15.0348 4.47831 15.0348C4.47831 15.0348 4.47831 15.0348 4.47831 15.0348C4.47831 15.0348 4.47831 15.0348 4.47831 15.0348C4.47831 15.0348 4.47831 15.0348 4.47831 15.0348C4.47831 15.0348 4.47831 15.0348 4.47831 15.0348C4.47831 15.0348 4.47831 15.0348 4.47831 15.0348C4.47831 15.0348 4.47831 15.0348 4.47831 15.0348C4.47831 15.0348 4.47831 15.0348 4.47831 15.0348C4.47831 15.0348 4.47831 15.0348 4.47831 15.0348C4.47831 15.0348 4.47831 15.0348 4.47831 15.0348C4.47831 15.0348 4.47831 15.0348 4.47831 15.0348C4.47831 15.0348 4.47831 15.0348 4.47831 15.0348C4.47831 15.0348 4.47831 15.0348 4.47831 15.0348C4.47831 15.0348 4.47831 15.0348 4.47831 15.0348C4.47831 15.0348 4.47831 15.0348 4.47831 15.0348C4.47831 15.0348 4.47831 15.0348 4.47831 15.0348C4.47831 15.0348 4.47831 15.0348 4.47831 15.0348C4.47831 15.0348 4.47831 15.0348 4.47831 15.0348C4.47831 15.0348 4.47831 15.0348 4.47831 15.0348C4.47831 15.0348 4.47831 15.0348 4.47831 15.0348C4.47831 15.0348 4.47831 15.0348 4.47831 15.0348C4.47831 15.0348 4.47831 15.0348 4.47831 15.0348C4.47831 15.0348 4.47831 15.0348 4.47831 15.0348C4.47831 15.0348 4.47831 15.0348 4.47831 15.0348C4.47831 15.0348 4.47831 15.0348 4.47831 15.0348C4.47831 15.0348 4.47831 15.0348 4.47831 15.0348C4.47831 15.0348 4.47831 15.0348 4.47831 15.0348C4.47831 15.0348 4.47831 15.0348 4.47831 15.0348C4.47831 15.0348 4.47831 15.0348 4.47831 15.0348C4.47831 15.0348 4.47831 15.0348 4.47831 15.0348C4.47831 15.0348 4.47831 15.0348 4.47831 15.0348C4.47831 15.0348 4.47831 15.0348 4.47831 15.0348C4.47831 15.0348 4.47831 15.0348 4.47831 15.0348C4.47831 15.0348 4.47831 15.0348 4.47831 15.0348C4.47831 15.0348 4.47831 15.0348 4.47831 15.0348C4.47831 15.0348 4.47831 15.0348 4.47831 15.0348C4.47831 15.0348 4.47831 15.0348 4.47831 15.0348C4.47831 15.0348 4.47831 15.0348 4.47831 15.0348C4.47831 15.0348 4.47831 15.0348 4.47831 15.0348C4.47831 15.0348 4.47831 15.0348 4.47831 15.0348C4.47831 15.0348 4.47831 15.0348 4.47831 15.0348C4.47831 15.0348 4.47831 15.0348 4.47831 15.0348C4.47831 15.0348 4.47831 15.0348 4.47831 15.0348C4.47831 15.0348 4.47831 15.0348 4.47831 15.0348C4.47831 15.0348 4.47831 15.0348 4.47831 15.0348C4.47831 15.0348 4.47831 15.0348 4.47831 15.0348C4.47831 15.0348 4.47831 15.0348 4.47831 15.0348C4.47831 15.0348 4.47831 15.0348 4.47831 15.0348C4.47831 15.0348 4.47831 15.0348 4.47831 15.0348C4.47831 15.0348 4.47831 15.0348 4.47831 15.0348C4.47831 15.0348 4.47831 15.0348 4.47831 15.0348C4.47831 15.0348 4.47831 15.0348 4.47831 15.0348C4.47831 15.0348 4.47831 15.0348 4.47831 15.0348C4.47831 15.0348 4.47831 15.0348 4.47831 15.0348C4.47831 15.0348 4.47831 15.0348 4.47831 15.0348C4.47831 15.0348 4.47831 15.0348 4.47831 15.0348C4.47831 15.0348 4.47831 15.0348 4.47831 15.0348C4.47831 15.0348 4.47831 15.0348 4.4783 15.0348C4.4783 15.0348 4.4783 15.0348 4.4783 15.0348C4.4783 15.0348 4.4783 15.0348 4.4783 15.0348C4.4783 15.0348 4.4783 15.0348 4.4783 15.0348C4.4783 15.0348 4.4783 15.0348 4.4783 15.0348C4.4783 15.0348 4.4783 15.0348 4.4783 15.0348C4.4783 15.0348 4.4783 15.0348 4.4783 15.0348C4.4783 15.0348 4.4783 15.0348 4.4783 15.0348C4.4783 15.0348 4.4783 15.0348 4.4783 15.0348C4.4783 15.0348 4.4783 15.0348 4.4783 15.0348C4.4783 15.0348 4.4783 15.0348 4.4783 15.0348C4.4783 15.0348 4.4783 15.0348 4.4783 15.0348C4.4783 15.0348 4.4783 15.0348 4.4783 15.0348C4.4783 15.0348 4.4783 15.0348 4.4783 15.0348C4.4783 15.0348 4.4783 15.0348 4.4783 15.0348C4.4783 15.0348 4.4783 15.0348 4.4783 15.0348C4.4783 15.0348 4.4783 15.0348 4.4783 15.0348C4.4783 15.0348 4.4783 15.0348 4.4783 15.0348C4.4783 15.0348 4.4783 15.0348 4.4783 15.0348C4.4783 15.0348 4.4783 15.0348 4.4783 15.0348C4.4783 15.0348 4.4783 15.0348 4.4783 15.0348C4.4783 15.0348 4.4783 15.0348 4.4783 15.0348C4.4783 15.0348 4.4783 15.0348 4.4783 15.0348C4.4783 15.0348 4.4783 15.0348 4.4783 15.0348C4.4783 15.0348 4.4783 15.0348 4.4783 15.0348C4.4783 15.0348 4.4783 15.0348 4.4783 15.0348C4.4783 15.0348 4.4783 15.0348 4.4783 15.0348C4.4783 15.0348 4.4783 15.0348 4.4783 15.0348C4.4783 15.0348 4.4783 15.0348 4.4783 15.0348C4.4783 15.0348 4.4783 15.0348 4.4783 15.0348C4.4783 15.0348 4.4783 15.0348 4.4783 15.0348C4.4783 15.0348 4.4783 15.0348 4.4783 15.0348C4.4783 15.0348 4.4783 15.0348 4.4783 15.0348C4.4783 15.0348 4.4783 15.0348 4.4783 15.0348C4.4783 15.0348 4.4783 15.0348 4.4783 15.0348C4.4783 15.0348 4.4783 15.0348 4.4783 15.0348C4.4783 15.0348 4.4783 15.0348 4.4783 15.0348C4.4783 15.0348 4.4783 15.0348 4.4783 15.0348C4.4783 15.0348 4.4783 15.0348 4.4783 15.0348C4.4783 15.0348 4.4783 15.0348 4.4783 15.0348C4.4783 15.0348 4.4783 15.0348 4.4783 15.0348C4.4783 15.0348 4.4783 15.0348 4.4783 15.0348C4.4783 15.0348 4.4783 15.0348 4.4783 15.0348C4.4783 15.0348 4.4783 15.0348 4.4783 15.0348C4.4783 15.0348 4.4783 15.0348 4.4783 15.0348C4.4783 15.0348 4.4783 15.0348 4.4783 15.0348C4.4783 15.0348 4.4783 15.0348 4.4783 15.0348C4.4783 15.0348 4.4783 15.0348 4.4783 15.0348C4.4783 15.0348 4.4783 15.0348 4.4783 15.0348C4.4783 15.0348 4.4783 15.0348 4.4783 15.0348C4.4783 15.0348 4.4783 15.0348 4.4783 15.0348C4.4783 15.0348 4.4783 15.0348 4.4783 15.0348C4.4783 15.0348 4.4783 15.0348 4.4783 15.0348C4.4783 15.0348 4.4783 15.0348 4.4783 15.0348C4.4783 15.0348 4.4783 15.0348 4.4783 15.0348C4.4783 15.0348 4.4783 15.0348 4.4783 15.0348C4.4783 15.0348 4.4783 15.0348 4.4783 15.0348C4.4783 15.0348 4.4783 15.0348 4.4783 15.0348C4.4783 15.0348 4.4783 15.0348 4.4783 15.0348C4.4783 15.0348 4.4783 15.0348 4.4783 15.0348C4.4783 15.0348 4.4783 15.0348 4.4783 15.0348C4.4783 15.0348 4.4783 15.0348 4.4783 15.0348C4.4783 15.0348 4.4783 15.0348 4.4783 15.0348C4.4783 15.0348 4.4783 15.0348 4.4783 15.0348C4.4783 15.0348 4.4783 15.0348 4.4783 15.0348C4.4783 15.0348 4.4783 15.0348 4.4783 15.0348C4.4783 15.0348 4.4783 15.0348 4.4783 15.0348C4.47829 15.0348 4.47829 15.0348 4.47829 15.0348C4.47829 15.0348 4.47829 15.0348 4.47829 15.0348C4.47829 15.0348 4.47829 15.0348 4.47829 15.0348C4.47829 15.0348 4.47829 15.0348 4.47829 15.0348C4.47829 15.0348 4.47829 15.0348 4.47829 15.0348C4.47829 15.0348 4.47829 15.0348 4.47829 15.0348C4.47829 15.0348 4.47829 15.0348 4.47829 15.0348C4.47829 15.0348 4.47829 15.0348 4.47829 15.0348C4.47829 15.0348 4.47829 15.0348 4.47829 15.0348C4.47829 15.0348 4.47829 15.0348 4.47829 15.0348C4.47829 15.0348 4.47829 15.0348 4.47829 15.0348C4.47829 15.0348 4.47829 15.0348 4.47829 15.0348C4.47829 15.0348 4.47829 15.0348 4.47829 15.0348C4.47829 15.0348 4.47829 15.0348 4.47829 15.0348C4.47829 15.0348 4.47829 15.0348 4.47829 15.0348C4.47829 15.0348 4.47829 15.0348 4.47829 15.0348C4.47829 15.0348 4.47829 15.0348 4.47829 15.0348C4.47829 15.0348 4.47829 15.0348 4.47829 15.0348C4.47829 15.0348 4.47829 15.0348 4.47829 15.0348C4.47829 15.0348 4.47829 15.0348 4.47829 15.0348C4.47829 15.0348 4.47829 15.0348 4.47829 15.0348C4.47829 15.0348 4.47829 15.0348 4.47829 15.0348C4.47829 15.0348 4.47829 15.0348 4.47829 15.0348C4.47829 15.0348 4.47829 15.0348 4.47829 15.0348C4.47829 15.0348 4.47829 15.0348 4.47829 15.0348C4.47829 15.0348 4.47829 15.0348 4.47829 15.0348C4.47829 15.0348 4.47829 15.0348 4.47829 15.0348C4.47829 15.0348 4.47829 15.0348 4.47829 15.0348C4.47829 15.0348 4.47829 15.0348 4.47829 15.0348C4.47829 15.0348 4.47829 15.0348 4.47829 15.0348C4.47829 15.0348 4.47829 15.0348 4.47829 15.0348C4.47829 15.0348 4.47829 15.0348 4.47829 15.0348C4.47829 15.0348 4.47829 15.0348 4.47829 15.0348C4.47829 15.0348 4.47829 15.0348 4.47829 15.0348C4.47829 15.0348 4.47829 15.0348 4.47829 15.0348C4.47829 15.0348 4.47829 15.0348 4.47829 15.0348C4.47829 15.0348 4.47829 15.0348 4.47829 15.0348C4.47829 15.0348 4.47829 15.0348 4.47829 15.0348C4.47829 15.0348 4.47829 15.0348 4.47829 15.0348C4.47829 15.0348 4.47829 15.0348 4.47829 15.0348C4.47829 15.0348 4.47829 15.0348 4.47829 15.0348C4.47829 15.0348 4.47829 15.0348 4.47829 15.0348C4.47829 15.0348 4.47829 15.0348 4.47829 15.0348C4.47829 15.0348 4.47829 15.0348 4.47829 15.0348C4.47829 15.0348 4.47829 15.0348 4.47829 15.0348C4.47829 15.0348 4.47829 15.0348 4.47829 15.0348C4.47829 15.0348 4.47829 15.0348 4.47829 15.0348C4.47829 15.0348 4.47829 15.0348 4.47829 15.0348C4.47829 15.0348 4.47829 15.0348 4.47829 15.0348C4.47829 15.0348 4.47829 15.0348 4.47829 15.0348C4.47829 15.0348 4.47829 15.0348 4.47829 15.0348C4.47829 15.0348 4.47829 15.0348 4.47829 15.0348C4.47829 15.0348 4.47829 15.0348 4.47829 15.0348C4.47829 15.0348 4.47829 15.0348 4.47829 15.0348C4.47829 15.0348 4.47829 15.0348 4.47829 15.0348C4.47829 15.0348 4.47829 15.0348 4.47829 15.0348C4.47829 15.0348 4.47829 15.0348 4.47829 15.0348C4.47829 15.0348 4.47829 15.0348 4.47829 15.0348C4.47829 15.0348 4.47829 15.0348 4.47829 15.0348C4.47829 15.0348 4.47829 15.0348 4.47829 15.0348C4.47829 15.0348 4.47829 15.0348 4.47829 15.0348C4.47829 15.0348 4.47829 15.0348 4.47829 15.0348C4.47829 15.0348 4.47829 15.0348 4.47829 15.0348C4.47829 15.0348 4.47829 15.0348 4.47829 15.0348C4.47829 15.0348 4.47829 15.0348 4.47829 15.0348C4.47829 15.0348 4.47829 15.0348 4.47829 15.0348C4.47828 15.0348 4.47828 15.0348 4.47828 15.0348C4.47828 15.0348 4.47828 15.0348 4.47828 15.0348C4.47828 15.0348 4.47828 15.0348 4.47828 15.0348C4.47828 15.0348 4.47828 15.0348 4.47828 15.0348C4.47828 15.0348 4.47828 15.0348 4.47828 15.0348C4.47828 15.0348 4.47828 15.0348 4.47828 15.0348C4.47828 15.0348 4.47828 15.0348 4.47828 15.0348C4.47828 15.0348 4.47828 15.0348 4.47828 15.0348C4.47828 15.0348 4.47828 15.0348 4.47828 15.0348C4.47828 15.0348 4.47828 15.0348 4.47828 15.0348C4.47828 15.0348 4.47828 15.0348 4.47828 15.0348C4.47828 15.0348 4.47828 15.0348 4.47828 15.0348C4.47828 15.0348 4.47828 15.0348 4.47828 15.0348C4.47828 15.0348 4.47828 15.0348 4.47828 15.0348C4.47828 15.0348 4.47828 15.0348 4.47828 15.0348C4.47828 15.0348 4.47828 15.0348 4.47828 15.0348C4.47828 15.0348 4.47828 15.0348 4.47828 15.0348C4.47828 15.0348 4.47828 15.0348 4.47828 15.0348C4.47828 15.0348 4.47828 15.0348 4.47828 15.0348C4.47828 15.0348 4.47828 15.0348 4.47828 15.0348C4.47828 15.0348 4.47828 15.0348 4.47828 15.0348C4.47828 15.0348 4.47828 15.0348 4.47828 15.0348C4.47828 15.0348 4.47828 15.0348 4.47828 15.0348C4.47828 15.0348 4.47828 15.0348 4.47828 15.0348C4.47828 15.0348 4.47828 15.0348 4.47828 15.0348C4.47828 15.0348 4.47828 15.0348 4.47828 15.0348C4.47828 15.0348 4.47828 15.0348 4.47828 15.0348C4.47828 15.0348 4.47828 15.0348 4.47828 15.0348C4.47828 15.0348 4.47828 15.0348 4.47828 15.0348C4.47828 15.0348 4.47828 15.0348 4.47828 15.0348C4.47828 15.0348 4.47828 15.0348 4.47828 15.0348C4.47828 15.0348 4.47828 15.0348 4.47828 15.0348C4.47828 15.0348 4.47828 15.0348 4.47828 15.0348C4.47828 15.0348 4.47828 15.0348 4.47828 15.0348C4.47828 15.0348 4.47828 15.0348 4.47828 15.0348C4.47828 15.0348 4.47828 15.0348 4.47828 15.0348C4.47828 15.0348 4.47828 15.0348 4.47828 15.0348C4.47828 15.0348 4.47828 15.0348 4.47828 15.0348C4.47828 15.0348 4.47828 15.0348 4.47828 15.0348C4.47828 15.0348 4.47828 15.0348 4.47828 15.0348C4.47828 15.0348 4.47828 15.0348 4.47828 15.0348C4.47828 15.0348 4.47828 15.0348 4.47828 15.0348C4.47828 15.0348 4.47828 15.0348 4.47828 15.0348C4.47828 15.0348 4.47828 15.0348 4.47828 15.0348C4.47828 15.0348 4.47828 15.0348 4.47828 15.0348C4.47828 15.0348 4.47828 15.0348 4.47828 15.0348C4.47828 15.0348 4.47828 15.0348 4.47828 15.0348C4.47828 15.0348 4.47828 15.0348 4.47828 15.0348C4.47828 15.0348 4.47828 15.0348 4.47828 15.0348C4.47828 15.0348 4.47828 15.0348 4.47828 15.0348C4.47828 15.0348 4.47828 15.0348 4.47828 15.0348C4.47828 15.0348 4.47828 15.0348 4.47828 15.0348C4.47828 15.0348 4.47828 15.0348 4.47828 15.0348C4.47828 15.0348 4.47828 15.0348 4.47828 15.0348C4.47828 15.0348 4.47828 15.0348 4.47828 15.0348C4.47828 15.0348 4.47828 15.0348 4.47828 15.0348C4.47828 15.0348 4.47828 15.0348 4.47828 15.0348C4.47828 15.0348 4.47828 15.0348 4.47828 15.0348C4.47828 15.0348 4.47828 15.0348 4.47828 15.0348C4.47828 15.0348 4.47828 15.0348 4.47828 15.0348C4.47828 15.0348 4.47828 15.0348 4.47828 15.0348C4.47828 15.0348 4.47828 15.0348 4.47828 15.0348C4.47828 15.0348 4.47828 15.0348 4.47828 15.0348C4.47828 15.0348 4.47828 15.0348 4.47828 15.0348C4.47828 15.0348 4.47828 15.0348 4.47828 15.0348C4.47828 15.0348 4.47828 15.0348 4.47828 15.0348C4.47828 15.0348 4.47827 15.0348 4.47827 15.0348C4.47827 15.0348 4.47827 15.0348 4.47827 15.0348C4.47827 15.0348 4.47827 15.0348 4.47827 15.0348C4.47827 15.0348 4.47827 15.0348 4.47827 15.0348C4.47827 15.0348 4.47827 15.0348 4.47827 15.0348C4.47827 15.0348 4.47827 15.0348 4.47827 15.0348C4.47827 15.0348 4.47827 15.0348 4.47827 15.0348C4.47827 15.0348 4.47827 15.0348 4.47827 15.0348C4.47827 15.0348 4.47827 15.0348 4.47827 15.0348C4.47827 15.0348 4.47827 15.0348 4.47827 15.0348C4.47827 15.0348 4.47827 15.0348 4.47827 15.0348C4.47827 15.0348 4.47827 15.0348 4.47827 15.0348C4.47827 15.0348 4.47827 15.0348 4.47827 15.0348C4.47827 15.0348 4.47827 15.0348 4.47827 15.0348C4.47827 15.0348 4.47827 15.0348 4.47827 15.0348C4.47827 15.0348 4.47827 15.0348 4.47827 15.0348C4.47827 15.0348 4.47827 15.0348 4.47827 15.0348C4.47827 15.0348 4.47827 15.0348 4.47827 15.0348C4.47827 15.0348 4.47827 15.0348 4.47827 15.0348C4.47827 15.0348 4.47827 15.0348 4.47827 15.0348C4.47827 15.0348 4.47827 15.0348 4.47827 15.0348C4.47827 15.0348 4.47827 15.0348 4.47827 15.0348C4.47827 15.0348 4.47827 15.0348 4.47827 15.0348C4.47827 15.0348 4.47827 15.0348 4.47827 15.0348C4.47827 15.0348 4.47827 15.0348 4.47827 15.0348C4.47827 15.0348 4.47827 15.0348 4.47827 15.0348C4.47827 15.0348 4.47827 15.0348 4.47827 15.0348C4.47827 15.0348 4.47827 15.0348 4.47827 15.0348C4.47827 15.0348 4.47827 15.0348 4.47827 15.0348C4.47827 15.0348 4.47827 15.0348 4.47827 15.0348C4.47827 15.0348 4.47827 15.0348 4.47827 15.0348C4.47827 15.0348 4.47827 15.0348 4.47827 15.0348C4.47827 15.0348 4.47827 15.0348 4.47827 15.0348C4.47827 15.0348 4.47827 15.0348 4.47827 15.0348C4.47827 15.0348 4.47827 15.0348 4.47827 15.0348C4.47827 15.0348 4.47827 15.0348 4.47827 15.0348C4.47827 15.0348 4.47827 15.0348 4.47827 15.0348C4.47827 15.0348 4.47827 15.0348 4.47827 15.0348C4.47827 15.0348 4.47827 15.0348 4.47827 15.0348C4.47827 15.0348 4.47827 15.0348 4.47827 15.0348C4.47827 15.0348 4.47827 15.0348 4.47827 15.0348C4.47827 15.0348 4.47827 15.0348 4.47827 15.0348C4.47827 15.0348 4.47827 15.0348 4.47827 15.0348C4.47827 15.0348 4.47827 15.0348 4.47827 15.0348C4.47827 15.0348 4.47827 15.0348 4.47827 15.0348C4.47827 15.0348 4.47827 15.0348 4.47827 15.0348C4.47827 15.0348 4.47827 15.0348 4.47827 15.0348C4.47827 15.0348 4.47827 15.0348 4.47827 15.0348C4.47827 15.0348 4.47827 15.0348 4.47827 15.0348C4.47827 15.0348 4.47827 15.0348 4.47827 15.0348C4.47827 15.0348 4.47827 15.0348 4.47827 15.0348C4.47827 15.0348 4.47827 15.0348 4.47827 15.0348C4.47827 15.0348 4.47827 15.0348 4.47827 15.0348C4.47827 15.0348 4.47827 15.0348 4.47827 15.0348C4.47827 15.0348 4.47827 15.0348 4.47827 15.0348C4.47827 15.0348 4.47827 15.0348 4.47827 15.0348C4.47827 15.0348 4.47827 15.0348 4.47827 15.0348C4.47827 15.0348 4.47827 15.0348 4.47827 15.0348C4.47827 15.0348 4.47827 15.0348 4.47827 15.0348C4.47827 15.0348 4.47827 15.0348 4.47827 15.0348C4.47827 15.0348 4.47827 15.0348 4.47827 15.0348C4.47827 15.0348 4.47827 15.0348 4.47827 15.0348L3.06405 16.449C3.06405 16.449 3.06405 16.449 3.06405 16.449C3.06405 16.449 3.06405 16.449 3.06405 16.449C3.06405 16.449 3.06405 16.449 3.06405 16.449C3.06405 16.449 3.06405 16.449 3.06405 16.449C3.06405 16.449 3.06405 16.449 3.06405 16.449C3.06405 16.449 3.06405 16.449 3.06405 16.449C3.06405 16.449 3.06405 16.449 3.06405 16.449C3.06405 16.449 3.06405 16.449 3.06405 16.449C3.06405 16.449 3.06405 16.449 3.06405 16.449C3.06405 16.449 3.06405 16.449 3.06405 16.449C3.06405 16.449 3.06405 16.449 3.06405 16.449C3.06405 16.449 3.06405 16.449 3.06405 16.449C3.06405 16.449 3.06405 16.449 3.06405 16.449C3.06405 16.449 3.06405 16.449 3.06405 16.449C3.06405 16.449 3.06405 16.449 3.06405 16.449C3.06405 16.449 3.06405 16.449 3.06405 16.449C3.06405 16.449 3.06405 16.449 3.06405 16.449C3.06405 16.449 3.06405 16.449 3.06405 16.449C3.06405 16.449 3.06406 16.449 3.06406 16.449C3.06406 16.449 3.06406 16.449 3.06406 16.449C3.06406 16.449 3.06406 16.449 3.06406 16.449C3.06406 16.449 3.06406 16.449 3.06406 16.449C3.06406 16.449 3.06406 16.449 3.06406 16.449C3.06406 16.449 3.06406 16.449 3.06406 16.449C3.06406 16.449 3.06406 16.449 3.06406 16.449C3.06406 16.449 3.06406 16.449 3.06406 16.449C3.06406 16.449 3.06406 16.449 3.06406 16.449C3.06406 16.449 3.06406 16.449 3.06406 16.449C3.06406 16.449 3.06406 16.449 3.06406 16.449C3.06406 16.449 3.06406 16.449 3.06406 16.449C3.06406 16.449 3.06406 16.449 3.06406 16.449C3.06406 16.449 3.06406 16.449 3.06406 16.449C3.06406 16.449 3.06406 16.449 3.06406 16.449C3.06406 16.449 3.06406 16.449 3.06406 16.449C3.06406 16.449 3.06406 16.449 3.06406 16.449C3.06406 16.449 3.06406 16.449 3.06406 16.449C3.06406 16.449 3.06406 16.449 3.06406 16.449C3.06406 16.449 3.06406 16.449 3.06406 16.449C3.06406 16.449 3.06406 16.449 3.06406 16.449C3.06406 16.449 3.06406 16.449 3.06406 16.449C3.06406 16.449 3.06406 16.449 3.06406 16.449C3.06406 16.449 3.06406 16.449 3.06406 16.449C3.06406 16.449 3.06406 16.449 3.06406 16.449C3.06406 16.449 3.06406 16.449 3.06406 16.449C3.06406 16.449 3.06406 16.449 3.06406 16.449C3.06406 16.449 3.06406 16.449 3.06406 16.449C3.06406 16.449 3.06406 16.449 3.06406 16.449C3.06406 16.449 3.06406 16.449 3.06406 16.449C3.06406 16.449 3.06406 16.449 3.06406 16.449C3.06406 16.449 3.06406 16.449 3.06406 16.449C3.06406 16.449 3.06406 16.449 3.06406 16.449C3.06406 16.449 3.06406 16.449 3.06406 16.449C3.06406 16.449 3.06406 16.449 3.06406 16.449C3.06406 16.449 3.06406 16.449 3.06406 16.449C3.06406 16.449 3.06406 16.449 3.06406 16.449C3.06406 16.449 3.06406 16.449 3.06406 16.449C3.06406 16.449 3.06406 16.449 3.06406 16.449C3.06406 16.449 3.06406 16.449 3.06406 16.449C3.06406 16.449 3.06406 16.449 3.06406 16.449C3.06406 16.449 3.06406 16.449 3.06406 16.449C3.06406 16.449 3.06406 16.449 3.06406 16.449C3.06406 16.449 3.06406 16.449 3.06406 16.449C3.06406 16.449 3.06406 16.449 3.06406 16.449C3.06406 16.449 3.06406 16.449 3.06406 16.449C3.06406 16.449 3.06406 16.449 3.06406 16.449C3.06406 16.449 3.06406 16.449 3.06406 16.449C3.06406 16.449 3.06406 16.449 3.06406 16.449C3.06406 16.449 3.06406 16.449 3.06406 16.449C3.06406 16.449 3.06406 16.449 3.06406 16.449C3.06406 16.449 3.06406 16.449 3.06406 16.449C3.06406 16.449 3.06406 16.449 3.06406 16.449C3.06406 16.449 3.06406 16.449 3.06406 16.449C3.06406 16.449 3.06406 16.449 3.06406 16.449C3.06406 16.449 3.06406 16.449 3.06406 16.449C3.06406 16.449 3.06406 16.449 3.06406 16.449C3.06406 16.449 3.06406 16.449 3.06406 16.449C3.06406 16.449 3.06406 16.449 3.06406 16.449C3.06406 16.449 3.06406 16.449 3.06406 16.449C3.06406 16.449 3.06406 16.449 3.06406 16.449C3.06406 16.449 3.06406 16.449 3.06406 16.449C3.06406 16.449 3.06406 16.449 3.06406 16.449C3.06406 16.449 3.06406 16.449 3.06406 16.449C3.06406 16.449 3.06406 16.449 3.06406 16.449C3.06406 16.449 3.06406 16.449 3.06406 16.449C3.06406 16.449 3.06406 16.449 3.06407 16.449C3.06407 16.449 3.06407 16.449 3.06407 16.449C3.06407 16.449 3.06407 16.449 3.06407 16.449C3.06407 16.449 3.06407 16.449 3.06407 16.449C3.06407 16.449 3.06407 16.449 3.06407 16.449C3.06407 16.449 3.06407 16.449 3.06407 16.449C3.06407 16.449 3.06407 16.449 3.06407 16.449C3.06407 16.449 3.06407 16.449 3.06407 16.449C3.06407 16.449 3.06407 16.449 3.06407 16.449C3.06407 16.449 3.06407 16.449 3.06407 16.449C3.06407 16.449 3.06407 16.449 3.06407 16.449C3.06407 16.449 3.06407 16.449 3.06407 16.449C3.06407 16.449 3.06407 16.449 3.06407 16.449C3.06407 16.449 3.06407 16.449 3.06407 16.449C3.06407 16.449 3.06407 16.449 3.06407 16.449C3.06407 16.449 3.06407 16.449 3.06407 16.449C3.06407 16.449 3.06407 16.449 3.06407 16.449C3.06407 16.449 3.06407 16.449 3.06407 16.449C3.06407 16.449 3.06407 16.449 3.06407 16.449C3.06407 16.449 3.06407 16.449 3.06407 16.449C3.06407 16.449 3.06407 16.449 3.06407 16.449C3.06407 16.449 3.06407 16.449 3.06407 16.449C3.06407 16.449 3.06407 16.449 3.06407 16.449C3.06407 16.449 3.06407 16.449 3.06407 16.449C3.06407 16.449 3.06407 16.449 3.06407 16.449C3.06407 16.449 3.06407 16.449 3.06407 16.449C3.06407 16.449 3.06407 16.449 3.06407 16.449C3.06407 16.449 3.06407 16.449 3.06407 16.449C3.06407 16.449 3.06407 16.449 3.06407 16.449C3.06407 16.449 3.06407 16.449 3.06407 16.449C3.06407 16.449 3.06407 16.449 3.06407 16.449C3.06407 16.449 3.06407 16.449 3.06407 16.449C3.06407 16.449 3.06407 16.449 3.06407 16.449C3.06407 16.449 3.06407 16.449 3.06407 16.449C3.06407 16.449 3.06407 16.449 3.06407 16.449C3.06407 16.449 3.06407 16.449 3.06407 16.449C3.06407 16.449 3.06407 16.449 3.06407 16.449C3.06407 16.449 3.06407 16.449 3.06407 16.449C3.06407 16.449 3.06407 16.449 3.06407 16.449C3.06407 16.449 3.06407 16.449 3.06407 16.449C3.06407 16.449 3.06407 16.449 3.06407 16.449C3.06407 16.449 3.06407 16.449 3.06407 16.449C3.06407 16.449 3.06407 16.449 3.06407 16.449C3.06407 16.449 3.06407 16.449 3.06407 16.449C3.06407 16.449 3.06407 16.449 3.06407 16.449C3.06407 16.449 3.06407 16.449 3.06407 16.449C3.06407 16.449 3.06407 16.449 3.06407 16.449C3.06407 16.449 3.06407 16.449 3.06407 16.449C3.06407 16.449 3.06407 16.449 3.06407 16.449C3.06407 16.449 3.06407 16.449 3.06407 16.449C3.06407 16.449 3.06407 16.449 3.06407 16.449C3.06407 16.449 3.06407 16.449 3.06407 16.449C3.06407 16.449 3.06407 16.449 3.06407 16.449C3.06407 16.449 3.06407 16.449 3.06407 16.449C3.06407 16.449 3.06407 16.449 3.06407 16.449C3.06407 16.449 3.06407 16.449 3.06407 16.449C3.06407 16.449 3.06407 16.449 3.06407 16.449C3.06407 16.449 3.06407 16.449 3.06407 16.449C3.06407 16.449 3.06407 16.449 3.06407 16.449C3.06407 16.449 3.06407 16.449 3.06407 16.449C3.06407 16.449 3.06407 16.449 3.06407 16.449C3.06407 16.449 3.06407 16.449 3.06407 16.449C3.06407 16.449 3.06407 16.449 3.06407 16.449C3.06407 16.449 3.06407 16.449 3.06407 16.449C3.06407 16.449 3.06407 16.449 3.06407 16.449C3.06407 16.449 3.06407 16.449 3.06407 16.449C3.06407 16.449 3.06407 16.449 3.06407 16.449C3.06408 16.449 3.06408 16.449 3.06408 16.449C3.06408 16.449 3.06408 16.449 3.06408 16.449C3.06408 16.449 3.06408 16.449 3.06408 16.449C3.06408 16.449 3.06408 16.449 3.06408 16.449C3.06408 16.449 3.06408 16.449 3.06408 16.449C3.06408 16.449 3.06408 16.449 3.06408 16.449C3.06408 16.449 3.06408 16.449 3.06408 16.449C3.06408 16.449 3.06408 16.449 3.06408 16.449C3.06408 16.449 3.06408 16.449 3.06408 16.449C3.06408 16.449 3.06408 16.449 3.06408 16.449C3.06408 16.449 3.06408 16.449 3.06408 16.449C3.06408 16.449 3.06408 16.449 3.06408 16.449C3.06408 16.449 3.06408 16.449 3.06408 16.449C3.06408 16.449 3.06408 16.449 3.06408 16.449C3.06408 16.449 3.06408 16.449 3.06408 16.449C3.06408 16.449 3.06408 16.449 3.06408 16.449C3.06408 16.449 3.06408 16.449 3.06408 16.449C3.06408 16.449 3.06408 16.449 3.06408 16.449C3.06408 16.449 3.06408 16.449 3.06408 16.449C3.06408 16.449 3.06408 16.449 3.06408 16.449C3.06408 16.449 3.06408 16.449 3.06408 16.449C3.06408 16.449 3.06408 16.449 3.06408 16.449C3.06408 16.449 3.06408 16.449 3.06408 16.449C3.06408 16.449 3.06408 16.449 3.06408 16.449C3.06408 16.449 3.06408 16.449 3.06408 16.449C3.06408 16.449 3.06408 16.449 3.06408 16.449C3.06408 16.449 3.06408 16.449 3.06408 16.449C3.06408 16.449 3.06408 16.449 3.06408 16.449C3.06408 16.449 3.06408 16.449 3.06408 16.449C3.06408 16.449 3.06408 16.449 3.06408 16.449C3.06408 16.449 3.06408 16.449 3.06408 16.449C3.06408 16.449 3.06408 16.449 3.06408 16.449C3.06408 16.449 3.06408 16.449 3.06408 16.449C3.06408 16.449 3.06408 16.449 3.06408 16.449C3.06408 16.449 3.06408 16.449 3.06408 16.449C3.06408 16.449 3.06408 16.449 3.06408 16.449C3.06408 16.449 3.06408 16.449 3.06408 16.449C3.06408 16.449 3.06408 16.449 3.06408 16.449C3.06408 16.449 3.06408 16.449 3.06408 16.449C3.06408 16.449 3.06408 16.449 3.06408 16.449C3.06408 16.449 3.06408 16.449 3.06408 16.449C3.06408 16.449 3.06408 16.449 3.06408 16.449C3.06408 16.449 3.06408 16.449 3.06408 16.449C3.06408 16.449 3.06408 16.449 3.06408 16.449C3.06408 16.449 3.06408 16.449 3.06408 16.449C3.06408 16.449 3.06408 16.449 3.06408 16.449C3.06408 16.449 3.06408 16.449 3.06408 16.449C3.06408 16.449 3.06408 16.449 3.06408 16.449C3.06408 16.449 3.06408 16.449 3.06408 16.449C3.06408 16.449 3.06408 16.449 3.06408 16.449C3.06408 16.449 3.06408 16.449 3.06408 16.449C3.06408 16.449 3.06408 16.449 3.06408 16.449C3.06408 16.449 3.06408 16.449 3.06408 16.449C3.06408 16.449 3.06408 16.449 3.06408 16.449C3.06408 16.449 3.06408 16.449 3.06408 16.449C3.06408 16.449 3.06408 16.449 3.06408 16.449C3.06408 16.449 3.06408 16.449 3.06408 16.449C3.06408 16.449 3.06408 16.449 3.06408 16.449C3.06408 16.449 3.06408 16.449 3.06408 16.449C3.06408 16.449 3.06408 16.449 3.06408 16.449C3.06408 16.449 3.06408 16.449 3.06408 16.449C3.06408 16.449 3.06408 16.449 3.06408 16.449C3.06408 16.449 3.06408 16.449 3.06408 16.449C3.06408 16.449 3.06408 16.449 3.06408 16.449C3.06408 16.449 3.06408 16.449 3.06408 16.449C3.06408 16.449 3.06408 16.449 3.06408 16.449C3.06408 16.449 3.06409 16.449 3.06409 16.449C3.06409 16.449 3.06409 16.449 3.06409 16.449C3.06409 16.449 3.06409 16.449 3.06409 16.449C3.06409 16.449 3.06409 16.449 3.06409 16.449C3.06409 16.449 3.06409 16.449 3.06409 16.449C3.06409 16.449 3.06409 16.449 3.06409 16.449C3.06409 16.449 3.06409 16.449 3.06409 16.449C3.06409 16.449 3.06409 16.449 3.06409 16.449C3.06409 16.449 3.06409 16.449 3.06409 16.449C3.06409 16.449 3.06409 16.449 3.06409 16.449C3.06409 16.449 3.06409 16.449 3.06409 16.449C3.06409 16.449 3.06409 16.449 3.06409 16.449C3.06409 16.449 3.06409 16.449 3.06409 16.449C3.06409 16.449 3.06409 16.449 3.06409 16.449C3.06409 16.449 3.06409 16.449 3.06409 16.449C3.06409 16.449 3.06409 16.449 3.06409 16.449C3.06409 16.449 3.06409 16.449 3.06409 16.449C3.06409 16.449 3.06409 16.449 3.06409 16.449C3.06409 16.449 3.06409 16.449 3.06409 16.449C3.06409 16.449 3.06409 16.449 3.06409 16.449C3.06409 16.449 3.06409 16.449 3.06409 16.449C3.06409 16.449 3.06409 16.449 3.06409 16.449C3.06409 16.449 3.06409 16.449 3.06409 16.449C3.06409 16.449 3.06409 16.449 3.06409 16.449C3.06409 16.449 3.06409 16.449 3.06409 16.449C3.06409 16.449 3.06409 16.449 3.06409 16.449C3.06409 16.449 3.06409 16.449 3.06409 16.449C3.06409 16.449 3.06409 16.449 3.06409 16.449C3.06409 16.449 3.06409 16.449 3.06409 16.449C3.06409 16.449 3.06409 16.449 3.06409 16.449C3.06409 16.449 3.06409 16.449 3.06409 16.449C3.06409 16.449 3.06409 16.449 3.06409 16.449C3.06409 16.449 3.06409 16.449 3.06409 16.449C3.06409 16.449 3.06409 16.449 3.06409 16.449C3.06409 16.449 3.06409 16.449 3.06409 16.449C3.06409 16.449 3.06409 16.449 3.06409 16.449C3.06409 16.449 3.06409 16.449 3.06409 16.449C3.06409 16.449 3.06409 16.449 3.06409 16.449C3.06409 16.449 3.06409 16.449 3.06409 16.449C3.06409 16.449 3.06409 16.449 3.06409 16.449C3.06409 16.449 3.06409 16.449 3.06409 16.449C3.06409 16.449 3.06409 16.449 3.06409 16.449C3.06409 16.449 3.06409 16.449 3.06409 16.449C3.06409 16.449 3.06409 16.449 3.06409 16.449C3.06409 16.449 3.06409 16.449 3.06409 16.449C3.06409 16.449 3.06409 16.449 3.06409 16.449C3.06409 16.449 3.06409 16.449 3.06409 16.449C3.06409 16.449 3.06409 16.449 3.06409 16.449C3.06409 16.449 3.06409 16.449 3.06409 16.449C3.06409 16.449 3.06409 16.449 3.06409 16.449C3.06409 16.449 3.06409 16.449 3.06409 16.449C3.06409 16.449 3.06409 16.449 3.06409 16.449C3.06409 16.449 3.06409 16.449 3.06409 16.449C3.06409 16.449 3.06409 16.449 3.06409 16.449C3.06409 16.449 3.06409 16.449 3.06409 16.449C3.06409 16.449 3.06409 16.449 3.06409 16.449C3.06409 16.449 3.06409 16.449 3.06409 16.449C3.06409 16.449 3.06409 16.449 3.06409 16.449C3.06409 16.449 3.06409 16.449 3.06409 16.449C3.06409 16.449 3.06409 16.449 3.06409 16.449C3.06409 16.449 3.06409 16.449 3.06409 16.449C3.06409 16.449 3.06409 16.449 3.06409 16.449C3.06409 16.449 3.06409 16.449 3.06409 16.449C3.06409 16.449 3.06409 16.449 3.06409 16.449C3.06409 16.449 3.06409 16.449 3.06409 16.449C3.06409 16.449 3.06409 16.449 3.06409 16.449C3.06409 16.449 3.0641 16.449 3.0641 16.449C3.0641 16.449 3.0641 16.449 3.0641 16.449C3.0641 16.449 3.0641 16.449 3.0641 16.449C3.0641 16.449 3.0641 16.449 3.0641 16.449C3.0641 16.449 3.0641 16.449 3.0641 16.449C3.0641 16.449 3.0641 16.449 3.0641 16.449C3.0641 16.449 3.0641 16.449 3.0641 16.449C3.0641 16.449 3.0641 16.449 3.0641 16.449C3.0641 16.449 3.0641 16.449 3.0641 16.449C3.0641 16.449 3.0641 16.449 3.0641 16.449C3.0641 16.449 3.0641 16.449 3.0641 16.449C3.0641 16.449 3.0641 16.449 3.0641 16.449C3.0641 16.449 3.0641 16.449 3.0641 16.449C3.0641 16.449 3.0641 16.449 3.0641 16.449C3.0641 16.449 3.0641 16.449 3.0641 16.449C3.0641 16.449 3.0641 16.449 3.0641 16.449C3.0641 16.449 3.0641 16.449 3.0641 16.449C3.0641 16.449 3.0641 16.449 3.0641 16.449C3.0641 16.449 3.0641 16.449 3.0641 16.449C3.0641 16.449 3.0641 16.449 3.0641 16.449C3.0641 16.449 3.0641 16.449 3.0641 16.449C3.0641 16.449 3.0641 16.449 3.0641 16.449C3.0641 16.449 3.0641 16.449 3.0641 16.449C3.0641 16.449 3.0641 16.449 3.0641 16.449C3.0641 16.449 3.0641 16.449 3.0641 16.449C3.0641 16.449 3.0641 16.449 3.0641 16.449C3.0641 16.449 3.0641 16.449 3.0641 16.449C3.0641 16.449 3.0641 16.449 3.0641 16.449C3.0641 16.449 3.0641 16.449 3.0641 16.449C3.0641 16.449 3.0641 16.449 3.0641 16.449C3.0641 16.449 3.0641 16.449 3.0641 16.449C3.0641 16.449 3.0641 16.449 3.0641 16.449C3.0641 16.449 3.0641 16.449 3.0641 16.449C3.0641 16.449 3.0641 16.449 3.0641 16.449C3.0641 16.449 3.0641 16.449 3.0641 16.449C3.0641 16.449 3.0641 16.449 3.0641 16.449C3.0641 16.449 3.0641 16.449 3.0641 16.449C3.0641 16.449 3.0641 16.449 3.0641 16.449C3.0641 16.449 3.0641 16.449 3.0641 16.449C3.0641 16.449 3.0641 16.449 3.0641 16.449C3.0641 16.449 3.0641 16.449 3.0641 16.449C3.0641 16.449 3.0641 16.449 3.0641 16.449C3.0641 16.449 3.0641 16.449 3.0641 16.449C3.0641 16.449 3.0641 16.449 3.0641 16.449C3.0641 16.449 3.0641 16.449 3.0641 16.449C3.0641 16.449 3.0641 16.449 3.0641 16.449C3.0641 16.449 3.0641 16.449 3.0641 16.449C3.0641 16.449 3.0641 16.449 3.0641 16.449C3.0641 16.449 3.0641 16.449 3.0641 16.449C3.0641 16.449 3.0641 16.449 3.0641 16.449C3.0641 16.449 3.0641 16.449 3.0641 16.449C3.0641 16.449 3.0641 16.449 3.0641 16.449C3.0641 16.449 3.0641 16.449 3.0641 16.449C3.0641 16.449 3.0641 16.449 3.0641 16.449C3.0641 16.449 3.0641 16.449 3.0641 16.449C3.0641 16.449 3.0641 16.449 3.0641 16.449C3.0641 16.449 3.0641 16.449 3.0641 16.449C3.0641 16.449 3.0641 16.449 3.0641 16.449C3.0641 16.449 3.0641 16.449 3.0641 16.449C3.0641 16.449 3.0641 16.449 3.0641 16.449C3.0641 16.449 3.0641 16.449 3.0641 16.449C3.0641 16.449 3.0641 16.449 3.0641 16.449C3.0641 16.449 3.0641 16.449 3.0641 16.449C3.0641 16.449 3.0641 16.449 3.0641 16.449C3.0641 16.449 3.0641 16.449 3.0641 16.449C3.0641 16.449 3.0641 16.449 3.0641 16.449C3.0641 16.449 3.0641 16.449 3.06411 16.449C3.06411 16.449 3.06411 16.449 3.06411 16.449C3.06411 16.449 3.06411 16.449 3.06411 16.449C3.06411 16.449 3.06411 16.449 3.06411 16.449C3.06411 16.449 3.06411 16.449 3.06411 16.449C3.06411 16.449 3.06411 16.449 3.06411 16.449C3.06411 16.449 3.06411 16.449 3.06411 16.449C3.06411 16.449 3.06411 16.449 3.06411 16.449C3.06411 16.449 3.06411 16.449 3.06411 16.449C3.06411 16.449 3.06411 16.449 3.06411 16.449C3.06411 16.449 3.06411 16.449 3.06411 16.449C3.06411 16.449 3.06411 16.449 3.06411 16.449C3.06411 16.449 3.06411 16.449 3.06411 16.449C3.06411 16.449 3.06411 16.449 3.06411 16.449C3.06411 16.449 3.06411 16.449 3.06411 16.449C3.06411 16.449 3.06411 16.449 3.06411 16.449C3.06411 16.449 3.06411 16.449 3.06411 16.449C3.06411 16.449 3.06411 16.449 3.06411 16.449C3.06411 16.449 3.06411 16.449 3.06411 16.449C3.06411 16.449 3.06411 16.449 3.06411 16.449C3.06411 16.449 3.06411 16.449 3.06411 16.449C3.06411 16.449 3.06411 16.449 3.06411 16.449C3.06411 16.449 3.06411 16.449 3.06411 16.449C3.06411 16.449 3.06411 16.449 3.06411 16.449C3.06411 16.449 3.06411 16.449 3.06411 16.449C3.06411 16.449 3.06411 16.449 3.06411 16.449C3.06411 16.449 3.06411 16.449 3.06411 16.449C3.06411 16.449 3.06411 16.449 3.06411 16.449C3.06411 16.449 3.06411 16.449 3.06411 16.449C3.06411 16.449 3.06411 16.449 3.06411 16.449C3.06411 16.449 3.06411 16.449 3.06411 16.449C3.06411 16.449 3.06411 16.449 3.06411 16.449C3.06411 16.449 3.06411 16.449 3.06411 16.449C3.06411 16.449 3.06411 16.449 3.06411 16.449C3.06411 16.449 3.06411 16.449 3.06411 16.449C3.06411 16.449 3.06411 16.449 3.06411 16.449C3.06411 16.449 3.06411 16.449 3.06411 16.449C3.06411 16.449 3.06411 16.449 3.06411 16.449C3.06411 16.449 3.06411 16.449 3.06411 16.449C3.06411 16.449 3.06411 16.449 3.06411 16.449C3.06411 16.449 3.06411 16.449 3.06411 16.449C3.06411 16.449 3.06411 16.449 3.06411 16.449C3.06411 16.449 3.06411 16.449 3.06411 16.449C3.06411 16.449 3.06411 16.449 3.06411 16.449C3.06411 16.449 3.06411 16.449 3.06411 16.449C3.06411 16.449 3.06411 16.449 3.06411 16.449C3.06411 16.449 3.06411 16.449 3.06411 16.449C3.06411 16.449 3.06411 16.449 3.06411 16.449C3.06411 16.449 3.06411 16.449 3.06411 16.449C3.06411 16.449 3.06411 16.449 3.06411 16.449C3.06411 16.449 3.06411 16.449 3.06411 16.449C3.06411 16.449 3.06411 16.449 3.06411 16.449C3.06411 16.449 3.06411 16.449 3.06411 16.449C3.06411 16.449 3.06411 16.449 3.06411 16.449C3.06411 16.449 3.06411 16.449 3.06411 16.449C3.06411 16.449 3.06411 16.449 3.06411 16.449C3.06411 16.449 3.06411 16.449 3.06411 16.449C3.06411 16.449 3.06411 16.449 3.06411 16.449C3.06411 16.449 3.06411 16.449 3.06411 16.449C3.06411 16.449 3.06411 16.449 3.06411 16.449C3.06411 16.449 3.06411 16.449 3.06411 16.449C3.06411 16.449 3.06411 16.449 3.06411 16.449C3.06411 16.449 3.06411 16.449 3.06411 16.449C3.06411 16.449 3.06411 16.449 3.06411 16.449C3.06411 16.449 3.06411 16.449 3.06411 16.449C3.06411 16.449 3.06411 16.449 3.06411 16.449C3.06411 16.449 3.06411 16.449 3.06411 16.449C3.06412 16.449 3.06412 16.449 3.06412 16.449C3.06412 16.449 3.06412 16.449 3.06412 16.449C3.06412 16.449 3.06412 16.449 3.06412 16.449C3.06412 16.449 3.06412 16.449 3.06412 16.449C3.06412 16.449 3.06412 16.449 3.06412 16.449C3.06412 16.449 3.06412 16.449 3.06412 16.449C3.06412 16.449 3.06412 16.449 3.06412 16.449C3.06412 16.449 3.06412 16.449 3.06412 16.449C3.06412 16.449 3.06412 16.449 3.06412 16.449C3.06412 16.449 3.06412 16.449 3.06412 16.449C3.06412 16.449 3.06412 16.449 3.06412 16.449C3.06412 16.449 3.06412 16.449 3.06412 16.449C3.06412 16.449 3.06412 16.449 3.06412 16.449C3.06412 16.449 3.06412 16.449 3.06412 16.449C3.06412 16.449 3.06412 16.449 3.06412 16.449C3.06412 16.449 3.06412 16.449 3.06412 16.449C3.06412 16.449 3.06412 16.449 3.06412 16.449C3.06412 16.449 3.06412 16.449 3.06412 16.449C3.06412 16.449 3.06412 16.449 3.06412 16.449C3.06412 16.449 3.06412 16.449 3.06412 16.449C3.06412 16.449 3.06412 16.449 3.06412 16.449C3.06412 16.449 3.06412 16.449 3.06412 16.449C3.06412 16.449 3.06412 16.449 3.06412 16.449C3.06412 16.449 3.06412 16.449 3.06412 16.449C3.06412 16.449 3.06412 16.449 3.06412 16.449C3.06412 16.449 3.06412 16.449 3.06412 16.449C3.06412 16.449 3.06412 16.449 3.06412 16.449C3.06412 16.449 3.06412 16.449 3.06412 16.449C3.06412 16.449 3.06412 16.449 3.06412 16.449C3.06412 16.449 3.06412 16.449 3.06412 16.449C3.06412 16.449 3.06412 16.449 3.06412 16.449C3.06412 16.449 3.06412 16.449 3.06412 16.449C3.06412 16.449 3.06412 16.449 3.06412 16.449C3.06412 16.449 3.06412 16.449 3.06412 16.449C3.06412 16.449 3.06412 16.449 3.06412 16.449C3.06412 16.449 3.06412 16.449 3.06412 16.449C3.06412 16.449 3.06412 16.449 3.06412 16.449C3.06412 16.449 3.06412 16.449 3.06412 16.449C3.06412 16.449 3.06412 16.449 3.06412 16.449C3.06412 16.449 3.06412 16.449 3.06412 16.449C3.06412 16.449 3.06412 16.449 3.06412 16.449C3.06412 16.449 3.06412 16.449 3.06412 16.449C3.06412 16.449 3.06412 16.449 3.06412 16.449C3.06412 16.449 3.06412 16.449 3.06412 16.449C3.06412 16.449 3.06412 16.449 3.06412 16.449C3.06412 16.449 3.06412 16.449 3.06412 16.449C3.06412 16.449 3.06412 16.449 3.06412 16.449C3.06412 16.449 3.06412 16.449 3.06412 16.449C3.06412 16.449 3.06412 16.449 3.06412 16.449C3.06412 16.449 3.06412 16.449 3.06412 16.449C3.06412 16.449 3.06412 16.449 3.06412 16.449C3.06412 16.449 3.06412 16.449 3.06412 16.449C3.06412 16.449 3.06412 16.449 3.06412 16.449C3.06412 16.449 3.06412 16.449 3.06412 16.449C3.06412 16.449 3.06412 16.449 3.06412 16.449C3.06412 16.449 3.06412 16.449 3.06412 16.449C3.06412 16.449 3.06412 16.449 3.06412 16.449C3.06412 16.449 3.06412 16.449 3.06412 16.449C3.06412 16.449 3.06412 16.449 3.06412 16.449C3.06412 16.449 3.06412 16.449 3.06412 16.449C3.06412 16.449 3.06412 16.449 3.06412 16.449C3.06412 16.449 3.06412 16.449 3.06412 16.449C3.06412 16.449 3.06412 16.449 3.06412 16.449C3.06412 16.449 3.06412 16.449 3.06412 16.449C3.06412 16.449 3.06412 16.449 3.06412 16.449C3.06412 16.449 3.06412 16.449 3.06412 16.449C3.06412 16.449 3.06413 16.449 3.06413 16.449C3.06413 16.449 3.06413 16.449 3.06413 16.449C3.06413 16.449 3.06413 16.449 3.06413 16.449C3.06413 16.449 3.06413 16.449 3.06413 16.449C3.06413 16.449 3.06413 16.449 3.06413 16.449C3.06413 16.449 3.06413 16.449 3.06413 16.449C3.06413 16.449 3.06413 16.449 3.06413 16.449C3.06413 16.449 3.06413 16.449 3.06413 16.449C3.06413 16.449 3.06413 16.449 3.06413 16.449C3.06413 16.449 3.06413 16.449 3.06413 16.449C3.06413 16.449 3.06413 16.449 3.06413 16.449C3.06413 16.449 3.06413 16.449 3.06413 16.449C3.06413 16.449 3.06413 16.449 3.06413 16.449C3.06413 16.449 3.06413 16.449 3.06413 16.449C3.06413 16.449 3.06413 16.449 3.06413 16.449C3.06413 16.449 3.06413 16.449 3.06413 16.449C3.06413 16.449 3.06413 16.449 3.06413 16.449C3.06413 16.449 3.06413 16.449 3.06413 16.449C3.06413 16.449 3.06413 16.449 3.06413 16.449C3.06413 16.449 3.06413 16.449 3.06413 16.449C3.06413 16.449 3.06413 16.449 3.06413 16.449C3.06413 16.449 3.06413 16.449 3.06413 16.449C3.06413 16.449 3.06413 16.449 3.06413 16.449C3.06413 16.449 3.06413 16.449 3.06413 16.449C3.06413 16.449 3.06413 16.449 3.06413 16.449C3.06413 16.449 3.06413 16.449 3.06413 16.449C3.06413 16.449 3.06413 16.449 3.06413 16.449C3.06413 16.449 3.06413 16.449 3.06413 16.449C3.06413 16.449 3.06413 16.449 3.06413 16.449C3.06413 16.449 3.06413 16.449 3.06413 16.449L4.47834 15.0348Z" fill="#5B41BB" mask="url(#path-1-inside-1)"/>
</svg>
