<svg width="24" height="18" viewBox="0 0 24 18" fill="none" xmlns="http://www.w3.org/2000/svg">
<path fill-rule="evenodd" clip-rule="evenodd" d="M3.64648 17.1465L20.1465 0.646484L20.8536 1.35359L4.35359 17.8536L3.64648 17.1465Z" fill="#73707C"/>
<path d="M11.971 11.6506H14.6304V15.2497C14.6304 16.6854 16.2898 17.4125 17.2751 16.4085L23.532 10.0328C24.156 9.39701 24.156 8.35104 23.532 7.7152L19.755 3.86654L19.0062 4.61538L22.8064 8.48775C23.0144 8.6997 23.0144 9.04835 22.8064 9.2603L16.5495 15.6359C16.2211 15.9706 15.6679 15.7282 15.6679 15.2497V10.5698H13.0517L11.971 11.6506Z" fill="#73707C"/>
<path d="M8.80906 10.5698H7.08793C4.69841 10.5698 2.59545 12.2121 1.92554 14.6012L1.86268 14.8254C1.72622 15.3121 1.03756 15.2095 1.03756 14.7025C1.03756 10.1353 4.59209 6.4328 8.97683 6.4328H12.9461L14.0268 5.35206H8.97683C4.01907 5.35206 0 9.53838 0 14.7025C0 16.459 2.38586 16.8145 2.85863 15.1284L2.92149 14.9042C3.46216 12.976 5.1594 11.6506 7.08793 11.6506H7.72832L8.80906 10.5698Z" fill="#73707C"/>
<path d="M14.6304 4.74853L15.6679 3.71097V2.49837C15.6679 2.01981 16.2211 1.77744 16.5495 2.1121L16.9048 2.47412L17.6536 1.72529L17.2751 1.33955C16.2898 0.335586 14.6304 1.06269 14.6304 2.49837V4.74853Z" fill="#73707C"/>
</svg>
