<svg width="9" height="12" viewBox="0 0 9 12" fill="none" xmlns="http://www.w3.org/2000/svg">
<path d="M4.07455 0C5.76545 0 6.97091 0.257703 7.69091 0.773109C8.41091 1.28852 8.77091 2.02801 8.77091 2.9916C8.77091 3.51821 8.67818 3.96639 8.49273 4.33613C8.30727 4.69468 8.07273 4.98039 7.78909 5.19328C7.51636 5.40616 7.23273 5.55182 6.93818 5.63025V5.71429C7.25455 5.79272 7.57091 5.92717 7.88727 6.11765C8.20364 6.30812 8.46545 6.59384 8.67273 6.97479C8.89091 7.34454 9 7.84874 9 8.4874C9 9.57423 8.60182 10.4314 7.80545 11.0588C7.00909 11.6863 5.92364 12 4.54909 12H0V0H4.07455ZM4.10727 4.60504C4.63091 4.60504 4.99636 4.493 5.20364 4.26891C5.42182 4.04482 5.53091 3.77591 5.53091 3.46218C5.53091 2.78992 5.03455 2.45378 4.04182 2.45378H3.15818V4.60504H4.10727ZM3.15818 6.97479V9.4958H4.27091C4.81636 9.4958 5.19818 9.37815 5.41636 9.14286C5.63455 8.89636 5.74364 8.58823 5.74364 8.21849C5.74364 7.89356 5.63455 7.60784 5.41636 7.36134C5.19818 7.10364 4.79455 6.97479 4.20545 6.97479H3.15818Z" fill="#151125"/>
</svg>
