<svg width="17" height="12" viewBox="0 0 17 12" fill="none" xmlns="http://www.w3.org/2000/svg">
<path d="M8.89911 12H7.43222V6.40336H1.46689V12H0V0H1.46689V5.07563H7.43222V0H8.89911V12Z" fill="#151125"/>
<path d="M17 11.9993H11.2302V11.0792L13.5161 8.6968C13.9562 8.24302 14.327 7.83965 14.6285 7.48671C14.9301 7.13377 15.1582 6.78923 15.3131 6.4531C15.4679 6.10856 15.5453 5.73461 15.5453 5.33125C15.5453 4.83545 15.4027 4.4615 15.1175 4.2094C14.8323 3.9489 14.4615 3.81865 14.0051 3.81865C13.5813 3.81865 13.2065 3.89428 12.8805 4.04554C12.5627 4.1968 12.2367 4.40688 11.9026 4.67579L11.328 3.93209C11.6703 3.63797 12.0615 3.39008 12.5015 3.18839C12.9498 2.97831 13.4509 2.87327 14.0051 2.87327C14.82 2.87327 15.4638 3.08755 15.9365 3.51613C16.4092 3.93629 16.6455 4.52033 16.6455 5.26823C16.6455 5.73881 16.5518 6.17999 16.3643 6.59176C16.1769 7.00352 15.9161 7.41108 15.582 7.81444C15.2479 8.2094 14.8567 8.63377 14.4085 9.08755L12.5871 10.9405V10.9909H17V11.9993Z" fill="#151125"/>
</svg>
