<svg width="7" height="12" viewBox="0 0 7 12" fill="none" xmlns="http://www.w3.org/2000/svg">
<path d="M0 12L0.126697 11.2941H0.332579C0.691554 11.2941 1.01357 11.2269 1.29864 11.0924C1.58371 10.9468 1.77903 10.6106 1.88462 10.084L3.53167 1.84874C3.57391 1.66947 3.59502 1.51261 3.59502 1.37815C3.59502 1.08683 3.48944 0.901961 3.27828 0.82353C3.06712 0.745098 2.79261 0.705882 2.45475 0.705882H2.24887L2.3914 0H7L6.85747 0.705882H6.65158C6.29261 0.705882 5.97059 0.778711 5.68552 0.92437C5.41101 1.05882 5.22096 1.38936 5.11538 1.91597L3.46833 10.1513C3.42609 10.3305 3.40498 10.4874 3.40498 10.6218C3.40498 10.902 3.51056 11.0868 3.72172 11.1765C3.94344 11.2549 4.21795 11.2941 4.54525 11.2941H4.75113L4.6086 12H0Z" fill="#151125"/>
</svg>
