<svg width="14" height="10" viewBox="0 0 14 10" fill="none" xmlns="http://www.w3.org/2000/svg">
<path d="M1.81463 4.16552H1.30632V1.25432C1.30632 1.08708 1.30829 0.952897 1.31223 0.851773C1.31617 0.75065 1.32208 0.645636 1.32996 0.536734C1.26692 0.598964 1.20978 0.65147 1.15856 0.694254C1.10733 0.737037 1.04232 0.791488 0.963509 0.857607L0.514309 1.21932L0.242424 0.87511L1.38316 0H1.81463V4.16552Z" fill="#151125"/>
<path d="M2.78977 10H0V9.57411L1.10527 8.47148C1.31805 8.26145 1.49734 8.07476 1.64313 7.91141C1.78892 7.74805 1.89925 7.58859 1.97412 7.43301C2.04899 7.27355 2.08642 7.10047 2.08642 6.91378C2.08642 6.68431 2.01746 6.51123 1.87955 6.39455C1.74164 6.27398 1.56235 6.21369 1.34169 6.21369C1.13679 6.21369 0.955536 6.2487 0.797922 6.31871C0.644248 6.38872 0.486634 6.48595 0.325079 6.61041L0.0472843 6.2662C0.212779 6.13007 0.401916 6.01534 0.614696 5.92199C0.831415 5.82476 1.07375 5.77614 1.34169 5.77614C1.73573 5.77614 2.04701 5.87532 2.27556 6.07368C2.5041 6.26815 2.61837 6.53846 2.61837 6.88461C2.61837 7.10242 2.57305 7.30661 2.48242 7.49719C2.3918 7.68777 2.2657 7.8764 2.10415 8.06309C1.9426 8.24589 1.75346 8.44231 1.53674 8.65233L0.656069 9.50994V9.53328H2.78977V10Z" fill="#151125"/>
<path fill-rule="evenodd" clip-rule="evenodd" d="M5.1342 1.24866C5.1342 0.980159 5.35472 0.762492 5.62674 0.762492H13.5075C13.7795 0.762492 14 0.980159 14 1.24866C14 1.51717 13.7795 1.73484 13.5075 1.73484H5.62674C5.35472 1.73484 5.1342 1.51717 5.1342 1.24866Z" fill="#151125"/>
<path fill-rule="evenodd" clip-rule="evenodd" d="M5.1342 5.13804C5.1342 4.86953 5.35472 4.65187 5.62674 4.65187H13.5075C13.7795 4.65187 14 4.86953 14 5.13804C14 5.40654 13.7795 5.62421 13.5075 5.62421H5.62674C5.35472 5.62421 5.1342 5.40654 5.1342 5.13804Z" fill="#151125"/>
<path fill-rule="evenodd" clip-rule="evenodd" d="M5.1342 9.02741C5.1342 8.75891 5.35472 8.54124 5.62674 8.54124H13.5075C13.7795 8.54124 14 8.75891 14 9.02741C14 9.29592 13.7795 9.51359 13.5075 9.51359H5.62674C5.35472 9.51359 5.1342 9.29592 5.1342 9.02741Z" fill="#151125"/>
</svg>
