<svg width="9" height="12" viewBox="0 0 9 12" fill="none" xmlns="http://www.w3.org/2000/svg">
<path d="M8.15 6.11701C8.15 6.7702 8.02 7.3616 7.76 7.89121C7.5 8.41199 7.10133 8.82685 6.564 9.13579C6.03533 9.43591 5.35933 9.58596 4.536 9.58596C3.38333 9.58596 2.50367 9.2682 1.897 8.63266C1.299 7.9883 1 7.14093 1 6.09053V0H2.17V6.13025C2.17 6.89819 2.36933 7.494 2.768 7.91769C3.17533 8.34138 3.78633 8.55322 4.601 8.55322C5.44167 8.55322 6.04833 8.32814 6.421 7.87797C6.80233 7.41897 6.993 6.83199 6.993 6.11701V0H8.15V6.11701Z" fill="#151125"/>
<path fill-rule="evenodd" clip-rule="evenodd" d="M9 12L0 12L8.74224e-08 10.9815L9 10.9815V12Z" fill="#151125"/>
</svg>
