<svg width="14" height="10" viewBox="0 0 14 10" fill="none" xmlns="http://www.w3.org/2000/svg">
<path fill-rule="evenodd" clip-rule="evenodd" d="M4.66667 1C4.66667 0.723858 4.89882 0.5 5.18518 0.5H13.4815C13.7679 0.5 14 0.723858 14 1C14 1.27614 13.7679 1.5 13.4815 1.5H5.18518C4.89882 1.5 4.66667 1.27614 4.66667 1Z" fill="#151125"/>
<path fill-rule="evenodd" clip-rule="evenodd" d="M4.66667 5C4.66667 4.72386 4.89882 4.5 5.18518 4.5H13.4815C13.7679 4.5 14 4.72386 14 5C14 5.27614 13.7679 5.5 13.4815 5.5H5.18518C4.89882 5.5 4.66667 5.27614 4.66667 5Z" fill="#151125"/>
<path fill-rule="evenodd" clip-rule="evenodd" d="M4.66667 9C4.66667 8.72386 4.89882 8.5 5.18518 8.5H13.4815C13.7679 8.5 14 8.72386 14 9C14 9.27614 13.7679 9.5 13.4815 9.5H5.18518C4.89882 9.5 4.66667 9.27614 4.66667 9Z" fill="#151125"/>
<path d="M2.07407 1C2.07407 1.55228 1.60978 2 1.03704 2C0.464297 2 0 1.55228 0 1C0 0.447715 0.464297 0 1.03704 0C1.60978 0 2.07407 0.447715 2.07407 1Z" fill="#151125"/>
<path d="M2.07407 5C2.07407 5.55228 1.60978 6 1.03704 6C0.464297 6 0 5.55228 0 5C0 4.44772 0.464297 4 1.03704 4C1.60978 4 2.07407 4.44772 2.07407 5Z" fill="#151125"/>
<path d="M2.07407 9C2.07407 9.55229 1.60978 10 1.03704 10C0.464297 10 0 9.55229 0 9C0 8.44771 0.464297 8 1.03704 8C1.60978 8 2.07407 8.44771 2.07407 9Z" fill="#151125"/>
</svg>
